G04 #@! TF.GenerationSoftware,KiCad,Pcbnew,7.0.5-7.0.5~ubuntu22.04.1*
G04 #@! TF.CreationDate,2023-07-13T11:12:20+08:00*
G04 #@! TF.ProjectId,EFP-flash,4546502d-666c-4617-9368-2e6b69636164,v1.1.0*
G04 #@! TF.SameCoordinates,Original*
G04 #@! TF.FileFunction,Legend,Bot*
G04 #@! TF.FilePolarity,Positive*
%FSLAX46Y46*%
G04 Gerber Fmt 4.6, Leading zero omitted, Abs format (unit mm)*
G04 Created by KiCad (PCBNEW 7.0.5-7.0.5~ubuntu22.04.1) date 2023-07-13 11:12:20*
%MOMM*%
%LPD*%
G01*
G04 APERTURE LIST*
%ADD10C,0.150000*%
%ADD11C,0.010000*%
G04 APERTURE END LIST*
D10*
X152400000Y-51435000D02*
X151765000Y-50800000D01*
X152400000Y-50165000D01*
X152400000Y-51435000D01*
G36*
X152400000Y-51435000D02*
G01*
X151765000Y-50800000D01*
X152400000Y-50165000D01*
X152400000Y-51435000D01*
G37*
X147320000Y-64643000D02*
X146050000Y-64643000D01*
X146685000Y-64008000D01*
X147320000Y-64643000D01*
G36*
X147320000Y-64643000D02*
G01*
X146050000Y-64643000D01*
X146685000Y-64008000D01*
X147320000Y-64643000D01*
G37*
X144145000Y-64643000D02*
X143510000Y-64008000D01*
X144780000Y-64008000D01*
X144145000Y-64643000D01*
G36*
X144145000Y-64643000D02*
G01*
X143510000Y-64008000D01*
X144780000Y-64008000D01*
X144145000Y-64643000D01*
G37*
X146230180Y-62591792D02*
X146706371Y-62925125D01*
X146230180Y-63163220D02*
X147230180Y-63163220D01*
X147230180Y-63163220D02*
X147230180Y-62782268D01*
X147230180Y-62782268D02*
X147182561Y-62687030D01*
X147182561Y-62687030D02*
X147134942Y-62639411D01*
X147134942Y-62639411D02*
X147039704Y-62591792D01*
X147039704Y-62591792D02*
X146896847Y-62591792D01*
X146896847Y-62591792D02*
X146801609Y-62639411D01*
X146801609Y-62639411D02*
X146753990Y-62687030D01*
X146753990Y-62687030D02*
X146706371Y-62782268D01*
X146706371Y-62782268D02*
X146706371Y-63163220D01*
X146230180Y-62258458D02*
X146896847Y-61734649D01*
X146896847Y-62258458D02*
X146230180Y-61734649D01*
X139147765Y-64425295D02*
X139147765Y-64091962D01*
X138623955Y-63949105D02*
X138623955Y-64425295D01*
X138623955Y-64425295D02*
X139623955Y-64425295D01*
X139623955Y-64425295D02*
X139623955Y-63949105D01*
X138623955Y-63520533D02*
X139623955Y-63520533D01*
X139623955Y-63520533D02*
X138623955Y-62949105D01*
X138623955Y-62949105D02*
X139623955Y-62949105D01*
X149843333Y-36761009D02*
X149510000Y-36761009D01*
X149367143Y-37284819D02*
X149843333Y-37284819D01*
X149843333Y-37284819D02*
X149843333Y-36284819D01*
X149843333Y-36284819D02*
X149367143Y-36284819D01*
X148986190Y-37237200D02*
X148843333Y-37284819D01*
X148843333Y-37284819D02*
X148605238Y-37284819D01*
X148605238Y-37284819D02*
X148510000Y-37237200D01*
X148510000Y-37237200D02*
X148462381Y-37189580D01*
X148462381Y-37189580D02*
X148414762Y-37094342D01*
X148414762Y-37094342D02*
X148414762Y-36999104D01*
X148414762Y-36999104D02*
X148462381Y-36903866D01*
X148462381Y-36903866D02*
X148510000Y-36856247D01*
X148510000Y-36856247D02*
X148605238Y-36808628D01*
X148605238Y-36808628D02*
X148795714Y-36761009D01*
X148795714Y-36761009D02*
X148890952Y-36713390D01*
X148890952Y-36713390D02*
X148938571Y-36665771D01*
X148938571Y-36665771D02*
X148986190Y-36570533D01*
X148986190Y-36570533D02*
X148986190Y-36475295D01*
X148986190Y-36475295D02*
X148938571Y-36380057D01*
X148938571Y-36380057D02*
X148890952Y-36332438D01*
X148890952Y-36332438D02*
X148795714Y-36284819D01*
X148795714Y-36284819D02*
X148557619Y-36284819D01*
X148557619Y-36284819D02*
X148414762Y-36332438D01*
X147986190Y-37284819D02*
X147986190Y-36284819D01*
X147986190Y-36284819D02*
X147605238Y-36284819D01*
X147605238Y-36284819D02*
X147510000Y-36332438D01*
X147510000Y-36332438D02*
X147462381Y-36380057D01*
X147462381Y-36380057D02*
X147414762Y-36475295D01*
X147414762Y-36475295D02*
X147414762Y-36618152D01*
X147414762Y-36618152D02*
X147462381Y-36713390D01*
X147462381Y-36713390D02*
X147510000Y-36761009D01*
X147510000Y-36761009D02*
X147605238Y-36808628D01*
X147605238Y-36808628D02*
X147986190Y-36808628D01*
X146986190Y-36903866D02*
X146224286Y-36903866D01*
X145890952Y-36618152D02*
X145510000Y-36618152D01*
X145748095Y-37284819D02*
X145748095Y-36427676D01*
X145748095Y-36427676D02*
X145700476Y-36332438D01*
X145700476Y-36332438D02*
X145605238Y-36284819D01*
X145605238Y-36284819D02*
X145510000Y-36284819D01*
X145033809Y-37284819D02*
X145129047Y-37237200D01*
X145129047Y-37237200D02*
X145176666Y-37141961D01*
X145176666Y-37141961D02*
X145176666Y-36284819D01*
X144224285Y-37284819D02*
X144224285Y-36761009D01*
X144224285Y-36761009D02*
X144271904Y-36665771D01*
X144271904Y-36665771D02*
X144367142Y-36618152D01*
X144367142Y-36618152D02*
X144557618Y-36618152D01*
X144557618Y-36618152D02*
X144652856Y-36665771D01*
X144224285Y-37237200D02*
X144319523Y-37284819D01*
X144319523Y-37284819D02*
X144557618Y-37284819D01*
X144557618Y-37284819D02*
X144652856Y-37237200D01*
X144652856Y-37237200D02*
X144700475Y-37141961D01*
X144700475Y-37141961D02*
X144700475Y-37046723D01*
X144700475Y-37046723D02*
X144652856Y-36951485D01*
X144652856Y-36951485D02*
X144557618Y-36903866D01*
X144557618Y-36903866D02*
X144319523Y-36903866D01*
X144319523Y-36903866D02*
X144224285Y-36856247D01*
X143795713Y-37237200D02*
X143700475Y-37284819D01*
X143700475Y-37284819D02*
X143509999Y-37284819D01*
X143509999Y-37284819D02*
X143414761Y-37237200D01*
X143414761Y-37237200D02*
X143367142Y-37141961D01*
X143367142Y-37141961D02*
X143367142Y-37094342D01*
X143367142Y-37094342D02*
X143414761Y-36999104D01*
X143414761Y-36999104D02*
X143509999Y-36951485D01*
X143509999Y-36951485D02*
X143652856Y-36951485D01*
X143652856Y-36951485D02*
X143748094Y-36903866D01*
X143748094Y-36903866D02*
X143795713Y-36808628D01*
X143795713Y-36808628D02*
X143795713Y-36761009D01*
X143795713Y-36761009D02*
X143748094Y-36665771D01*
X143748094Y-36665771D02*
X143652856Y-36618152D01*
X143652856Y-36618152D02*
X143509999Y-36618152D01*
X143509999Y-36618152D02*
X143414761Y-36665771D01*
X142938570Y-37284819D02*
X142938570Y-36284819D01*
X142509999Y-37284819D02*
X142509999Y-36761009D01*
X142509999Y-36761009D02*
X142557618Y-36665771D01*
X142557618Y-36665771D02*
X142652856Y-36618152D01*
X142652856Y-36618152D02*
X142795713Y-36618152D01*
X142795713Y-36618152D02*
X142890951Y-36665771D01*
X142890951Y-36665771D02*
X142938570Y-36713390D01*
X141367141Y-36618152D02*
X141129046Y-37284819D01*
X141129046Y-37284819D02*
X140890951Y-36618152D01*
X139986189Y-37284819D02*
X140557617Y-37284819D01*
X140271903Y-37284819D02*
X140271903Y-36284819D01*
X140271903Y-36284819D02*
X140367141Y-36427676D01*
X140367141Y-36427676D02*
X140462379Y-36522914D01*
X140462379Y-36522914D02*
X140557617Y-36570533D01*
X139557617Y-37189580D02*
X139509998Y-37237200D01*
X139509998Y-37237200D02*
X139557617Y-37284819D01*
X139557617Y-37284819D02*
X139605236Y-37237200D01*
X139605236Y-37237200D02*
X139557617Y-37189580D01*
X139557617Y-37189580D02*
X139557617Y-37284819D01*
X138557618Y-37284819D02*
X139129046Y-37284819D01*
X138843332Y-37284819D02*
X138843332Y-36284819D01*
X138843332Y-36284819D02*
X138938570Y-36427676D01*
X138938570Y-36427676D02*
X139033808Y-36522914D01*
X139033808Y-36522914D02*
X139129046Y-36570533D01*
X138129046Y-37189580D02*
X138081427Y-37237200D01*
X138081427Y-37237200D02*
X138129046Y-37284819D01*
X138129046Y-37284819D02*
X138176665Y-37237200D01*
X138176665Y-37237200D02*
X138129046Y-37189580D01*
X138129046Y-37189580D02*
X138129046Y-37284819D01*
X137462380Y-36284819D02*
X137367142Y-36284819D01*
X137367142Y-36284819D02*
X137271904Y-36332438D01*
X137271904Y-36332438D02*
X137224285Y-36380057D01*
X137224285Y-36380057D02*
X137176666Y-36475295D01*
X137176666Y-36475295D02*
X137129047Y-36665771D01*
X137129047Y-36665771D02*
X137129047Y-36903866D01*
X137129047Y-36903866D02*
X137176666Y-37094342D01*
X137176666Y-37094342D02*
X137224285Y-37189580D01*
X137224285Y-37189580D02*
X137271904Y-37237200D01*
X137271904Y-37237200D02*
X137367142Y-37284819D01*
X137367142Y-37284819D02*
X137462380Y-37284819D01*
X137462380Y-37284819D02*
X137557618Y-37237200D01*
X137557618Y-37237200D02*
X137605237Y-37189580D01*
X137605237Y-37189580D02*
X137652856Y-37094342D01*
X137652856Y-37094342D02*
X137700475Y-36903866D01*
X137700475Y-36903866D02*
X137700475Y-36665771D01*
X137700475Y-36665771D02*
X137652856Y-36475295D01*
X137652856Y-36475295D02*
X137605237Y-36380057D01*
X137605237Y-36380057D02*
X137557618Y-36332438D01*
X137557618Y-36332438D02*
X137462380Y-36284819D01*
X136607765Y-64091962D02*
X136560146Y-63949105D01*
X136560146Y-63949105D02*
X136512527Y-63901486D01*
X136512527Y-63901486D02*
X136417289Y-63853867D01*
X136417289Y-63853867D02*
X136274432Y-63853867D01*
X136274432Y-63853867D02*
X136179194Y-63901486D01*
X136179194Y-63901486D02*
X136131575Y-63949105D01*
X136131575Y-63949105D02*
X136083955Y-64044343D01*
X136083955Y-64044343D02*
X136083955Y-64425295D01*
X136083955Y-64425295D02*
X137083955Y-64425295D01*
X137083955Y-64425295D02*
X137083955Y-64091962D01*
X137083955Y-64091962D02*
X137036336Y-63996724D01*
X137036336Y-63996724D02*
X136988717Y-63949105D01*
X136988717Y-63949105D02*
X136893479Y-63901486D01*
X136893479Y-63901486D02*
X136798241Y-63901486D01*
X136798241Y-63901486D02*
X136703003Y-63949105D01*
X136703003Y-63949105D02*
X136655384Y-63996724D01*
X136655384Y-63996724D02*
X136607765Y-64091962D01*
X136607765Y-64091962D02*
X136607765Y-64425295D01*
X136083955Y-63282438D02*
X136131575Y-63377676D01*
X136131575Y-63377676D02*
X136179194Y-63425295D01*
X136179194Y-63425295D02*
X136274432Y-63472914D01*
X136274432Y-63472914D02*
X136560146Y-63472914D01*
X136560146Y-63472914D02*
X136655384Y-63425295D01*
X136655384Y-63425295D02*
X136703003Y-63377676D01*
X136703003Y-63377676D02*
X136750622Y-63282438D01*
X136750622Y-63282438D02*
X136750622Y-63139581D01*
X136750622Y-63139581D02*
X136703003Y-63044343D01*
X136703003Y-63044343D02*
X136655384Y-62996724D01*
X136655384Y-62996724D02*
X136560146Y-62949105D01*
X136560146Y-62949105D02*
X136274432Y-62949105D01*
X136274432Y-62949105D02*
X136179194Y-62996724D01*
X136179194Y-62996724D02*
X136131575Y-63044343D01*
X136131575Y-63044343D02*
X136083955Y-63139581D01*
X136083955Y-63139581D02*
X136083955Y-63282438D01*
X136083955Y-62377676D02*
X136131575Y-62472914D01*
X136131575Y-62472914D02*
X136179194Y-62520533D01*
X136179194Y-62520533D02*
X136274432Y-62568152D01*
X136274432Y-62568152D02*
X136560146Y-62568152D01*
X136560146Y-62568152D02*
X136655384Y-62520533D01*
X136655384Y-62520533D02*
X136703003Y-62472914D01*
X136703003Y-62472914D02*
X136750622Y-62377676D01*
X136750622Y-62377676D02*
X136750622Y-62234819D01*
X136750622Y-62234819D02*
X136703003Y-62139581D01*
X136703003Y-62139581D02*
X136655384Y-62091962D01*
X136655384Y-62091962D02*
X136560146Y-62044343D01*
X136560146Y-62044343D02*
X136274432Y-62044343D01*
X136274432Y-62044343D02*
X136179194Y-62091962D01*
X136179194Y-62091962D02*
X136131575Y-62139581D01*
X136131575Y-62139581D02*
X136083955Y-62234819D01*
X136083955Y-62234819D02*
X136083955Y-62377676D01*
X136750622Y-61758628D02*
X136750622Y-61377676D01*
X137083955Y-61615771D02*
X136226813Y-61615771D01*
X136226813Y-61615771D02*
X136131575Y-61568152D01*
X136131575Y-61568152D02*
X136083955Y-61472914D01*
X136083955Y-61472914D02*
X136083955Y-61377676D01*
X144690180Y-63306077D02*
X144690180Y-62734649D01*
X143690180Y-63020363D02*
X144690180Y-63020363D01*
X143690180Y-62496553D02*
X144356847Y-61972744D01*
X144356847Y-62496553D02*
X143690180Y-61972744D01*
X127070295Y-43294761D02*
X127641723Y-43294761D01*
X127641723Y-43294761D02*
X127756009Y-43256666D01*
X127756009Y-43256666D02*
X127832200Y-43180475D01*
X127832200Y-43180475D02*
X127870295Y-43066190D01*
X127870295Y-43066190D02*
X127870295Y-42989999D01*
X127870295Y-44056666D02*
X127870295Y-43675714D01*
X127870295Y-43675714D02*
X127070295Y-43675714D01*
X127794104Y-44780476D02*
X127832200Y-44742380D01*
X127832200Y-44742380D02*
X127870295Y-44628095D01*
X127870295Y-44628095D02*
X127870295Y-44551904D01*
X127870295Y-44551904D02*
X127832200Y-44437618D01*
X127832200Y-44437618D02*
X127756009Y-44361428D01*
X127756009Y-44361428D02*
X127679819Y-44323333D01*
X127679819Y-44323333D02*
X127527438Y-44285237D01*
X127527438Y-44285237D02*
X127413152Y-44285237D01*
X127413152Y-44285237D02*
X127260771Y-44323333D01*
X127260771Y-44323333D02*
X127184580Y-44361428D01*
X127184580Y-44361428D02*
X127108390Y-44437618D01*
X127108390Y-44437618D02*
X127070295Y-44551904D01*
X127070295Y-44551904D02*
X127070295Y-44628095D01*
X127070295Y-44628095D02*
X127108390Y-44742380D01*
X127108390Y-44742380D02*
X127146485Y-44780476D01*
X127070295Y-45351904D02*
X127641723Y-45351904D01*
X127641723Y-45351904D02*
X127756009Y-45313809D01*
X127756009Y-45313809D02*
X127832200Y-45237618D01*
X127832200Y-45237618D02*
X127870295Y-45123333D01*
X127870295Y-45123333D02*
X127870295Y-45047142D01*
X127870295Y-46113809D02*
X127870295Y-45732857D01*
X127870295Y-45732857D02*
X127070295Y-45732857D01*
X127794104Y-46837619D02*
X127832200Y-46799523D01*
X127832200Y-46799523D02*
X127870295Y-46685238D01*
X127870295Y-46685238D02*
X127870295Y-46609047D01*
X127870295Y-46609047D02*
X127832200Y-46494761D01*
X127832200Y-46494761D02*
X127756009Y-46418571D01*
X127756009Y-46418571D02*
X127679819Y-46380476D01*
X127679819Y-46380476D02*
X127527438Y-46342380D01*
X127527438Y-46342380D02*
X127413152Y-46342380D01*
X127413152Y-46342380D02*
X127260771Y-46380476D01*
X127260771Y-46380476D02*
X127184580Y-46418571D01*
X127184580Y-46418571D02*
X127108390Y-46494761D01*
X127108390Y-46494761D02*
X127070295Y-46609047D01*
X127070295Y-46609047D02*
X127070295Y-46685238D01*
X127070295Y-46685238D02*
X127108390Y-46799523D01*
X127108390Y-46799523D02*
X127146485Y-46837619D01*
X127070295Y-47409047D02*
X127641723Y-47409047D01*
X127641723Y-47409047D02*
X127756009Y-47370952D01*
X127756009Y-47370952D02*
X127832200Y-47294761D01*
X127832200Y-47294761D02*
X127870295Y-47180476D01*
X127870295Y-47180476D02*
X127870295Y-47104285D01*
X127870295Y-48170952D02*
X127870295Y-47790000D01*
X127870295Y-47790000D02*
X127070295Y-47790000D01*
X127794104Y-48894762D02*
X127832200Y-48856666D01*
X127832200Y-48856666D02*
X127870295Y-48742381D01*
X127870295Y-48742381D02*
X127870295Y-48666190D01*
X127870295Y-48666190D02*
X127832200Y-48551904D01*
X127832200Y-48551904D02*
X127756009Y-48475714D01*
X127756009Y-48475714D02*
X127679819Y-48437619D01*
X127679819Y-48437619D02*
X127527438Y-48399523D01*
X127527438Y-48399523D02*
X127413152Y-48399523D01*
X127413152Y-48399523D02*
X127260771Y-48437619D01*
X127260771Y-48437619D02*
X127184580Y-48475714D01*
X127184580Y-48475714D02*
X127108390Y-48551904D01*
X127108390Y-48551904D02*
X127070295Y-48666190D01*
X127070295Y-48666190D02*
X127070295Y-48742381D01*
X127070295Y-48742381D02*
X127108390Y-48856666D01*
X127108390Y-48856666D02*
X127146485Y-48894762D01*
X127070295Y-49466190D02*
X127641723Y-49466190D01*
X127641723Y-49466190D02*
X127756009Y-49428095D01*
X127756009Y-49428095D02*
X127832200Y-49351904D01*
X127832200Y-49351904D02*
X127870295Y-49237619D01*
X127870295Y-49237619D02*
X127870295Y-49161428D01*
X127870295Y-50228095D02*
X127870295Y-49847143D01*
X127870295Y-49847143D02*
X127070295Y-49847143D01*
X127794104Y-50951905D02*
X127832200Y-50913809D01*
X127832200Y-50913809D02*
X127870295Y-50799524D01*
X127870295Y-50799524D02*
X127870295Y-50723333D01*
X127870295Y-50723333D02*
X127832200Y-50609047D01*
X127832200Y-50609047D02*
X127756009Y-50532857D01*
X127756009Y-50532857D02*
X127679819Y-50494762D01*
X127679819Y-50494762D02*
X127527438Y-50456666D01*
X127527438Y-50456666D02*
X127413152Y-50456666D01*
X127413152Y-50456666D02*
X127260771Y-50494762D01*
X127260771Y-50494762D02*
X127184580Y-50532857D01*
X127184580Y-50532857D02*
X127108390Y-50609047D01*
X127108390Y-50609047D02*
X127070295Y-50723333D01*
X127070295Y-50723333D02*
X127070295Y-50799524D01*
X127070295Y-50799524D02*
X127108390Y-50913809D01*
X127108390Y-50913809D02*
X127146485Y-50951905D01*
X139890238Y-46544580D02*
X139937857Y-46592200D01*
X139937857Y-46592200D02*
X140080714Y-46639819D01*
X140080714Y-46639819D02*
X140175952Y-46639819D01*
X140175952Y-46639819D02*
X140318809Y-46592200D01*
X140318809Y-46592200D02*
X140414047Y-46496961D01*
X140414047Y-46496961D02*
X140461666Y-46401723D01*
X140461666Y-46401723D02*
X140509285Y-46211247D01*
X140509285Y-46211247D02*
X140509285Y-46068390D01*
X140509285Y-46068390D02*
X140461666Y-45877914D01*
X140461666Y-45877914D02*
X140414047Y-45782676D01*
X140414047Y-45782676D02*
X140318809Y-45687438D01*
X140318809Y-45687438D02*
X140175952Y-45639819D01*
X140175952Y-45639819D02*
X140080714Y-45639819D01*
X140080714Y-45639819D02*
X139937857Y-45687438D01*
X139937857Y-45687438D02*
X139890238Y-45735057D01*
X139461666Y-46639819D02*
X139461666Y-45639819D01*
X139461666Y-45639819D02*
X139080714Y-45639819D01*
X139080714Y-45639819D02*
X138985476Y-45687438D01*
X138985476Y-45687438D02*
X138937857Y-45735057D01*
X138937857Y-45735057D02*
X138890238Y-45830295D01*
X138890238Y-45830295D02*
X138890238Y-45973152D01*
X138890238Y-45973152D02*
X138937857Y-46068390D01*
X138937857Y-46068390D02*
X138985476Y-46116009D01*
X138985476Y-46116009D02*
X139080714Y-46163628D01*
X139080714Y-46163628D02*
X139461666Y-46163628D01*
X138509285Y-45735057D02*
X138461666Y-45687438D01*
X138461666Y-45687438D02*
X138366428Y-45639819D01*
X138366428Y-45639819D02*
X138128333Y-45639819D01*
X138128333Y-45639819D02*
X138033095Y-45687438D01*
X138033095Y-45687438D02*
X137985476Y-45735057D01*
X137985476Y-45735057D02*
X137937857Y-45830295D01*
X137937857Y-45830295D02*
X137937857Y-45925533D01*
X137937857Y-45925533D02*
X137985476Y-46068390D01*
X137985476Y-46068390D02*
X138556904Y-46639819D01*
X138556904Y-46639819D02*
X137937857Y-46639819D01*
X136985476Y-46639819D02*
X137556904Y-46639819D01*
X137271190Y-46639819D02*
X137271190Y-45639819D01*
X137271190Y-45639819D02*
X137366428Y-45782676D01*
X137366428Y-45782676D02*
X137461666Y-45877914D01*
X137461666Y-45877914D02*
X137556904Y-45925533D01*
X136366428Y-45639819D02*
X136271190Y-45639819D01*
X136271190Y-45639819D02*
X136175952Y-45687438D01*
X136175952Y-45687438D02*
X136128333Y-45735057D01*
X136128333Y-45735057D02*
X136080714Y-45830295D01*
X136080714Y-45830295D02*
X136033095Y-46020771D01*
X136033095Y-46020771D02*
X136033095Y-46258866D01*
X136033095Y-46258866D02*
X136080714Y-46449342D01*
X136080714Y-46449342D02*
X136128333Y-46544580D01*
X136128333Y-46544580D02*
X136175952Y-46592200D01*
X136175952Y-46592200D02*
X136271190Y-46639819D01*
X136271190Y-46639819D02*
X136366428Y-46639819D01*
X136366428Y-46639819D02*
X136461666Y-46592200D01*
X136461666Y-46592200D02*
X136509285Y-46544580D01*
X136509285Y-46544580D02*
X136556904Y-46449342D01*
X136556904Y-46449342D02*
X136604523Y-46258866D01*
X136604523Y-46258866D02*
X136604523Y-46020771D01*
X136604523Y-46020771D02*
X136556904Y-45830295D01*
X136556904Y-45830295D02*
X136509285Y-45735057D01*
X136509285Y-45735057D02*
X136461666Y-45687438D01*
X136461666Y-45687438D02*
X136366428Y-45639819D01*
X135652142Y-45735057D02*
X135604523Y-45687438D01*
X135604523Y-45687438D02*
X135509285Y-45639819D01*
X135509285Y-45639819D02*
X135271190Y-45639819D01*
X135271190Y-45639819D02*
X135175952Y-45687438D01*
X135175952Y-45687438D02*
X135128333Y-45735057D01*
X135128333Y-45735057D02*
X135080714Y-45830295D01*
X135080714Y-45830295D02*
X135080714Y-45925533D01*
X135080714Y-45925533D02*
X135128333Y-46068390D01*
X135128333Y-46068390D02*
X135699761Y-46639819D01*
X135699761Y-46639819D02*
X135080714Y-46639819D01*
X142128332Y-47249819D02*
X142128332Y-48059342D01*
X142128332Y-48059342D02*
X142080713Y-48154580D01*
X142080713Y-48154580D02*
X142033094Y-48202200D01*
X142033094Y-48202200D02*
X141937856Y-48249819D01*
X141937856Y-48249819D02*
X141747380Y-48249819D01*
X141747380Y-48249819D02*
X141652142Y-48202200D01*
X141652142Y-48202200D02*
X141604523Y-48154580D01*
X141604523Y-48154580D02*
X141556904Y-48059342D01*
X141556904Y-48059342D02*
X141556904Y-47249819D01*
X141128332Y-48202200D02*
X140985475Y-48249819D01*
X140985475Y-48249819D02*
X140747380Y-48249819D01*
X140747380Y-48249819D02*
X140652142Y-48202200D01*
X140652142Y-48202200D02*
X140604523Y-48154580D01*
X140604523Y-48154580D02*
X140556904Y-48059342D01*
X140556904Y-48059342D02*
X140556904Y-47964104D01*
X140556904Y-47964104D02*
X140604523Y-47868866D01*
X140604523Y-47868866D02*
X140652142Y-47821247D01*
X140652142Y-47821247D02*
X140747380Y-47773628D01*
X140747380Y-47773628D02*
X140937856Y-47726009D01*
X140937856Y-47726009D02*
X141033094Y-47678390D01*
X141033094Y-47678390D02*
X141080713Y-47630771D01*
X141080713Y-47630771D02*
X141128332Y-47535533D01*
X141128332Y-47535533D02*
X141128332Y-47440295D01*
X141128332Y-47440295D02*
X141080713Y-47345057D01*
X141080713Y-47345057D02*
X141033094Y-47297438D01*
X141033094Y-47297438D02*
X140937856Y-47249819D01*
X140937856Y-47249819D02*
X140699761Y-47249819D01*
X140699761Y-47249819D02*
X140556904Y-47297438D01*
X139794999Y-47726009D02*
X139652142Y-47773628D01*
X139652142Y-47773628D02*
X139604523Y-47821247D01*
X139604523Y-47821247D02*
X139556904Y-47916485D01*
X139556904Y-47916485D02*
X139556904Y-48059342D01*
X139556904Y-48059342D02*
X139604523Y-48154580D01*
X139604523Y-48154580D02*
X139652142Y-48202200D01*
X139652142Y-48202200D02*
X139747380Y-48249819D01*
X139747380Y-48249819D02*
X140128332Y-48249819D01*
X140128332Y-48249819D02*
X140128332Y-47249819D01*
X140128332Y-47249819D02*
X139794999Y-47249819D01*
X139794999Y-47249819D02*
X139699761Y-47297438D01*
X139699761Y-47297438D02*
X139652142Y-47345057D01*
X139652142Y-47345057D02*
X139604523Y-47440295D01*
X139604523Y-47440295D02*
X139604523Y-47535533D01*
X139604523Y-47535533D02*
X139652142Y-47630771D01*
X139652142Y-47630771D02*
X139699761Y-47678390D01*
X139699761Y-47678390D02*
X139794999Y-47726009D01*
X139794999Y-47726009D02*
X140128332Y-47726009D01*
X139128332Y-47868866D02*
X138366428Y-47868866D01*
X137890237Y-47583152D02*
X137128333Y-47868866D01*
X137128333Y-47868866D02*
X137890237Y-48154580D01*
X136652142Y-47249819D02*
X136652142Y-48059342D01*
X136652142Y-48059342D02*
X136604523Y-48154580D01*
X136604523Y-48154580D02*
X136556904Y-48202200D01*
X136556904Y-48202200D02*
X136461666Y-48249819D01*
X136461666Y-48249819D02*
X136271190Y-48249819D01*
X136271190Y-48249819D02*
X136175952Y-48202200D01*
X136175952Y-48202200D02*
X136128333Y-48154580D01*
X136128333Y-48154580D02*
X136080714Y-48059342D01*
X136080714Y-48059342D02*
X136080714Y-47249819D01*
X135652142Y-47964104D02*
X135175952Y-47964104D01*
X135747380Y-48249819D02*
X135414047Y-47249819D01*
X135414047Y-47249819D02*
X135080714Y-48249819D01*
X134175952Y-48249819D02*
X134509285Y-47773628D01*
X134747380Y-48249819D02*
X134747380Y-47249819D01*
X134747380Y-47249819D02*
X134366428Y-47249819D01*
X134366428Y-47249819D02*
X134271190Y-47297438D01*
X134271190Y-47297438D02*
X134223571Y-47345057D01*
X134223571Y-47345057D02*
X134175952Y-47440295D01*
X134175952Y-47440295D02*
X134175952Y-47583152D01*
X134175952Y-47583152D02*
X134223571Y-47678390D01*
X134223571Y-47678390D02*
X134271190Y-47726009D01*
X134271190Y-47726009D02*
X134366428Y-47773628D01*
X134366428Y-47773628D02*
X134747380Y-47773628D01*
X133890237Y-47249819D02*
X133318809Y-47249819D01*
X133604523Y-48249819D02*
X133604523Y-47249819D01*
X149722561Y-63909411D02*
X149770180Y-64004649D01*
X149770180Y-64004649D02*
X149770180Y-64147506D01*
X149770180Y-64147506D02*
X149722561Y-64290363D01*
X149722561Y-64290363D02*
X149627323Y-64385601D01*
X149627323Y-64385601D02*
X149532085Y-64433220D01*
X149532085Y-64433220D02*
X149341609Y-64480839D01*
X149341609Y-64480839D02*
X149198752Y-64480839D01*
X149198752Y-64480839D02*
X149008276Y-64433220D01*
X149008276Y-64433220D02*
X148913038Y-64385601D01*
X148913038Y-64385601D02*
X148817800Y-64290363D01*
X148817800Y-64290363D02*
X148770180Y-64147506D01*
X148770180Y-64147506D02*
X148770180Y-64052268D01*
X148770180Y-64052268D02*
X148817800Y-63909411D01*
X148817800Y-63909411D02*
X148865419Y-63861792D01*
X148865419Y-63861792D02*
X149198752Y-63861792D01*
X149198752Y-63861792D02*
X149198752Y-64052268D01*
X148770180Y-63433220D02*
X149770180Y-63433220D01*
X149770180Y-63433220D02*
X148770180Y-62861792D01*
X148770180Y-62861792D02*
X149770180Y-62861792D01*
X148770180Y-62385601D02*
X149770180Y-62385601D01*
X149770180Y-62385601D02*
X149770180Y-62147506D01*
X149770180Y-62147506D02*
X149722561Y-62004649D01*
X149722561Y-62004649D02*
X149627323Y-61909411D01*
X149627323Y-61909411D02*
X149532085Y-61861792D01*
X149532085Y-61861792D02*
X149341609Y-61814173D01*
X149341609Y-61814173D02*
X149198752Y-61814173D01*
X149198752Y-61814173D02*
X149008276Y-61861792D01*
X149008276Y-61861792D02*
X148913038Y-61909411D01*
X148913038Y-61909411D02*
X148817800Y-62004649D01*
X148817800Y-62004649D02*
X148770180Y-62147506D01*
X148770180Y-62147506D02*
X148770180Y-62385601D01*
X142150180Y-64528458D02*
X142150180Y-63909411D01*
X142150180Y-63909411D02*
X141769228Y-64242744D01*
X141769228Y-64242744D02*
X141769228Y-64099887D01*
X141769228Y-64099887D02*
X141721609Y-64004649D01*
X141721609Y-64004649D02*
X141673990Y-63957030D01*
X141673990Y-63957030D02*
X141578752Y-63909411D01*
X141578752Y-63909411D02*
X141340657Y-63909411D01*
X141340657Y-63909411D02*
X141245419Y-63957030D01*
X141245419Y-63957030D02*
X141197800Y-64004649D01*
X141197800Y-64004649D02*
X141150180Y-64099887D01*
X141150180Y-64099887D02*
X141150180Y-64385601D01*
X141150180Y-64385601D02*
X141197800Y-64480839D01*
X141197800Y-64480839D02*
X141245419Y-64528458D01*
X141816847Y-63576077D02*
X141150180Y-63337982D01*
X141150180Y-63337982D02*
X141816847Y-63099887D01*
X142150180Y-62814172D02*
X142150180Y-62195125D01*
X142150180Y-62195125D02*
X141769228Y-62528458D01*
X141769228Y-62528458D02*
X141769228Y-62385601D01*
X141769228Y-62385601D02*
X141721609Y-62290363D01*
X141721609Y-62290363D02*
X141673990Y-62242744D01*
X141673990Y-62242744D02*
X141578752Y-62195125D01*
X141578752Y-62195125D02*
X141340657Y-62195125D01*
X141340657Y-62195125D02*
X141245419Y-62242744D01*
X141245419Y-62242744D02*
X141197800Y-62290363D01*
X141197800Y-62290363D02*
X141150180Y-62385601D01*
X141150180Y-62385601D02*
X141150180Y-62671315D01*
X141150180Y-62671315D02*
X141197800Y-62766553D01*
X141197800Y-62766553D02*
X141245419Y-62814172D01*
G04 #@! TO.C,LOGO101*
D11*
X144802829Y-47671097D02*
X144862753Y-47693355D01*
X144887673Y-47710080D01*
X144912910Y-47734043D01*
X144930912Y-47764526D01*
X144942858Y-47806023D01*
X144949930Y-47863032D01*
X144953308Y-47940047D01*
X144954171Y-48041565D01*
X144954002Y-48094027D01*
X144953153Y-48165715D01*
X144951711Y-48222925D01*
X144949814Y-48260809D01*
X144947597Y-48274514D01*
X144933172Y-48269981D01*
X144904054Y-48257670D01*
X144903181Y-48257272D01*
X144888060Y-48249356D01*
X144877891Y-48238495D01*
X144871691Y-48219471D01*
X144868478Y-48187069D01*
X144867270Y-48136071D01*
X144867086Y-48061261D01*
X144866714Y-48013804D01*
X144862750Y-47924615D01*
X144853673Y-47859287D01*
X144838524Y-47814393D01*
X144816345Y-47786507D01*
X144786175Y-47772203D01*
X144781990Y-47771206D01*
X144725480Y-47770427D01*
X144681410Y-47795744D01*
X144650972Y-47846502D01*
X144645544Y-47861175D01*
X144633171Y-47893649D01*
X144626905Y-47908572D01*
X144614036Y-47906516D01*
X144585933Y-47895357D01*
X144559721Y-47876927D01*
X144547771Y-47842098D01*
X144551336Y-47817151D01*
X144573235Y-47766547D01*
X144608644Y-47719128D01*
X144650052Y-47686334D01*
X144667400Y-47678752D01*
X144733089Y-47666076D01*
X144802829Y-47671097D01*
G36*
X144802829Y-47671097D02*
G01*
X144862753Y-47693355D01*
X144887673Y-47710080D01*
X144912910Y-47734043D01*
X144930912Y-47764526D01*
X144942858Y-47806023D01*
X144949930Y-47863032D01*
X144953308Y-47940047D01*
X144954171Y-48041565D01*
X144954002Y-48094027D01*
X144953153Y-48165715D01*
X144951711Y-48222925D01*
X144949814Y-48260809D01*
X144947597Y-48274514D01*
X144933172Y-48269981D01*
X144904054Y-48257670D01*
X144903181Y-48257272D01*
X144888060Y-48249356D01*
X144877891Y-48238495D01*
X144871691Y-48219471D01*
X144868478Y-48187069D01*
X144867270Y-48136071D01*
X144867086Y-48061261D01*
X144866714Y-48013804D01*
X144862750Y-47924615D01*
X144853673Y-47859287D01*
X144838524Y-47814393D01*
X144816345Y-47786507D01*
X144786175Y-47772203D01*
X144781990Y-47771206D01*
X144725480Y-47770427D01*
X144681410Y-47795744D01*
X144650972Y-47846502D01*
X144645544Y-47861175D01*
X144633171Y-47893649D01*
X144626905Y-47908572D01*
X144614036Y-47906516D01*
X144585933Y-47895357D01*
X144559721Y-47876927D01*
X144547771Y-47842098D01*
X144551336Y-47817151D01*
X144573235Y-47766547D01*
X144608644Y-47719128D01*
X144650052Y-47686334D01*
X144667400Y-47678752D01*
X144733089Y-47666076D01*
X144802829Y-47671097D01*
G37*
X148751020Y-47637822D02*
X148818810Y-47669680D01*
X148874366Y-47724770D01*
X148885881Y-47742016D01*
X148895432Y-47761562D01*
X148902206Y-47786198D01*
X148906819Y-47820711D01*
X148909888Y-47869889D01*
X148912029Y-47938519D01*
X148913859Y-48031389D01*
X148918404Y-48289007D01*
X148880225Y-48274491D01*
X148845268Y-48261156D01*
X148819097Y-48248323D01*
X148802013Y-48231780D01*
X148792086Y-48206465D01*
X148787386Y-48167316D01*
X148785982Y-48109268D01*
X148785943Y-48027261D01*
X148785744Y-47961895D01*
X148784559Y-47899173D01*
X148781729Y-47856334D01*
X148776609Y-47828220D01*
X148768553Y-47809675D01*
X148756914Y-47795543D01*
X148728303Y-47775600D01*
X148680239Y-47768083D01*
X148632688Y-47787079D01*
X148629550Y-47789511D01*
X148619769Y-47800748D01*
X148612553Y-47818770D01*
X148607299Y-47848026D01*
X148603402Y-47892962D01*
X148600256Y-47958028D01*
X148597257Y-48047670D01*
X148590000Y-48287697D01*
X148528314Y-48260044D01*
X148466629Y-48232391D01*
X148466629Y-48013246D01*
X148466884Y-47953711D01*
X148469086Y-47870892D01*
X148474661Y-47809227D01*
X148484941Y-47763748D01*
X148501258Y-47729484D01*
X148524943Y-47701466D01*
X148557328Y-47674723D01*
X148603907Y-47647780D01*
X148677287Y-47630191D01*
X148751020Y-47637822D01*
G36*
X148751020Y-47637822D02*
G01*
X148818810Y-47669680D01*
X148874366Y-47724770D01*
X148885881Y-47742016D01*
X148895432Y-47761562D01*
X148902206Y-47786198D01*
X148906819Y-47820711D01*
X148909888Y-47869889D01*
X148912029Y-47938519D01*
X148913859Y-48031389D01*
X148918404Y-48289007D01*
X148880225Y-48274491D01*
X148845268Y-48261156D01*
X148819097Y-48248323D01*
X148802013Y-48231780D01*
X148792086Y-48206465D01*
X148787386Y-48167316D01*
X148785982Y-48109268D01*
X148785943Y-48027261D01*
X148785744Y-47961895D01*
X148784559Y-47899173D01*
X148781729Y-47856334D01*
X148776609Y-47828220D01*
X148768553Y-47809675D01*
X148756914Y-47795543D01*
X148728303Y-47775600D01*
X148680239Y-47768083D01*
X148632688Y-47787079D01*
X148629550Y-47789511D01*
X148619769Y-47800748D01*
X148612553Y-47818770D01*
X148607299Y-47848026D01*
X148603402Y-47892962D01*
X148600256Y-47958028D01*
X148597257Y-48047670D01*
X148590000Y-48287697D01*
X148528314Y-48260044D01*
X148466629Y-48232391D01*
X148466629Y-48013246D01*
X148466884Y-47953711D01*
X148469086Y-47870892D01*
X148474661Y-47809227D01*
X148484941Y-47763748D01*
X148501258Y-47729484D01*
X148524943Y-47701466D01*
X148557328Y-47674723D01*
X148603907Y-47647780D01*
X148677287Y-47630191D01*
X148751020Y-47637822D01*
G37*
X146927691Y-47686467D02*
X146932273Y-47689003D01*
X146969704Y-47718057D01*
X147003170Y-47755410D01*
X147009007Y-47763852D01*
X147020165Y-47783553D01*
X147028136Y-47806935D01*
X147033618Y-47839067D01*
X147037307Y-47885019D01*
X147039899Y-47949859D01*
X147042092Y-48038657D01*
X147042402Y-48053669D01*
X147043400Y-48150999D01*
X147041994Y-48219934D01*
X147038164Y-48260948D01*
X147031889Y-48274514D01*
X147012898Y-48270452D01*
X146980638Y-48258144D01*
X146973041Y-48254545D01*
X146961176Y-48246398D01*
X146952994Y-48233004D01*
X146947643Y-48209608D01*
X146944269Y-48171455D01*
X146942019Y-48113790D01*
X146940040Y-48031857D01*
X146939498Y-48007907D01*
X146937403Y-47932266D01*
X146934683Y-47879328D01*
X146930515Y-47844075D01*
X146924079Y-47821487D01*
X146914550Y-47806544D01*
X146901106Y-47794227D01*
X146861305Y-47772634D01*
X146812341Y-47768476D01*
X146768529Y-47784999D01*
X146737008Y-47819210D01*
X146724914Y-47868114D01*
X146724578Y-47881407D01*
X146717972Y-47905472D01*
X146698470Y-47909144D01*
X146660283Y-47894813D01*
X146651438Y-47890217D01*
X146627534Y-47863186D01*
X146627061Y-47822994D01*
X146649836Y-47767409D01*
X146670727Y-47737117D01*
X146724142Y-47694084D01*
X146790074Y-47669755D01*
X146860574Y-47666443D01*
X146927691Y-47686467D01*
G36*
X146927691Y-47686467D02*
G01*
X146932273Y-47689003D01*
X146969704Y-47718057D01*
X147003170Y-47755410D01*
X147009007Y-47763852D01*
X147020165Y-47783553D01*
X147028136Y-47806935D01*
X147033618Y-47839067D01*
X147037307Y-47885019D01*
X147039899Y-47949859D01*
X147042092Y-48038657D01*
X147042402Y-48053669D01*
X147043400Y-48150999D01*
X147041994Y-48219934D01*
X147038164Y-48260948D01*
X147031889Y-48274514D01*
X147012898Y-48270452D01*
X146980638Y-48258144D01*
X146973041Y-48254545D01*
X146961176Y-48246398D01*
X146952994Y-48233004D01*
X146947643Y-48209608D01*
X146944269Y-48171455D01*
X146942019Y-48113790D01*
X146940040Y-48031857D01*
X146939498Y-48007907D01*
X146937403Y-47932266D01*
X146934683Y-47879328D01*
X146930515Y-47844075D01*
X146924079Y-47821487D01*
X146914550Y-47806544D01*
X146901106Y-47794227D01*
X146861305Y-47772634D01*
X146812341Y-47768476D01*
X146768529Y-47784999D01*
X146737008Y-47819210D01*
X146724914Y-47868114D01*
X146724578Y-47881407D01*
X146717972Y-47905472D01*
X146698470Y-47909144D01*
X146660283Y-47894813D01*
X146651438Y-47890217D01*
X146627534Y-47863186D01*
X146627061Y-47822994D01*
X146649836Y-47767409D01*
X146670727Y-47737117D01*
X146724142Y-47694084D01*
X146790074Y-47669755D01*
X146860574Y-47666443D01*
X146927691Y-47686467D01*
G37*
X147998543Y-47469444D02*
X148045714Y-47489342D01*
X148045714Y-47886509D01*
X148045519Y-47989498D01*
X148044998Y-48082141D01*
X148044199Y-48160700D01*
X148043172Y-48221439D01*
X148041963Y-48260623D01*
X148040623Y-48274514D01*
X148040099Y-48274468D01*
X148022287Y-48269420D01*
X147989823Y-48258580D01*
X147944114Y-48242646D01*
X147944114Y-48038173D01*
X147943824Y-47957832D01*
X147942474Y-47899562D01*
X147939369Y-47859909D01*
X147933812Y-47833618D01*
X147925107Y-47815436D01*
X147912556Y-47800107D01*
X147903999Y-47791955D01*
X147857728Y-47769375D01*
X147806728Y-47771375D01*
X147759993Y-47798073D01*
X147753189Y-47804698D01*
X147742293Y-47818456D01*
X147734836Y-47836642D01*
X147730169Y-47864177D01*
X147727642Y-47905981D01*
X147726602Y-47966973D01*
X147726400Y-48052073D01*
X147726303Y-48095234D01*
X147725674Y-48166224D01*
X147724556Y-48223076D01*
X147723063Y-48260828D01*
X147721309Y-48274514D01*
X147720785Y-48274468D01*
X147702973Y-48269420D01*
X147670509Y-48258580D01*
X147624800Y-48242646D01*
X147624823Y-48037237D01*
X147624857Y-48018951D01*
X147626778Y-47923626D01*
X147632678Y-47851543D01*
X147644001Y-47797813D01*
X147662187Y-47757549D01*
X147688679Y-47725861D01*
X147724918Y-47697861D01*
X147760263Y-47680333D01*
X147816773Y-47666785D01*
X147872356Y-47666015D01*
X147915086Y-47679195D01*
X147918298Y-47681015D01*
X147928205Y-47680820D01*
X147934975Y-47665572D01*
X147939861Y-47630613D01*
X147944114Y-47571289D01*
X147951371Y-47449547D01*
X147998543Y-47469444D01*
G36*
X147998543Y-47469444D02*
G01*
X148045714Y-47489342D01*
X148045714Y-47886509D01*
X148045519Y-47989498D01*
X148044998Y-48082141D01*
X148044199Y-48160700D01*
X148043172Y-48221439D01*
X148041963Y-48260623D01*
X148040623Y-48274514D01*
X148040099Y-48274468D01*
X148022287Y-48269420D01*
X147989823Y-48258580D01*
X147944114Y-48242646D01*
X147944114Y-48038173D01*
X147943824Y-47957832D01*
X147942474Y-47899562D01*
X147939369Y-47859909D01*
X147933812Y-47833618D01*
X147925107Y-47815436D01*
X147912556Y-47800107D01*
X147903999Y-47791955D01*
X147857728Y-47769375D01*
X147806728Y-47771375D01*
X147759993Y-47798073D01*
X147753189Y-47804698D01*
X147742293Y-47818456D01*
X147734836Y-47836642D01*
X147730169Y-47864177D01*
X147727642Y-47905981D01*
X147726602Y-47966973D01*
X147726400Y-48052073D01*
X147726303Y-48095234D01*
X147725674Y-48166224D01*
X147724556Y-48223076D01*
X147723063Y-48260828D01*
X147721309Y-48274514D01*
X147720785Y-48274468D01*
X147702973Y-48269420D01*
X147670509Y-48258580D01*
X147624800Y-48242646D01*
X147624823Y-48037237D01*
X147624857Y-48018951D01*
X147626778Y-47923626D01*
X147632678Y-47851543D01*
X147644001Y-47797813D01*
X147662187Y-47757549D01*
X147688679Y-47725861D01*
X147724918Y-47697861D01*
X147760263Y-47680333D01*
X147816773Y-47666785D01*
X147872356Y-47666015D01*
X147915086Y-47679195D01*
X147918298Y-47681015D01*
X147928205Y-47680820D01*
X147934975Y-47665572D01*
X147939861Y-47630613D01*
X147944114Y-47571289D01*
X147951371Y-47449547D01*
X147998543Y-47469444D01*
G37*
X145973941Y-47669282D02*
X146005774Y-47681758D01*
X146042743Y-47698602D01*
X146042743Y-48185196D01*
X145996812Y-48231127D01*
X145986320Y-48241427D01*
X145957255Y-48264320D01*
X145927943Y-48271735D01*
X145884326Y-48268321D01*
X145866568Y-48266114D01*
X145820767Y-48261445D01*
X145788743Y-48259585D01*
X145779244Y-48259869D01*
X145740274Y-48262948D01*
X145693160Y-48268321D01*
X145678085Y-48270168D01*
X145640110Y-48270893D01*
X145612325Y-48259429D01*
X145580674Y-48231127D01*
X145534743Y-48185196D01*
X145534743Y-47925055D01*
X145535101Y-47848180D01*
X145536216Y-47774886D01*
X145537952Y-47716850D01*
X145540167Y-47678663D01*
X145542721Y-47664914D01*
X145543256Y-47664951D01*
X145561808Y-47671793D01*
X145593153Y-47686868D01*
X145635608Y-47708822D01*
X145639604Y-47937240D01*
X145643600Y-48165657D01*
X145730686Y-48165657D01*
X145734657Y-47915286D01*
X145735916Y-47847227D01*
X145737718Y-47774482D01*
X145739671Y-47716730D01*
X145741612Y-47678648D01*
X145743377Y-47664914D01*
X145743885Y-47664962D01*
X145761482Y-47670015D01*
X145793834Y-47680849D01*
X145839543Y-47696783D01*
X145839765Y-47916706D01*
X145839988Y-47954909D01*
X145841531Y-48029146D01*
X145844292Y-48091145D01*
X145847977Y-48135308D01*
X145852292Y-48156041D01*
X145867732Y-48167131D01*
X145899241Y-48170556D01*
X145933886Y-48165657D01*
X145937857Y-47915286D01*
X145939278Y-47851663D01*
X145942225Y-47776356D01*
X145946079Y-47717286D01*
X145950542Y-47678718D01*
X145955317Y-47664914D01*
X145973941Y-47669282D01*
G36*
X145973941Y-47669282D02*
G01*
X146005774Y-47681758D01*
X146042743Y-47698602D01*
X146042743Y-48185196D01*
X145996812Y-48231127D01*
X145986320Y-48241427D01*
X145957255Y-48264320D01*
X145927943Y-48271735D01*
X145884326Y-48268321D01*
X145866568Y-48266114D01*
X145820767Y-48261445D01*
X145788743Y-48259585D01*
X145779244Y-48259869D01*
X145740274Y-48262948D01*
X145693160Y-48268321D01*
X145678085Y-48270168D01*
X145640110Y-48270893D01*
X145612325Y-48259429D01*
X145580674Y-48231127D01*
X145534743Y-48185196D01*
X145534743Y-47925055D01*
X145535101Y-47848180D01*
X145536216Y-47774886D01*
X145537952Y-47716850D01*
X145540167Y-47678663D01*
X145542721Y-47664914D01*
X145543256Y-47664951D01*
X145561808Y-47671793D01*
X145593153Y-47686868D01*
X145635608Y-47708822D01*
X145639604Y-47937240D01*
X145643600Y-48165657D01*
X145730686Y-48165657D01*
X145734657Y-47915286D01*
X145735916Y-47847227D01*
X145737718Y-47774482D01*
X145739671Y-47716730D01*
X145741612Y-47678648D01*
X145743377Y-47664914D01*
X145743885Y-47664962D01*
X145761482Y-47670015D01*
X145793834Y-47680849D01*
X145839543Y-47696783D01*
X145839765Y-47916706D01*
X145839988Y-47954909D01*
X145841531Y-48029146D01*
X145844292Y-48091145D01*
X145847977Y-48135308D01*
X145852292Y-48156041D01*
X145867732Y-48167131D01*
X145899241Y-48170556D01*
X145933886Y-48165657D01*
X145937857Y-47915286D01*
X145939278Y-47851663D01*
X145942225Y-47776356D01*
X145946079Y-47717286D01*
X145950542Y-47678718D01*
X145955317Y-47664914D01*
X145973941Y-47669282D01*
G37*
X150585714Y-47955200D02*
X150585701Y-47970935D01*
X150584914Y-48041119D01*
X150582210Y-48090022D01*
X150576606Y-48124178D01*
X150567119Y-48150124D01*
X150552768Y-48174397D01*
X150549237Y-48179433D01*
X150511878Y-48219143D01*
X150469311Y-48249092D01*
X150447452Y-48258810D01*
X150368908Y-48275020D01*
X150291231Y-48264535D01*
X150219645Y-48228707D01*
X150159374Y-48168887D01*
X150154286Y-48160873D01*
X150137730Y-48114342D01*
X150126573Y-48049552D01*
X150121160Y-47974727D01*
X150121768Y-47905513D01*
X150268248Y-47905513D01*
X150269402Y-48001399D01*
X150269866Y-48007569D01*
X150276629Y-48060478D01*
X150288671Y-48094029D01*
X150309005Y-48117016D01*
X150343097Y-48138548D01*
X150376814Y-48139680D01*
X150411543Y-48114857D01*
X150417584Y-48108325D01*
X150429417Y-48088779D01*
X150436404Y-48060386D01*
X150439727Y-48016430D01*
X150440571Y-47950192D01*
X150439125Y-47888150D01*
X150431907Y-47829042D01*
X150417006Y-47791686D01*
X150392636Y-47772152D01*
X150357008Y-47766514D01*
X150343440Y-47767635D01*
X150305430Y-47788194D01*
X150280312Y-47834299D01*
X150268248Y-47905513D01*
X150121768Y-47905513D01*
X150121833Y-47898096D01*
X150128937Y-47827882D01*
X150142815Y-47772312D01*
X150160649Y-47735301D01*
X150210855Y-47677733D01*
X150278885Y-47641962D01*
X150362158Y-47629665D01*
X150384398Y-47630331D01*
X150449891Y-47643947D01*
X150503687Y-47678249D01*
X150553057Y-47737338D01*
X150555995Y-47741722D01*
X150569287Y-47765299D01*
X150577932Y-47791949D01*
X150582904Y-47828159D01*
X150585174Y-47880413D01*
X150585678Y-47950192D01*
X150585714Y-47955200D01*
G36*
X150585714Y-47955200D02*
G01*
X150585701Y-47970935D01*
X150584914Y-48041119D01*
X150582210Y-48090022D01*
X150576606Y-48124178D01*
X150567119Y-48150124D01*
X150552768Y-48174397D01*
X150549237Y-48179433D01*
X150511878Y-48219143D01*
X150469311Y-48249092D01*
X150447452Y-48258810D01*
X150368908Y-48275020D01*
X150291231Y-48264535D01*
X150219645Y-48228707D01*
X150159374Y-48168887D01*
X150154286Y-48160873D01*
X150137730Y-48114342D01*
X150126573Y-48049552D01*
X150121160Y-47974727D01*
X150121768Y-47905513D01*
X150268248Y-47905513D01*
X150269402Y-48001399D01*
X150269866Y-48007569D01*
X150276629Y-48060478D01*
X150288671Y-48094029D01*
X150309005Y-48117016D01*
X150343097Y-48138548D01*
X150376814Y-48139680D01*
X150411543Y-48114857D01*
X150417584Y-48108325D01*
X150429417Y-48088779D01*
X150436404Y-48060386D01*
X150439727Y-48016430D01*
X150440571Y-47950192D01*
X150439125Y-47888150D01*
X150431907Y-47829042D01*
X150417006Y-47791686D01*
X150392636Y-47772152D01*
X150357008Y-47766514D01*
X150343440Y-47767635D01*
X150305430Y-47788194D01*
X150280312Y-47834299D01*
X150268248Y-47905513D01*
X150121768Y-47905513D01*
X150121833Y-47898096D01*
X150128937Y-47827882D01*
X150142815Y-47772312D01*
X150160649Y-47735301D01*
X150210855Y-47677733D01*
X150278885Y-47641962D01*
X150362158Y-47629665D01*
X150384398Y-47630331D01*
X150449891Y-47643947D01*
X150503687Y-47678249D01*
X150553057Y-47737338D01*
X150555995Y-47741722D01*
X150569287Y-47765299D01*
X150577932Y-47791949D01*
X150582904Y-47828159D01*
X150585174Y-47880413D01*
X150585678Y-47950192D01*
X150585714Y-47955200D01*
G37*
X144460590Y-47972622D02*
X144460307Y-48011305D01*
X144456762Y-48087521D01*
X144447483Y-48143294D01*
X144430375Y-48184613D01*
X144403344Y-48217467D01*
X144364292Y-48247846D01*
X144339445Y-48261660D01*
X144299615Y-48270965D01*
X144243665Y-48270230D01*
X144212385Y-48267283D01*
X144174653Y-48258283D01*
X144144494Y-48238720D01*
X144109408Y-48202267D01*
X144104720Y-48196943D01*
X144073177Y-48155969D01*
X144058128Y-48120283D01*
X144054286Y-48077966D01*
X144054286Y-48015779D01*
X144097742Y-48032182D01*
X144129424Y-48051356D01*
X144156962Y-48096347D01*
X144162711Y-48110752D01*
X144194855Y-48151546D01*
X144238611Y-48172081D01*
X144286254Y-48170235D01*
X144330057Y-48143886D01*
X144345111Y-48127455D01*
X144358763Y-48102667D01*
X144354493Y-48080144D01*
X144329916Y-48056964D01*
X144282651Y-48030202D01*
X144210314Y-47996934D01*
X144061543Y-47931816D01*
X144057595Y-47867308D01*
X144059079Y-47826220D01*
X144156010Y-47826220D01*
X144163368Y-47851657D01*
X144196848Y-47878814D01*
X144257614Y-47909714D01*
X144267669Y-47914190D01*
X144315751Y-47935017D01*
X144351726Y-47949665D01*
X144368444Y-47955200D01*
X144370977Y-47951126D01*
X144371993Y-47926247D01*
X144368369Y-47886257D01*
X144359242Y-47847152D01*
X144330773Y-47797884D01*
X144289678Y-47770122D01*
X144240590Y-47766364D01*
X144188144Y-47789109D01*
X144173609Y-47800481D01*
X144156010Y-47826220D01*
X144059079Y-47826220D01*
X144059338Y-47819064D01*
X144081281Y-47758096D01*
X144108979Y-47724497D01*
X144166405Y-47686966D01*
X144234527Y-47668006D01*
X144304947Y-47669507D01*
X144369267Y-47693355D01*
X144383426Y-47702513D01*
X144415904Y-47730849D01*
X144438116Y-47766695D01*
X144451804Y-47815384D01*
X144458715Y-47882249D01*
X144459628Y-47926247D01*
X144460590Y-47972622D01*
G36*
X144460590Y-47972622D02*
G01*
X144460307Y-48011305D01*
X144456762Y-48087521D01*
X144447483Y-48143294D01*
X144430375Y-48184613D01*
X144403344Y-48217467D01*
X144364292Y-48247846D01*
X144339445Y-48261660D01*
X144299615Y-48270965D01*
X144243665Y-48270230D01*
X144212385Y-48267283D01*
X144174653Y-48258283D01*
X144144494Y-48238720D01*
X144109408Y-48202267D01*
X144104720Y-48196943D01*
X144073177Y-48155969D01*
X144058128Y-48120283D01*
X144054286Y-48077966D01*
X144054286Y-48015779D01*
X144097742Y-48032182D01*
X144129424Y-48051356D01*
X144156962Y-48096347D01*
X144162711Y-48110752D01*
X144194855Y-48151546D01*
X144238611Y-48172081D01*
X144286254Y-48170235D01*
X144330057Y-48143886D01*
X144345111Y-48127455D01*
X144358763Y-48102667D01*
X144354493Y-48080144D01*
X144329916Y-48056964D01*
X144282651Y-48030202D01*
X144210314Y-47996934D01*
X144061543Y-47931816D01*
X144057595Y-47867308D01*
X144059079Y-47826220D01*
X144156010Y-47826220D01*
X144163368Y-47851657D01*
X144196848Y-47878814D01*
X144257614Y-47909714D01*
X144267669Y-47914190D01*
X144315751Y-47935017D01*
X144351726Y-47949665D01*
X144368444Y-47955200D01*
X144370977Y-47951126D01*
X144371993Y-47926247D01*
X144368369Y-47886257D01*
X144359242Y-47847152D01*
X144330773Y-47797884D01*
X144289678Y-47770122D01*
X144240590Y-47766364D01*
X144188144Y-47789109D01*
X144173609Y-47800481D01*
X144156010Y-47826220D01*
X144059079Y-47826220D01*
X144059338Y-47819064D01*
X144081281Y-47758096D01*
X144108979Y-47724497D01*
X144166405Y-47686966D01*
X144234527Y-47668006D01*
X144304947Y-47669507D01*
X144369267Y-47693355D01*
X144383426Y-47702513D01*
X144415904Y-47730849D01*
X144438116Y-47766695D01*
X144451804Y-47815384D01*
X144458715Y-47882249D01*
X144459628Y-47926247D01*
X144460590Y-47972622D01*
G37*
X146550698Y-47969714D02*
X146549537Y-48026313D01*
X146541345Y-48103462D01*
X146523519Y-48161276D01*
X146493975Y-48205422D01*
X146450625Y-48241568D01*
X146409332Y-48262463D01*
X146339987Y-48274090D01*
X146270736Y-48261377D01*
X146208145Y-48225945D01*
X146158779Y-48169418D01*
X146152818Y-48158995D01*
X146144945Y-48140733D01*
X146139106Y-48117429D01*
X146134999Y-48085085D01*
X146132325Y-48039704D01*
X146130781Y-47977287D01*
X146130734Y-47971748D01*
X146231429Y-47971748D01*
X146231772Y-48024577D01*
X146233942Y-48072362D01*
X146239307Y-48103209D01*
X146249217Y-48123935D01*
X146265021Y-48141356D01*
X146268724Y-48144705D01*
X146316299Y-48169419D01*
X146366635Y-48166890D01*
X146413517Y-48137288D01*
X146427477Y-48121953D01*
X146439160Y-48101622D01*
X146445686Y-48073514D01*
X146448524Y-48030550D01*
X146449143Y-47965647D01*
X146448837Y-47916122D01*
X146446722Y-47867782D01*
X146441390Y-47836587D01*
X146431460Y-47815647D01*
X146415550Y-47798073D01*
X146406204Y-47790159D01*
X146357776Y-47768843D01*
X146307040Y-47772198D01*
X146262987Y-47800107D01*
X146253504Y-47811173D01*
X146241939Y-47832009D01*
X146235252Y-47861106D01*
X146232173Y-47905381D01*
X146231429Y-47971748D01*
X146130734Y-47971748D01*
X146130067Y-47893837D01*
X146129883Y-47785358D01*
X146129829Y-47448601D01*
X146177000Y-47468362D01*
X146189472Y-47473770D01*
X146209324Y-47485985D01*
X146220687Y-47504482D01*
X146226933Y-47536829D01*
X146231429Y-47590593D01*
X146235535Y-47638866D01*
X146240963Y-47670557D01*
X146248739Y-47682383D01*
X146260457Y-47679212D01*
X146290318Y-47668067D01*
X146343684Y-47665304D01*
X146401093Y-47675625D01*
X146450625Y-47697861D01*
X146477876Y-47718443D01*
X146512865Y-47758600D01*
X146535274Y-47810086D01*
X146547190Y-47878568D01*
X146550542Y-47965647D01*
X146550698Y-47969714D01*
G36*
X146550698Y-47969714D02*
G01*
X146549537Y-48026313D01*
X146541345Y-48103462D01*
X146523519Y-48161276D01*
X146493975Y-48205422D01*
X146450625Y-48241568D01*
X146409332Y-48262463D01*
X146339987Y-48274090D01*
X146270736Y-48261377D01*
X146208145Y-48225945D01*
X146158779Y-48169418D01*
X146152818Y-48158995D01*
X146144945Y-48140733D01*
X146139106Y-48117429D01*
X146134999Y-48085085D01*
X146132325Y-48039704D01*
X146130781Y-47977287D01*
X146130734Y-47971748D01*
X146231429Y-47971748D01*
X146231772Y-48024577D01*
X146233942Y-48072362D01*
X146239307Y-48103209D01*
X146249217Y-48123935D01*
X146265021Y-48141356D01*
X146268724Y-48144705D01*
X146316299Y-48169419D01*
X146366635Y-48166890D01*
X146413517Y-48137288D01*
X146427477Y-48121953D01*
X146439160Y-48101622D01*
X146445686Y-48073514D01*
X146448524Y-48030550D01*
X146449143Y-47965647D01*
X146448837Y-47916122D01*
X146446722Y-47867782D01*
X146441390Y-47836587D01*
X146431460Y-47815647D01*
X146415550Y-47798073D01*
X146406204Y-47790159D01*
X146357776Y-47768843D01*
X146307040Y-47772198D01*
X146262987Y-47800107D01*
X146253504Y-47811173D01*
X146241939Y-47832009D01*
X146235252Y-47861106D01*
X146232173Y-47905381D01*
X146231429Y-47971748D01*
X146130734Y-47971748D01*
X146130067Y-47893837D01*
X146129883Y-47785358D01*
X146129829Y-47448601D01*
X146177000Y-47468362D01*
X146189472Y-47473770D01*
X146209324Y-47485985D01*
X146220687Y-47504482D01*
X146226933Y-47536829D01*
X146231429Y-47590593D01*
X146235535Y-47638866D01*
X146240963Y-47670557D01*
X146248739Y-47682383D01*
X146260457Y-47679212D01*
X146290318Y-47668067D01*
X146343684Y-47665304D01*
X146401093Y-47675625D01*
X146450625Y-47697861D01*
X146477876Y-47718443D01*
X146512865Y-47758600D01*
X146535274Y-47810086D01*
X146547190Y-47878568D01*
X146550542Y-47965647D01*
X146550698Y-47969714D01*
G37*
X149482299Y-47914055D02*
X149477684Y-48024078D01*
X149475078Y-48047387D01*
X149455660Y-48130352D01*
X149420573Y-48193448D01*
X149367212Y-48241808D01*
X149364196Y-48243804D01*
X149296362Y-48272185D01*
X149225535Y-48274711D01*
X149157289Y-48253097D01*
X149097196Y-48209062D01*
X149050829Y-48144322D01*
X149050050Y-48142761D01*
X149034643Y-48102558D01*
X149023357Y-48056866D01*
X149017370Y-48013972D01*
X149017861Y-47982160D01*
X149026007Y-47969714D01*
X149033244Y-47970471D01*
X149067851Y-47984235D01*
X149107078Y-48009546D01*
X149140448Y-48038845D01*
X149157483Y-48064572D01*
X149175192Y-48099471D01*
X149211485Y-48131212D01*
X149253630Y-48143886D01*
X149269077Y-48140221D01*
X149299569Y-48121774D01*
X149326128Y-48096166D01*
X149337486Y-48072934D01*
X149337482Y-48072848D01*
X149324596Y-48062179D01*
X149290241Y-48042933D01*
X149239593Y-48017813D01*
X149177829Y-47989524D01*
X149177489Y-47989374D01*
X149110388Y-47959498D01*
X149065411Y-47937973D01*
X149038145Y-47921437D01*
X149024178Y-47906531D01*
X149019097Y-47889893D01*
X149018490Y-47868162D01*
X149022712Y-47827013D01*
X149166000Y-47827013D01*
X149180791Y-47839949D01*
X149217644Y-47859333D01*
X149218725Y-47859881D01*
X149262205Y-47880587D01*
X149301102Y-47897105D01*
X149325778Y-47904093D01*
X149335676Y-47894753D01*
X149337486Y-47862748D01*
X149329966Y-47822915D01*
X149303897Y-47786717D01*
X149266154Y-47767950D01*
X149224077Y-47769845D01*
X149185005Y-47795632D01*
X149169647Y-47813451D01*
X149166000Y-47827013D01*
X149022712Y-47827013D01*
X149023833Y-47816086D01*
X149050251Y-47745335D01*
X149094473Y-47689735D01*
X149151697Y-47651239D01*
X149217120Y-47631797D01*
X149285937Y-47633359D01*
X149353347Y-47657878D01*
X149414544Y-47707302D01*
X149448450Y-47756212D01*
X149472806Y-47826027D01*
X149476767Y-47862748D01*
X149482299Y-47914055D01*
G36*
X149482299Y-47914055D02*
G01*
X149477684Y-48024078D01*
X149475078Y-48047387D01*
X149455660Y-48130352D01*
X149420573Y-48193448D01*
X149367212Y-48241808D01*
X149364196Y-48243804D01*
X149296362Y-48272185D01*
X149225535Y-48274711D01*
X149157289Y-48253097D01*
X149097196Y-48209062D01*
X149050829Y-48144322D01*
X149050050Y-48142761D01*
X149034643Y-48102558D01*
X149023357Y-48056866D01*
X149017370Y-48013972D01*
X149017861Y-47982160D01*
X149026007Y-47969714D01*
X149033244Y-47970471D01*
X149067851Y-47984235D01*
X149107078Y-48009546D01*
X149140448Y-48038845D01*
X149157483Y-48064572D01*
X149175192Y-48099471D01*
X149211485Y-48131212D01*
X149253630Y-48143886D01*
X149269077Y-48140221D01*
X149299569Y-48121774D01*
X149326128Y-48096166D01*
X149337486Y-48072934D01*
X149337482Y-48072848D01*
X149324596Y-48062179D01*
X149290241Y-48042933D01*
X149239593Y-48017813D01*
X149177829Y-47989524D01*
X149177489Y-47989374D01*
X149110388Y-47959498D01*
X149065411Y-47937973D01*
X149038145Y-47921437D01*
X149024178Y-47906531D01*
X149019097Y-47889893D01*
X149018490Y-47868162D01*
X149022712Y-47827013D01*
X149166000Y-47827013D01*
X149180791Y-47839949D01*
X149217644Y-47859333D01*
X149218725Y-47859881D01*
X149262205Y-47880587D01*
X149301102Y-47897105D01*
X149325778Y-47904093D01*
X149335676Y-47894753D01*
X149337486Y-47862748D01*
X149329966Y-47822915D01*
X149303897Y-47786717D01*
X149266154Y-47767950D01*
X149224077Y-47769845D01*
X149185005Y-47795632D01*
X149169647Y-47813451D01*
X149166000Y-47827013D01*
X149022712Y-47827013D01*
X149023833Y-47816086D01*
X149050251Y-47745335D01*
X149094473Y-47689735D01*
X149151697Y-47651239D01*
X149217120Y-47631797D01*
X149285937Y-47633359D01*
X149353347Y-47657878D01*
X149414544Y-47707302D01*
X149448450Y-47756212D01*
X149472806Y-47826027D01*
X149476767Y-47862748D01*
X149482299Y-47914055D01*
G37*
X147409483Y-47680569D02*
X147459376Y-47709661D01*
X147481325Y-47732327D01*
X147523504Y-47800082D01*
X147537714Y-47873950D01*
X147537714Y-47924770D01*
X147490999Y-47905128D01*
X147458692Y-47885308D01*
X147433231Y-47844160D01*
X147430616Y-47835675D01*
X147402478Y-47792451D01*
X147360067Y-47769103D01*
X147311370Y-47768100D01*
X147264373Y-47791914D01*
X147257357Y-47798056D01*
X147233893Y-47824745D01*
X147230019Y-47848014D01*
X147247768Y-47870862D01*
X147289179Y-47896287D01*
X147356286Y-47927288D01*
X147360824Y-47929252D01*
X147435322Y-47963990D01*
X147486203Y-47994763D01*
X147517525Y-48025488D01*
X147533343Y-48060082D01*
X147537714Y-48102462D01*
X147531986Y-48149446D01*
X147503062Y-48209585D01*
X147452178Y-48252788D01*
X147415374Y-48265759D01*
X147363434Y-48272856D01*
X147312999Y-48271340D01*
X147276983Y-48260632D01*
X147273158Y-48257966D01*
X147262998Y-48239337D01*
X147270048Y-48206505D01*
X147282297Y-48180735D01*
X147301939Y-48170006D01*
X147339191Y-48170539D01*
X147390908Y-48167462D01*
X147424701Y-48146212D01*
X147436114Y-48106877D01*
X147436104Y-48105747D01*
X147429187Y-48082913D01*
X147405659Y-48061963D01*
X147359914Y-48037815D01*
X147297704Y-48008741D01*
X147256499Y-47992925D01*
X147232712Y-47993944D01*
X147221597Y-48014837D01*
X147218408Y-48058641D01*
X147218400Y-48128393D01*
X147218044Y-48171452D01*
X147216413Y-48224626D01*
X147213761Y-48261022D01*
X147210422Y-48274514D01*
X147209530Y-48274423D01*
X147190237Y-48267110D01*
X147158284Y-48251678D01*
X147114124Y-48228842D01*
X147119371Y-48023078D01*
X147119736Y-48009432D01*
X147123904Y-47913651D01*
X147131268Y-47841462D01*
X147143330Y-47788058D01*
X147161593Y-47748633D01*
X147187560Y-47718380D01*
X147222733Y-47692493D01*
X147223384Y-47692087D01*
X147280256Y-47670968D01*
X147346033Y-47667400D01*
X147409483Y-47680569D01*
G36*
X147409483Y-47680569D02*
G01*
X147459376Y-47709661D01*
X147481325Y-47732327D01*
X147523504Y-47800082D01*
X147537714Y-47873950D01*
X147537714Y-47924770D01*
X147490999Y-47905128D01*
X147458692Y-47885308D01*
X147433231Y-47844160D01*
X147430616Y-47835675D01*
X147402478Y-47792451D01*
X147360067Y-47769103D01*
X147311370Y-47768100D01*
X147264373Y-47791914D01*
X147257357Y-47798056D01*
X147233893Y-47824745D01*
X147230019Y-47848014D01*
X147247768Y-47870862D01*
X147289179Y-47896287D01*
X147356286Y-47927288D01*
X147360824Y-47929252D01*
X147435322Y-47963990D01*
X147486203Y-47994763D01*
X147517525Y-48025488D01*
X147533343Y-48060082D01*
X147537714Y-48102462D01*
X147531986Y-48149446D01*
X147503062Y-48209585D01*
X147452178Y-48252788D01*
X147415374Y-48265759D01*
X147363434Y-48272856D01*
X147312999Y-48271340D01*
X147276983Y-48260632D01*
X147273158Y-48257966D01*
X147262998Y-48239337D01*
X147270048Y-48206505D01*
X147282297Y-48180735D01*
X147301939Y-48170006D01*
X147339191Y-48170539D01*
X147390908Y-48167462D01*
X147424701Y-48146212D01*
X147436114Y-48106877D01*
X147436104Y-48105747D01*
X147429187Y-48082913D01*
X147405659Y-48061963D01*
X147359914Y-48037815D01*
X147297704Y-48008741D01*
X147256499Y-47992925D01*
X147232712Y-47993944D01*
X147221597Y-48014837D01*
X147218408Y-48058641D01*
X147218400Y-48128393D01*
X147218044Y-48171452D01*
X147216413Y-48224626D01*
X147213761Y-48261022D01*
X147210422Y-48274514D01*
X147209530Y-48274423D01*
X147190237Y-48267110D01*
X147158284Y-48251678D01*
X147114124Y-48228842D01*
X147119371Y-48023078D01*
X147119736Y-48009432D01*
X147123904Y-47913651D01*
X147131268Y-47841462D01*
X147143330Y-47788058D01*
X147161593Y-47748633D01*
X147187560Y-47718380D01*
X147222733Y-47692493D01*
X147223384Y-47692087D01*
X147280256Y-47670968D01*
X147346033Y-47667400D01*
X147409483Y-47680569D01*
G37*
X150029815Y-48021524D02*
X150031252Y-48133000D01*
X150031651Y-48165339D01*
X150032929Y-48273455D01*
X150033185Y-48356186D01*
X150031634Y-48416426D01*
X150027490Y-48457073D01*
X150019964Y-48481023D01*
X150008271Y-48491171D01*
X149991624Y-48490414D01*
X149969236Y-48481648D01*
X149940321Y-48467769D01*
X149934142Y-48464808D01*
X149908413Y-48450311D01*
X149894976Y-48433065D01*
X149889834Y-48404308D01*
X149888990Y-48355283D01*
X149888952Y-48267257D01*
X149798276Y-48267257D01*
X149742498Y-48264815D01*
X149698640Y-48254908D01*
X149662218Y-48234886D01*
X149659503Y-48232929D01*
X149622546Y-48199869D01*
X149596826Y-48159931D01*
X149580606Y-48107657D01*
X149572148Y-48037588D01*
X149570083Y-47958430D01*
X149714857Y-47958430D01*
X149714882Y-47971697D01*
X149716261Y-48031584D01*
X149720687Y-48070732D01*
X149729461Y-48096153D01*
X149743886Y-48114857D01*
X149744784Y-48115750D01*
X149780237Y-48139952D01*
X149814596Y-48137567D01*
X149853403Y-48108260D01*
X149862895Y-48098244D01*
X149876876Y-48077708D01*
X149884760Y-48050997D01*
X149888245Y-48010499D01*
X149889029Y-47948603D01*
X149888350Y-47911130D01*
X149880983Y-47842980D01*
X149864168Y-47798330D01*
X149836234Y-47773926D01*
X149795509Y-47766514D01*
X149778350Y-47768094D01*
X149748660Y-47783766D01*
X149729031Y-47818691D01*
X149718188Y-47875901D01*
X149714857Y-47958430D01*
X149570083Y-47958430D01*
X149569714Y-47944267D01*
X149570253Y-47876169D01*
X149572707Y-47824587D01*
X149578158Y-47788816D01*
X149587686Y-47762015D01*
X149602371Y-47737338D01*
X149615852Y-47718480D01*
X149664799Y-47667568D01*
X149720256Y-47639918D01*
X149789928Y-47631165D01*
X149869664Y-47639890D01*
X149938595Y-47671185D01*
X149993113Y-47726381D01*
X149997223Y-47732224D01*
X150006808Y-47747753D01*
X150014151Y-47765498D01*
X150019612Y-47789290D01*
X150023550Y-47822958D01*
X150026323Y-47870333D01*
X150028292Y-47935245D01*
X150028528Y-47948603D01*
X150029815Y-48021524D01*
G36*
X150029815Y-48021524D02*
G01*
X150031252Y-48133000D01*
X150031651Y-48165339D01*
X150032929Y-48273455D01*
X150033185Y-48356186D01*
X150031634Y-48416426D01*
X150027490Y-48457073D01*
X150019964Y-48481023D01*
X150008271Y-48491171D01*
X149991624Y-48490414D01*
X149969236Y-48481648D01*
X149940321Y-48467769D01*
X149934142Y-48464808D01*
X149908413Y-48450311D01*
X149894976Y-48433065D01*
X149889834Y-48404308D01*
X149888990Y-48355283D01*
X149888952Y-48267257D01*
X149798276Y-48267257D01*
X149742498Y-48264815D01*
X149698640Y-48254908D01*
X149662218Y-48234886D01*
X149659503Y-48232929D01*
X149622546Y-48199869D01*
X149596826Y-48159931D01*
X149580606Y-48107657D01*
X149572148Y-48037588D01*
X149570083Y-47958430D01*
X149714857Y-47958430D01*
X149714882Y-47971697D01*
X149716261Y-48031584D01*
X149720687Y-48070732D01*
X149729461Y-48096153D01*
X149743886Y-48114857D01*
X149744784Y-48115750D01*
X149780237Y-48139952D01*
X149814596Y-48137567D01*
X149853403Y-48108260D01*
X149862895Y-48098244D01*
X149876876Y-48077708D01*
X149884760Y-48050997D01*
X149888245Y-48010499D01*
X149889029Y-47948603D01*
X149888350Y-47911130D01*
X149880983Y-47842980D01*
X149864168Y-47798330D01*
X149836234Y-47773926D01*
X149795509Y-47766514D01*
X149778350Y-47768094D01*
X149748660Y-47783766D01*
X149729031Y-47818691D01*
X149718188Y-47875901D01*
X149714857Y-47958430D01*
X149570083Y-47958430D01*
X149569714Y-47944267D01*
X149570253Y-47876169D01*
X149572707Y-47824587D01*
X149578158Y-47788816D01*
X149587686Y-47762015D01*
X149602371Y-47737338D01*
X149615852Y-47718480D01*
X149664799Y-47667568D01*
X149720256Y-47639918D01*
X149789928Y-47631165D01*
X149869664Y-47639890D01*
X149938595Y-47671185D01*
X149993113Y-47726381D01*
X149997223Y-47732224D01*
X150006808Y-47747753D01*
X150014151Y-47765498D01*
X150019612Y-47789290D01*
X150023550Y-47822958D01*
X150026323Y-47870333D01*
X150028292Y-47935245D01*
X150028528Y-47948603D01*
X150029815Y-48021524D01*
G37*
X145287495Y-47666220D02*
X145318599Y-47674121D01*
X145347559Y-47693817D01*
X145384831Y-47730484D01*
X145408801Y-47756378D01*
X145433770Y-47789997D01*
X145445031Y-47821506D01*
X145447657Y-47861485D01*
X145447657Y-47926917D01*
X145403035Y-47903842D01*
X145367673Y-47875724D01*
X145343451Y-47837848D01*
X145339291Y-47827551D01*
X145307594Y-47787637D01*
X145263554Y-47767624D01*
X145215531Y-47769572D01*
X145171886Y-47795543D01*
X145153420Y-47816635D01*
X145142663Y-47843619D01*
X145154178Y-47867634D01*
X145189981Y-47891791D01*
X145252090Y-47919199D01*
X145261515Y-47922985D01*
X145318058Y-47947759D01*
X145366580Y-47972189D01*
X145397451Y-47991486D01*
X145428371Y-48025953D01*
X145448927Y-48080957D01*
X145446744Y-48139983D01*
X145422424Y-48195845D01*
X145376568Y-48241355D01*
X145339438Y-48260727D01*
X145267711Y-48274292D01*
X145227852Y-48272462D01*
X145190953Y-48262568D01*
X145176797Y-48241806D01*
X145182091Y-48207613D01*
X145183631Y-48203092D01*
X145195842Y-48179116D01*
X145216174Y-48170042D01*
X145254908Y-48170649D01*
X145282257Y-48171474D01*
X145314257Y-48164392D01*
X145336182Y-48143219D01*
X145348670Y-48117152D01*
X145350062Y-48089845D01*
X145349998Y-48089685D01*
X145333807Y-48074930D01*
X145299155Y-48053457D01*
X145254321Y-48029458D01*
X145207582Y-48007125D01*
X145167217Y-47990652D01*
X145141504Y-47984229D01*
X145137679Y-47990518D01*
X145132864Y-48020115D01*
X145129566Y-48068447D01*
X145128343Y-48129372D01*
X145128058Y-48171542D01*
X145126718Y-48224653D01*
X145124528Y-48261025D01*
X145121769Y-48274514D01*
X145107344Y-48269981D01*
X145078226Y-48257670D01*
X145041257Y-48240826D01*
X145041257Y-48024721D01*
X145041493Y-47969327D01*
X145043729Y-47885207D01*
X145049423Y-47822800D01*
X145059903Y-47777358D01*
X145076497Y-47744133D01*
X145100531Y-47718378D01*
X145133333Y-47695344D01*
X145175124Y-47676335D01*
X145252287Y-47664914D01*
X145287495Y-47666220D01*
G36*
X145287495Y-47666220D02*
G01*
X145318599Y-47674121D01*
X145347559Y-47693817D01*
X145384831Y-47730484D01*
X145408801Y-47756378D01*
X145433770Y-47789997D01*
X145445031Y-47821506D01*
X145447657Y-47861485D01*
X145447657Y-47926917D01*
X145403035Y-47903842D01*
X145367673Y-47875724D01*
X145343451Y-47837848D01*
X145339291Y-47827551D01*
X145307594Y-47787637D01*
X145263554Y-47767624D01*
X145215531Y-47769572D01*
X145171886Y-47795543D01*
X145153420Y-47816635D01*
X145142663Y-47843619D01*
X145154178Y-47867634D01*
X145189981Y-47891791D01*
X145252090Y-47919199D01*
X145261515Y-47922985D01*
X145318058Y-47947759D01*
X145366580Y-47972189D01*
X145397451Y-47991486D01*
X145428371Y-48025953D01*
X145448927Y-48080957D01*
X145446744Y-48139983D01*
X145422424Y-48195845D01*
X145376568Y-48241355D01*
X145339438Y-48260727D01*
X145267711Y-48274292D01*
X145227852Y-48272462D01*
X145190953Y-48262568D01*
X145176797Y-48241806D01*
X145182091Y-48207613D01*
X145183631Y-48203092D01*
X145195842Y-48179116D01*
X145216174Y-48170042D01*
X145254908Y-48170649D01*
X145282257Y-48171474D01*
X145314257Y-48164392D01*
X145336182Y-48143219D01*
X145348670Y-48117152D01*
X145350062Y-48089845D01*
X145349998Y-48089685D01*
X145333807Y-48074930D01*
X145299155Y-48053457D01*
X145254321Y-48029458D01*
X145207582Y-48007125D01*
X145167217Y-47990652D01*
X145141504Y-47984229D01*
X145137679Y-47990518D01*
X145132864Y-48020115D01*
X145129566Y-48068447D01*
X145128343Y-48129372D01*
X145128058Y-48171542D01*
X145126718Y-48224653D01*
X145124528Y-48261025D01*
X145121769Y-48274514D01*
X145107344Y-48269981D01*
X145078226Y-48257670D01*
X145041257Y-48240826D01*
X145041257Y-48024721D01*
X145041493Y-47969327D01*
X145043729Y-47885207D01*
X145049423Y-47822800D01*
X145059903Y-47777358D01*
X145076497Y-47744133D01*
X145100531Y-47718378D01*
X145133333Y-47695344D01*
X145175124Y-47676335D01*
X145252287Y-47664914D01*
X145287495Y-47666220D01*
G37*
X147433933Y-42962371D02*
X147509856Y-42962865D01*
X147564491Y-42964135D01*
X147601500Y-42966547D01*
X147624547Y-42970467D01*
X147637296Y-42976262D01*
X147643411Y-42984299D01*
X147646556Y-42994943D01*
X147646646Y-42995325D01*
X147651814Y-43020347D01*
X147661209Y-43068681D01*
X147673867Y-43135260D01*
X147688825Y-43215014D01*
X147705119Y-43302875D01*
X147706448Y-43310064D01*
X147722691Y-43395340D01*
X147737805Y-43470242D01*
X147750808Y-43530219D01*
X147760715Y-43570717D01*
X147766544Y-43587184D01*
X147766575Y-43587210D01*
X147784943Y-43596320D01*
X147822640Y-43611457D01*
X147871543Y-43629358D01*
X147874297Y-43630330D01*
X147936817Y-43653959D01*
X148009543Y-43683595D01*
X148077294Y-43713062D01*
X148188703Y-43763626D01*
X148435399Y-43595160D01*
X148452775Y-43583311D01*
X148527202Y-43532947D01*
X148593614Y-43488612D01*
X148648039Y-43452916D01*
X148686506Y-43428471D01*
X148705042Y-43417889D01*
X148717743Y-43420315D01*
X148746579Y-43439110D01*
X148791143Y-43476330D01*
X148852670Y-43533020D01*
X148932398Y-43610227D01*
X148939532Y-43617255D01*
X149002796Y-43680222D01*
X149058990Y-43737268D01*
X149104677Y-43784817D01*
X149136414Y-43819297D01*
X149150764Y-43837131D01*
X149150810Y-43837217D01*
X149152633Y-43850795D01*
X149145910Y-43872820D01*
X149128946Y-43906304D01*
X149100044Y-43954261D01*
X149057508Y-44019704D01*
X148999644Y-44105645D01*
X148989783Y-44120151D01*
X148939913Y-44193635D01*
X148895905Y-44258687D01*
X148860380Y-44311417D01*
X148835959Y-44347936D01*
X148825264Y-44364356D01*
X148824458Y-44367834D01*
X148829518Y-44393785D01*
X148844677Y-44436159D01*
X148867463Y-44487728D01*
X148898429Y-44555170D01*
X148933004Y-44635195D01*
X148962366Y-44707629D01*
X148969645Y-44726377D01*
X148988710Y-44774246D01*
X149002715Y-44807596D01*
X149009041Y-44820114D01*
X149016025Y-44821050D01*
X149047413Y-44826461D01*
X149098787Y-44835806D01*
X149164802Y-44848069D01*
X149240113Y-44862232D01*
X149319375Y-44877280D01*
X149397243Y-44892195D01*
X149468370Y-44905961D01*
X149527412Y-44917562D01*
X149569022Y-44925980D01*
X149587857Y-44930199D01*
X149590980Y-44931389D01*
X149598591Y-44937805D01*
X149604254Y-44951465D01*
X149608251Y-44975999D01*
X149610866Y-45015038D01*
X149612384Y-45072213D01*
X149613086Y-45151154D01*
X149613257Y-45255492D01*
X149613257Y-45572799D01*
X149537057Y-45587839D01*
X149527840Y-45589642D01*
X149478891Y-45598980D01*
X149411205Y-45611669D01*
X149332478Y-45626273D01*
X149250400Y-45641355D01*
X149218078Y-45647422D01*
X149145855Y-45662181D01*
X149085666Y-45676137D01*
X149043040Y-45687952D01*
X149023510Y-45696287D01*
X149014660Y-45709905D01*
X148998548Y-45745938D01*
X148982065Y-45792572D01*
X148976263Y-45810034D01*
X148954906Y-45867358D01*
X148927359Y-45935201D01*
X148898107Y-46002355D01*
X148882463Y-46037430D01*
X148860174Y-46089822D01*
X148844857Y-46129058D01*
X148839162Y-46148563D01*
X148839478Y-46150036D01*
X148850281Y-46170729D01*
X148874638Y-46210665D01*
X148910081Y-46265972D01*
X148954136Y-46332781D01*
X149004332Y-46407220D01*
X149169501Y-46649623D01*
X148952503Y-46866983D01*
X148931516Y-46887899D01*
X148867342Y-46950505D01*
X148809990Y-47004495D01*
X148762820Y-47046826D01*
X148729192Y-47074457D01*
X148712467Y-47084343D01*
X148694303Y-47076821D01*
X148656265Y-47055227D01*
X148602726Y-47022151D01*
X148537884Y-46980191D01*
X148465940Y-46931943D01*
X148395275Y-46884291D01*
X148331526Y-46842328D01*
X148279513Y-46809165D01*
X148243279Y-46787378D01*
X148226867Y-46779543D01*
X148225905Y-46779614D01*
X148204103Y-46787338D01*
X148165440Y-46805323D01*
X148117612Y-46830013D01*
X148117110Y-46830284D01*
X148053587Y-46862099D01*
X148010060Y-46877642D01*
X147983052Y-46877685D01*
X147969090Y-46863000D01*
X147963180Y-46848544D01*
X147947229Y-46809831D01*
X147922660Y-46750316D01*
X147890779Y-46673165D01*
X147852893Y-46581541D01*
X147810310Y-46478607D01*
X147764337Y-46367526D01*
X147722667Y-46266472D01*
X147680268Y-46162780D01*
X147642756Y-46070119D01*
X147611388Y-45991642D01*
X147587425Y-45930500D01*
X147572123Y-45889843D01*
X147566743Y-45872825D01*
X147577018Y-45857219D01*
X147605563Y-45831162D01*
X147645971Y-45800887D01*
X147742979Y-45721684D01*
X147829793Y-45620475D01*
X147893322Y-45509116D01*
X147933177Y-45390893D01*
X147948965Y-45269095D01*
X147940296Y-45147010D01*
X147906778Y-45027925D01*
X147848021Y-44915129D01*
X147763632Y-44811911D01*
X147719631Y-44771713D01*
X147614211Y-44700638D01*
X147501410Y-44654301D01*
X147384525Y-44631599D01*
X147266853Y-44631428D01*
X147151690Y-44652687D01*
X147042335Y-44694270D01*
X146942083Y-44755076D01*
X146854233Y-44834001D01*
X146782080Y-44929941D01*
X146728922Y-45041795D01*
X146698057Y-45168457D01*
X146692392Y-45229507D01*
X146700185Y-45361776D01*
X146735284Y-45487266D01*
X146796649Y-45603759D01*
X146883243Y-45709039D01*
X146994029Y-45800887D01*
X147032931Y-45829930D01*
X147062104Y-45856272D01*
X147073257Y-45872800D01*
X147068810Y-45887209D01*
X147054378Y-45925815D01*
X147031173Y-45985201D01*
X147000452Y-46062215D01*
X146963474Y-46153703D01*
X146921496Y-46256516D01*
X146875778Y-46367502D01*
X146834178Y-46468072D01*
X146791222Y-46571947D01*
X146752829Y-46664819D01*
X146720305Y-46743525D01*
X146694958Y-46804899D01*
X146678095Y-46845779D01*
X146671025Y-46863000D01*
X146670943Y-46863204D01*
X146656798Y-46877745D01*
X146629659Y-46877579D01*
X146586023Y-46861927D01*
X146522388Y-46830013D01*
X146517379Y-46827326D01*
X146470125Y-46803150D01*
X146432811Y-46786037D01*
X146413133Y-46779543D01*
X146397005Y-46787218D01*
X146360959Y-46808871D01*
X146309092Y-46841928D01*
X146245445Y-46883810D01*
X146174060Y-46931943D01*
X146103724Y-46979131D01*
X146038670Y-47021267D01*
X145984820Y-47054578D01*
X145946374Y-47076469D01*
X145927534Y-47084343D01*
X145924325Y-47083343D01*
X145901954Y-47067584D01*
X145863733Y-47035033D01*
X145813021Y-46988733D01*
X145753181Y-46931726D01*
X145687571Y-46867058D01*
X145470648Y-46649772D01*
X145639601Y-46401253D01*
X145808553Y-46152733D01*
X145757183Y-46041595D01*
X145757031Y-46041266D01*
X145726183Y-45970418D01*
X145694661Y-45891523D01*
X145669266Y-45821600D01*
X145665423Y-45810322D01*
X145646047Y-45757967D01*
X145628574Y-45717283D01*
X145616388Y-45696287D01*
X145611426Y-45693322D01*
X145581634Y-45683375D01*
X145531047Y-45670505D01*
X145465194Y-45656053D01*
X145389600Y-45641355D01*
X145366957Y-45637210D01*
X145285038Y-45622116D01*
X145208600Y-45607899D01*
X145145337Y-45595995D01*
X145102943Y-45587839D01*
X145026743Y-45572799D01*
X145026743Y-45255492D01*
X145026760Y-45216476D01*
X145027082Y-45121292D01*
X145028033Y-45050255D01*
X145029896Y-44999734D01*
X145032955Y-44966098D01*
X145037494Y-44945718D01*
X145043795Y-44934962D01*
X145052143Y-44930199D01*
X145060224Y-44928270D01*
X145093172Y-44921445D01*
X145145736Y-44911022D01*
X145212569Y-44898018D01*
X145288328Y-44883449D01*
X145367665Y-44868333D01*
X145445237Y-44853685D01*
X145515698Y-44840523D01*
X145573702Y-44829863D01*
X145613904Y-44822721D01*
X145630959Y-44820114D01*
X145632112Y-44818541D01*
X145641385Y-44798119D01*
X145657432Y-44759045D01*
X145677635Y-44707629D01*
X145705672Y-44638353D01*
X145740186Y-44558290D01*
X145772538Y-44487728D01*
X145779952Y-44471889D01*
X145800755Y-44422293D01*
X145813219Y-44384038D01*
X145814863Y-44364356D01*
X145814015Y-44362962D01*
X145800548Y-44342420D01*
X145773850Y-44302516D01*
X145736539Y-44247140D01*
X145691234Y-44180177D01*
X145640552Y-44105517D01*
X145583445Y-44020692D01*
X145540607Y-43954800D01*
X145511460Y-43906478D01*
X145494317Y-43872733D01*
X145487495Y-43850572D01*
X145489306Y-43837002D01*
X145489915Y-43835984D01*
X145506297Y-43816210D01*
X145539695Y-43780175D01*
X145586671Y-43731451D01*
X145643786Y-43673612D01*
X145707603Y-43610227D01*
X145773802Y-43545905D01*
X145838648Y-43485447D01*
X145886299Y-43444655D01*
X145917990Y-43422484D01*
X145934958Y-43417889D01*
X145937175Y-43418921D01*
X145960524Y-43432837D01*
X146002912Y-43460030D01*
X146060369Y-43497889D01*
X146128923Y-43543803D01*
X146204601Y-43595160D01*
X146451298Y-43763626D01*
X146562706Y-43713062D01*
X146565943Y-43711597D01*
X146634343Y-43681965D01*
X146706907Y-43652493D01*
X146768457Y-43629358D01*
X146768729Y-43629262D01*
X146817595Y-43611367D01*
X146855212Y-43596253D01*
X146873457Y-43587184D01*
X146873752Y-43586855D01*
X146879946Y-43568282D01*
X146890139Y-43526045D01*
X146903348Y-43464696D01*
X146918590Y-43388789D01*
X146934881Y-43302875D01*
X146935449Y-43299796D01*
X146951713Y-43212128D01*
X146966608Y-43132741D01*
X146979171Y-43066701D01*
X146988438Y-43019079D01*
X146993444Y-42994943D01*
X146993764Y-42993605D01*
X146997060Y-42983273D01*
X147003738Y-42975506D01*
X147017462Y-42969940D01*
X147041895Y-42966207D01*
X147080702Y-42963942D01*
X147137546Y-42962778D01*
X147216090Y-42962348D01*
X147320000Y-42962286D01*
X147333056Y-42962286D01*
X147433933Y-42962371D01*
G36*
X147433933Y-42962371D02*
G01*
X147509856Y-42962865D01*
X147564491Y-42964135D01*
X147601500Y-42966547D01*
X147624547Y-42970467D01*
X147637296Y-42976262D01*
X147643411Y-42984299D01*
X147646556Y-42994943D01*
X147646646Y-42995325D01*
X147651814Y-43020347D01*
X147661209Y-43068681D01*
X147673867Y-43135260D01*
X147688825Y-43215014D01*
X147705119Y-43302875D01*
X147706448Y-43310064D01*
X147722691Y-43395340D01*
X147737805Y-43470242D01*
X147750808Y-43530219D01*
X147760715Y-43570717D01*
X147766544Y-43587184D01*
X147766575Y-43587210D01*
X147784943Y-43596320D01*
X147822640Y-43611457D01*
X147871543Y-43629358D01*
X147874297Y-43630330D01*
X147936817Y-43653959D01*
X148009543Y-43683595D01*
X148077294Y-43713062D01*
X148188703Y-43763626D01*
X148435399Y-43595160D01*
X148452775Y-43583311D01*
X148527202Y-43532947D01*
X148593614Y-43488612D01*
X148648039Y-43452916D01*
X148686506Y-43428471D01*
X148705042Y-43417889D01*
X148717743Y-43420315D01*
X148746579Y-43439110D01*
X148791143Y-43476330D01*
X148852670Y-43533020D01*
X148932398Y-43610227D01*
X148939532Y-43617255D01*
X149002796Y-43680222D01*
X149058990Y-43737268D01*
X149104677Y-43784817D01*
X149136414Y-43819297D01*
X149150764Y-43837131D01*
X149150810Y-43837217D01*
X149152633Y-43850795D01*
X149145910Y-43872820D01*
X149128946Y-43906304D01*
X149100044Y-43954261D01*
X149057508Y-44019704D01*
X148999644Y-44105645D01*
X148989783Y-44120151D01*
X148939913Y-44193635D01*
X148895905Y-44258687D01*
X148860380Y-44311417D01*
X148835959Y-44347936D01*
X148825264Y-44364356D01*
X148824458Y-44367834D01*
X148829518Y-44393785D01*
X148844677Y-44436159D01*
X148867463Y-44487728D01*
X148898429Y-44555170D01*
X148933004Y-44635195D01*
X148962366Y-44707629D01*
X148969645Y-44726377D01*
X148988710Y-44774246D01*
X149002715Y-44807596D01*
X149009041Y-44820114D01*
X149016025Y-44821050D01*
X149047413Y-44826461D01*
X149098787Y-44835806D01*
X149164802Y-44848069D01*
X149240113Y-44862232D01*
X149319375Y-44877280D01*
X149397243Y-44892195D01*
X149468370Y-44905961D01*
X149527412Y-44917562D01*
X149569022Y-44925980D01*
X149587857Y-44930199D01*
X149590980Y-44931389D01*
X149598591Y-44937805D01*
X149604254Y-44951465D01*
X149608251Y-44975999D01*
X149610866Y-45015038D01*
X149612384Y-45072213D01*
X149613086Y-45151154D01*
X149613257Y-45255492D01*
X149613257Y-45572799D01*
X149537057Y-45587839D01*
X149527840Y-45589642D01*
X149478891Y-45598980D01*
X149411205Y-45611669D01*
X149332478Y-45626273D01*
X149250400Y-45641355D01*
X149218078Y-45647422D01*
X149145855Y-45662181D01*
X149085666Y-45676137D01*
X149043040Y-45687952D01*
X149023510Y-45696287D01*
X149014660Y-45709905D01*
X148998548Y-45745938D01*
X148982065Y-45792572D01*
X148976263Y-45810034D01*
X148954906Y-45867358D01*
X148927359Y-45935201D01*
X148898107Y-46002355D01*
X148882463Y-46037430D01*
X148860174Y-46089822D01*
X148844857Y-46129058D01*
X148839162Y-46148563D01*
X148839478Y-46150036D01*
X148850281Y-46170729D01*
X148874638Y-46210665D01*
X148910081Y-46265972D01*
X148954136Y-46332781D01*
X149004332Y-46407220D01*
X149169501Y-46649623D01*
X148952503Y-46866983D01*
X148931516Y-46887899D01*
X148867342Y-46950505D01*
X148809990Y-47004495D01*
X148762820Y-47046826D01*
X148729192Y-47074457D01*
X148712467Y-47084343D01*
X148694303Y-47076821D01*
X148656265Y-47055227D01*
X148602726Y-47022151D01*
X148537884Y-46980191D01*
X148465940Y-46931943D01*
X148395275Y-46884291D01*
X148331526Y-46842328D01*
X148279513Y-46809165D01*
X148243279Y-46787378D01*
X148226867Y-46779543D01*
X148225905Y-46779614D01*
X148204103Y-46787338D01*
X148165440Y-46805323D01*
X148117612Y-46830013D01*
X148117110Y-46830284D01*
X148053587Y-46862099D01*
X148010060Y-46877642D01*
X147983052Y-46877685D01*
X147969090Y-46863000D01*
X147963180Y-46848544D01*
X147947229Y-46809831D01*
X147922660Y-46750316D01*
X147890779Y-46673165D01*
X147852893Y-46581541D01*
X147810310Y-46478607D01*
X147764337Y-46367526D01*
X147722667Y-46266472D01*
X147680268Y-46162780D01*
X147642756Y-46070119D01*
X147611388Y-45991642D01*
X147587425Y-45930500D01*
X147572123Y-45889843D01*
X147566743Y-45872825D01*
X147577018Y-45857219D01*
X147605563Y-45831162D01*
X147645971Y-45800887D01*
X147742979Y-45721684D01*
X147829793Y-45620475D01*
X147893322Y-45509116D01*
X147933177Y-45390893D01*
X147948965Y-45269095D01*
X147940296Y-45147010D01*
X147906778Y-45027925D01*
X147848021Y-44915129D01*
X147763632Y-44811911D01*
X147719631Y-44771713D01*
X147614211Y-44700638D01*
X147501410Y-44654301D01*
X147384525Y-44631599D01*
X147266853Y-44631428D01*
X147151690Y-44652687D01*
X147042335Y-44694270D01*
X146942083Y-44755076D01*
X146854233Y-44834001D01*
X146782080Y-44929941D01*
X146728922Y-45041795D01*
X146698057Y-45168457D01*
X146692392Y-45229507D01*
X146700185Y-45361776D01*
X146735284Y-45487266D01*
X146796649Y-45603759D01*
X146883243Y-45709039D01*
X146994029Y-45800887D01*
X147032931Y-45829930D01*
X147062104Y-45856272D01*
X147073257Y-45872800D01*
X147068810Y-45887209D01*
X147054378Y-45925815D01*
X147031173Y-45985201D01*
X147000452Y-46062215D01*
X146963474Y-46153703D01*
X146921496Y-46256516D01*
X146875778Y-46367502D01*
X146834178Y-46468072D01*
X146791222Y-46571947D01*
X146752829Y-46664819D01*
X146720305Y-46743525D01*
X146694958Y-46804899D01*
X146678095Y-46845779D01*
X146671025Y-46863000D01*
X146670943Y-46863204D01*
X146656798Y-46877745D01*
X146629659Y-46877579D01*
X146586023Y-46861927D01*
X146522388Y-46830013D01*
X146517379Y-46827326D01*
X146470125Y-46803150D01*
X146432811Y-46786037D01*
X146413133Y-46779543D01*
X146397005Y-46787218D01*
X146360959Y-46808871D01*
X146309092Y-46841928D01*
X146245445Y-46883810D01*
X146174060Y-46931943D01*
X146103724Y-46979131D01*
X146038670Y-47021267D01*
X145984820Y-47054578D01*
X145946374Y-47076469D01*
X145927534Y-47084343D01*
X145924325Y-47083343D01*
X145901954Y-47067584D01*
X145863733Y-47035033D01*
X145813021Y-46988733D01*
X145753181Y-46931726D01*
X145687571Y-46867058D01*
X145470648Y-46649772D01*
X145639601Y-46401253D01*
X145808553Y-46152733D01*
X145757183Y-46041595D01*
X145757031Y-46041266D01*
X145726183Y-45970418D01*
X145694661Y-45891523D01*
X145669266Y-45821600D01*
X145665423Y-45810322D01*
X145646047Y-45757967D01*
X145628574Y-45717283D01*
X145616388Y-45696287D01*
X145611426Y-45693322D01*
X145581634Y-45683375D01*
X145531047Y-45670505D01*
X145465194Y-45656053D01*
X145389600Y-45641355D01*
X145366957Y-45637210D01*
X145285038Y-45622116D01*
X145208600Y-45607899D01*
X145145337Y-45595995D01*
X145102943Y-45587839D01*
X145026743Y-45572799D01*
X145026743Y-45255492D01*
X145026760Y-45216476D01*
X145027082Y-45121292D01*
X145028033Y-45050255D01*
X145029896Y-44999734D01*
X145032955Y-44966098D01*
X145037494Y-44945718D01*
X145043795Y-44934962D01*
X145052143Y-44930199D01*
X145060224Y-44928270D01*
X145093172Y-44921445D01*
X145145736Y-44911022D01*
X145212569Y-44898018D01*
X145288328Y-44883449D01*
X145367665Y-44868333D01*
X145445237Y-44853685D01*
X145515698Y-44840523D01*
X145573702Y-44829863D01*
X145613904Y-44822721D01*
X145630959Y-44820114D01*
X145632112Y-44818541D01*
X145641385Y-44798119D01*
X145657432Y-44759045D01*
X145677635Y-44707629D01*
X145705672Y-44638353D01*
X145740186Y-44558290D01*
X145772538Y-44487728D01*
X145779952Y-44471889D01*
X145800755Y-44422293D01*
X145813219Y-44384038D01*
X145814863Y-44364356D01*
X145814015Y-44362962D01*
X145800548Y-44342420D01*
X145773850Y-44302516D01*
X145736539Y-44247140D01*
X145691234Y-44180177D01*
X145640552Y-44105517D01*
X145583445Y-44020692D01*
X145540607Y-43954800D01*
X145511460Y-43906478D01*
X145494317Y-43872733D01*
X145487495Y-43850572D01*
X145489306Y-43837002D01*
X145489915Y-43835984D01*
X145506297Y-43816210D01*
X145539695Y-43780175D01*
X145586671Y-43731451D01*
X145643786Y-43673612D01*
X145707603Y-43610227D01*
X145773802Y-43545905D01*
X145838648Y-43485447D01*
X145886299Y-43444655D01*
X145917990Y-43422484D01*
X145934958Y-43417889D01*
X145937175Y-43418921D01*
X145960524Y-43432837D01*
X146002912Y-43460030D01*
X146060369Y-43497889D01*
X146128923Y-43543803D01*
X146204601Y-43595160D01*
X146451298Y-43763626D01*
X146562706Y-43713062D01*
X146565943Y-43711597D01*
X146634343Y-43681965D01*
X146706907Y-43652493D01*
X146768457Y-43629358D01*
X146768729Y-43629262D01*
X146817595Y-43611367D01*
X146855212Y-43596253D01*
X146873457Y-43587184D01*
X146873752Y-43586855D01*
X146879946Y-43568282D01*
X146890139Y-43526045D01*
X146903348Y-43464696D01*
X146918590Y-43388789D01*
X146934881Y-43302875D01*
X146935449Y-43299796D01*
X146951713Y-43212128D01*
X146966608Y-43132741D01*
X146979171Y-43066701D01*
X146988438Y-43019079D01*
X146993444Y-42994943D01*
X146993764Y-42993605D01*
X146997060Y-42983273D01*
X147003738Y-42975506D01*
X147017462Y-42969940D01*
X147041895Y-42966207D01*
X147080702Y-42963942D01*
X147137546Y-42962778D01*
X147216090Y-42962348D01*
X147320000Y-42962286D01*
X147333056Y-42962286D01*
X147433933Y-42962371D01*
G37*
G04 #@! TD*
M02*
