G04 #@! TF.GenerationSoftware,KiCad,Pcbnew,7.0.5-7.0.5~ubuntu22.04.1*
G04 #@! TF.CreationDate,2023-07-13T11:12:20+08:00*
G04 #@! TF.ProjectId,EFP-flash,4546502d-666c-4617-9368-2e6b69636164,v1.1.0*
G04 #@! TF.SameCoordinates,Original*
G04 #@! TF.FileFunction,Paste,Top*
G04 #@! TF.FilePolarity,Positive*
%FSLAX46Y46*%
G04 Gerber Fmt 4.6, Leading zero omitted, Abs format (unit mm)*
G04 Created by KiCad (PCBNEW 7.0.5-7.0.5~ubuntu22.04.1) date 2023-07-13 11:12:20*
%MOMM*%
%LPD*%
G01*
G04 APERTURE LIST*
G04 Aperture macros list*
%AMRoundRect*
0 Rectangle with rounded corners*
0 $1 Rounding radius*
0 $2 $3 $4 $5 $6 $7 $8 $9 X,Y pos of 4 corners*
0 Add a 4 corners polygon primitive as box body*
4,1,4,$2,$3,$4,$5,$6,$7,$8,$9,$2,$3,0*
0 Add four circle primitives for the rounded corners*
1,1,$1+$1,$2,$3*
1,1,$1+$1,$4,$5*
1,1,$1+$1,$6,$7*
1,1,$1+$1,$8,$9*
0 Add four rect primitives between the rounded corners*
20,1,$1+$1,$2,$3,$4,$5,0*
20,1,$1+$1,$4,$5,$6,$7,0*
20,1,$1+$1,$6,$7,$8,$9,0*
20,1,$1+$1,$8,$9,$2,$3,0*%
G04 Aperture macros list end*
%ADD10RoundRect,0.250000X0.450000X-0.262500X0.450000X0.262500X-0.450000X0.262500X-0.450000X-0.262500X0*%
%ADD11O,0.890000X1.550000*%
%ADD12O,1.250000X0.950000*%
%ADD13R,0.400000X1.350000*%
%ADD14RoundRect,0.225000X-0.225000X-0.250000X0.225000X-0.250000X0.225000X0.250000X-0.225000X0.250000X0*%
%ADD15RoundRect,0.150000X-0.512500X-0.150000X0.512500X-0.150000X0.512500X0.150000X-0.512500X0.150000X0*%
%ADD16RoundRect,0.150000X-0.150000X0.512500X-0.150000X-0.512500X0.150000X-0.512500X0.150000X0.512500X0*%
%ADD17RoundRect,0.150000X-0.150000X0.825000X-0.150000X-0.825000X0.150000X-0.825000X0.150000X0.825000X0*%
%ADD18R,0.600000X0.700000*%
%ADD19RoundRect,0.225000X0.250000X-0.225000X0.250000X0.225000X-0.250000X0.225000X-0.250000X-0.225000X0*%
%ADD20RoundRect,0.200000X-0.275000X0.200000X-0.275000X-0.200000X0.275000X-0.200000X0.275000X0.200000X0*%
%ADD21RoundRect,0.200000X0.275000X-0.200000X0.275000X0.200000X-0.275000X0.200000X-0.275000X-0.200000X0*%
%ADD22RoundRect,0.250000X-0.475000X0.250000X-0.475000X-0.250000X0.475000X-0.250000X0.475000X0.250000X0*%
%ADD23R,0.400000X0.650000*%
%ADD24RoundRect,0.218750X0.256250X-0.218750X0.256250X0.218750X-0.256250X0.218750X-0.256250X-0.218750X0*%
%ADD25RoundRect,0.250000X0.475000X-0.250000X0.475000X0.250000X-0.475000X0.250000X-0.475000X-0.250000X0*%
%ADD26R,2.500000X1.250000*%
%ADD27RoundRect,0.250000X0.450000X-0.325000X0.450000X0.325000X-0.450000X0.325000X-0.450000X-0.325000X0*%
%ADD28R,0.600000X1.450000*%
%ADD29R,0.300000X1.450000*%
%ADD30RoundRect,0.250000X-0.450000X0.262500X-0.450000X-0.262500X0.450000X-0.262500X0.450000X0.262500X0*%
G04 APERTURE END LIST*
D10*
G04 #@! TO.C,R104*
X149860000Y-60602500D03*
X149860000Y-58777500D03*
G04 #@! TD*
D11*
G04 #@! TO.C,J101*
X151709000Y-38959000D03*
D12*
X150709000Y-41659000D03*
X145709000Y-41659000D03*
D11*
X144709000Y-38959000D03*
D13*
X149509000Y-41659000D03*
X148859000Y-41659000D03*
X148209000Y-41659000D03*
X147559000Y-41659000D03*
X146909000Y-41659000D03*
G04 #@! TD*
D14*
G04 #@! TO.C,C103*
X147180000Y-49530000D03*
X148730000Y-49530000D03*
G04 #@! TD*
D15*
G04 #@! TO.C,U101*
X137927500Y-46040000D03*
X137927500Y-46990000D03*
X137927500Y-47940000D03*
X140202500Y-47940000D03*
X140202500Y-46990000D03*
X140202500Y-46040000D03*
G04 #@! TD*
D16*
G04 #@! TO.C,U102*
X150937000Y-45471500D03*
X149987000Y-45471500D03*
X149037000Y-45471500D03*
X149037000Y-47746500D03*
X150937000Y-47746500D03*
G04 #@! TD*
D17*
G04 #@! TO.C,U103*
X149860000Y-51500000D03*
X148590000Y-51500000D03*
X147320000Y-51500000D03*
X146050000Y-51500000D03*
X144780000Y-51500000D03*
X143510000Y-51500000D03*
X142240000Y-51500000D03*
X140970000Y-51500000D03*
X140970000Y-56450000D03*
X142240000Y-56450000D03*
X143510000Y-56450000D03*
X144780000Y-56450000D03*
X146050000Y-56450000D03*
X147320000Y-56450000D03*
X148590000Y-56450000D03*
X149860000Y-56450000D03*
G04 #@! TD*
D18*
G04 #@! TO.C,D101*
X151703000Y-49530000D03*
X150303000Y-49530000D03*
G04 #@! TD*
D19*
G04 #@! TO.C,C104*
X151511000Y-56528000D03*
X151511000Y-54978000D03*
G04 #@! TD*
D20*
G04 #@! TO.C,R105*
X133985000Y-65850000D03*
X133985000Y-67500000D03*
G04 #@! TD*
D21*
G04 #@! TO.C,R102*
X142240000Y-47815000D03*
X142240000Y-46165000D03*
G04 #@! TD*
D22*
G04 #@! TO.C,C102*
X151765000Y-51120000D03*
X151765000Y-53020000D03*
G04 #@! TD*
D23*
G04 #@! TO.C,Q101*
X146035000Y-60640000D03*
X146685000Y-60640000D03*
X147335000Y-60640000D03*
X147335000Y-58740000D03*
X146685000Y-58740000D03*
X146035000Y-58740000D03*
G04 #@! TD*
D20*
G04 #@! TO.C,R106*
X151765000Y-65850000D03*
X151765000Y-67500000D03*
G04 #@! TD*
D24*
G04 #@! TO.C,D102*
X133985000Y-64287500D03*
X133985000Y-62712500D03*
G04 #@! TD*
D25*
G04 #@! TO.C,C101*
X147066000Y-46670000D03*
X147066000Y-44770000D03*
G04 #@! TD*
D24*
G04 #@! TO.C,D103*
X151765000Y-64287500D03*
X151765000Y-62712500D03*
G04 #@! TD*
D26*
G04 #@! TO.C,SW101*
X137370000Y-51475000D03*
X137370000Y-53975000D03*
X137370000Y-56475000D03*
G04 #@! TD*
D21*
G04 #@! TO.C,R101*
X135890000Y-47815000D03*
X135890000Y-46165000D03*
G04 #@! TD*
D27*
G04 #@! TO.C,F101*
X144907000Y-46745000D03*
X144907000Y-44695000D03*
G04 #@! TD*
D28*
G04 #@! TO.C,J102*
X141680000Y-44050000D03*
X140880000Y-44050000D03*
D29*
X139680000Y-44050000D03*
X138680000Y-44050000D03*
X138180000Y-44050000D03*
X137180000Y-44050000D03*
D28*
X135980000Y-44050000D03*
X135180000Y-44050000D03*
X135180000Y-44050000D03*
X135980000Y-44050000D03*
D29*
X136680000Y-44050000D03*
X137680000Y-44050000D03*
X139180000Y-44050000D03*
X140180000Y-44050000D03*
D28*
X140880000Y-44050000D03*
X141680000Y-44050000D03*
G04 #@! TD*
D30*
G04 #@! TO.C,R103*
X143510000Y-58777500D03*
X143510000Y-60602500D03*
G04 #@! TD*
M02*
