G04 #@! TF.GenerationSoftware,KiCad,Pcbnew,7.0.5-7.0.5~ubuntu22.04.1*
G04 #@! TF.CreationDate,2023-07-13T11:12:20+08:00*
G04 #@! TF.ProjectId,EFP-flash,4546502d-666c-4617-9368-2e6b69636164,v1.1.0*
G04 #@! TF.SameCoordinates,Original*
G04 #@! TF.FileFunction,Legend,Top*
G04 #@! TF.FilePolarity,Positive*
%FSLAX46Y46*%
G04 Gerber Fmt 4.6, Leading zero omitted, Abs format (unit mm)*
G04 Created by KiCad (PCBNEW 7.0.5-7.0.5~ubuntu22.04.1) date 2023-07-13 11:12:20*
%MOMM*%
%LPD*%
G01*
G04 APERTURE LIST*
%ADD10C,0.150000*%
%ADD11C,0.120000*%
G04 APERTURE END LIST*
D10*
X147320000Y-64643000D02*
X146050000Y-64643000D01*
X146685000Y-64008000D01*
X147320000Y-64643000D01*
G36*
X147320000Y-64643000D02*
G01*
X146050000Y-64643000D01*
X146685000Y-64008000D01*
X147320000Y-64643000D01*
G37*
X144145000Y-64643000D02*
X143510000Y-64008000D01*
X144780000Y-64008000D01*
X144145000Y-64643000D01*
G36*
X144145000Y-64643000D02*
G01*
X143510000Y-64008000D01*
X144780000Y-64008000D01*
X144145000Y-64643000D01*
G37*
X134530180Y-46672619D02*
X134530180Y-46863095D01*
X134530180Y-46863095D02*
X134482561Y-46958333D01*
X134482561Y-46958333D02*
X134387323Y-47053571D01*
X134387323Y-47053571D02*
X134196847Y-47101190D01*
X134196847Y-47101190D02*
X133863514Y-47101190D01*
X133863514Y-47101190D02*
X133673038Y-47053571D01*
X133673038Y-47053571D02*
X133577800Y-46958333D01*
X133577800Y-46958333D02*
X133530180Y-46863095D01*
X133530180Y-46863095D02*
X133530180Y-46672619D01*
X133530180Y-46672619D02*
X133577800Y-46577381D01*
X133577800Y-46577381D02*
X133673038Y-46482143D01*
X133673038Y-46482143D02*
X133863514Y-46434524D01*
X133863514Y-46434524D02*
X134196847Y-46434524D01*
X134196847Y-46434524D02*
X134387323Y-46482143D01*
X134387323Y-46482143D02*
X134482561Y-46577381D01*
X134482561Y-46577381D02*
X134530180Y-46672619D01*
X134053990Y-47863095D02*
X134053990Y-47529762D01*
X133530180Y-47529762D02*
X134530180Y-47529762D01*
X134530180Y-47529762D02*
X134530180Y-48005952D01*
X134053990Y-48720238D02*
X134053990Y-48386905D01*
X133530180Y-48386905D02*
X134530180Y-48386905D01*
X134530180Y-48386905D02*
X134530180Y-48863095D01*
X143599819Y-63306077D02*
X143599819Y-62734649D01*
X144599819Y-63020363D02*
X143599819Y-63020363D01*
X144599819Y-62496553D02*
X143933152Y-61972744D01*
X143933152Y-62496553D02*
X144599819Y-61972744D01*
X136456009Y-64099887D02*
X136503628Y-63957030D01*
X136503628Y-63957030D02*
X136551247Y-63909411D01*
X136551247Y-63909411D02*
X136646485Y-63861792D01*
X136646485Y-63861792D02*
X136789342Y-63861792D01*
X136789342Y-63861792D02*
X136884580Y-63909411D01*
X136884580Y-63909411D02*
X136932200Y-63957030D01*
X136932200Y-63957030D02*
X136979819Y-64052268D01*
X136979819Y-64052268D02*
X136979819Y-64433220D01*
X136979819Y-64433220D02*
X135979819Y-64433220D01*
X135979819Y-64433220D02*
X135979819Y-64099887D01*
X135979819Y-64099887D02*
X136027438Y-64004649D01*
X136027438Y-64004649D02*
X136075057Y-63957030D01*
X136075057Y-63957030D02*
X136170295Y-63909411D01*
X136170295Y-63909411D02*
X136265533Y-63909411D01*
X136265533Y-63909411D02*
X136360771Y-63957030D01*
X136360771Y-63957030D02*
X136408390Y-64004649D01*
X136408390Y-64004649D02*
X136456009Y-64099887D01*
X136456009Y-64099887D02*
X136456009Y-64433220D01*
X136979819Y-63290363D02*
X136932200Y-63385601D01*
X136932200Y-63385601D02*
X136884580Y-63433220D01*
X136884580Y-63433220D02*
X136789342Y-63480839D01*
X136789342Y-63480839D02*
X136503628Y-63480839D01*
X136503628Y-63480839D02*
X136408390Y-63433220D01*
X136408390Y-63433220D02*
X136360771Y-63385601D01*
X136360771Y-63385601D02*
X136313152Y-63290363D01*
X136313152Y-63290363D02*
X136313152Y-63147506D01*
X136313152Y-63147506D02*
X136360771Y-63052268D01*
X136360771Y-63052268D02*
X136408390Y-63004649D01*
X136408390Y-63004649D02*
X136503628Y-62957030D01*
X136503628Y-62957030D02*
X136789342Y-62957030D01*
X136789342Y-62957030D02*
X136884580Y-63004649D01*
X136884580Y-63004649D02*
X136932200Y-63052268D01*
X136932200Y-63052268D02*
X136979819Y-63147506D01*
X136979819Y-63147506D02*
X136979819Y-63290363D01*
X136979819Y-62385601D02*
X136932200Y-62480839D01*
X136932200Y-62480839D02*
X136884580Y-62528458D01*
X136884580Y-62528458D02*
X136789342Y-62576077D01*
X136789342Y-62576077D02*
X136503628Y-62576077D01*
X136503628Y-62576077D02*
X136408390Y-62528458D01*
X136408390Y-62528458D02*
X136360771Y-62480839D01*
X136360771Y-62480839D02*
X136313152Y-62385601D01*
X136313152Y-62385601D02*
X136313152Y-62242744D01*
X136313152Y-62242744D02*
X136360771Y-62147506D01*
X136360771Y-62147506D02*
X136408390Y-62099887D01*
X136408390Y-62099887D02*
X136503628Y-62052268D01*
X136503628Y-62052268D02*
X136789342Y-62052268D01*
X136789342Y-62052268D02*
X136884580Y-62099887D01*
X136884580Y-62099887D02*
X136932200Y-62147506D01*
X136932200Y-62147506D02*
X136979819Y-62242744D01*
X136979819Y-62242744D02*
X136979819Y-62385601D01*
X136313152Y-61766553D02*
X136313152Y-61385601D01*
X135979819Y-61623696D02*
X136836961Y-61623696D01*
X136836961Y-61623696D02*
X136932200Y-61576077D01*
X136932200Y-61576077D02*
X136979819Y-61480839D01*
X136979819Y-61480839D02*
X136979819Y-61385601D01*
X148727438Y-63909411D02*
X148679819Y-64004649D01*
X148679819Y-64004649D02*
X148679819Y-64147506D01*
X148679819Y-64147506D02*
X148727438Y-64290363D01*
X148727438Y-64290363D02*
X148822676Y-64385601D01*
X148822676Y-64385601D02*
X148917914Y-64433220D01*
X148917914Y-64433220D02*
X149108390Y-64480839D01*
X149108390Y-64480839D02*
X149251247Y-64480839D01*
X149251247Y-64480839D02*
X149441723Y-64433220D01*
X149441723Y-64433220D02*
X149536961Y-64385601D01*
X149536961Y-64385601D02*
X149632200Y-64290363D01*
X149632200Y-64290363D02*
X149679819Y-64147506D01*
X149679819Y-64147506D02*
X149679819Y-64052268D01*
X149679819Y-64052268D02*
X149632200Y-63909411D01*
X149632200Y-63909411D02*
X149584580Y-63861792D01*
X149584580Y-63861792D02*
X149251247Y-63861792D01*
X149251247Y-63861792D02*
X149251247Y-64052268D01*
X149679819Y-63433220D02*
X148679819Y-63433220D01*
X148679819Y-63433220D02*
X149679819Y-62861792D01*
X149679819Y-62861792D02*
X148679819Y-62861792D01*
X149679819Y-62385601D02*
X148679819Y-62385601D01*
X148679819Y-62385601D02*
X148679819Y-62147506D01*
X148679819Y-62147506D02*
X148727438Y-62004649D01*
X148727438Y-62004649D02*
X148822676Y-61909411D01*
X148822676Y-61909411D02*
X148917914Y-61861792D01*
X148917914Y-61861792D02*
X149108390Y-61814173D01*
X149108390Y-61814173D02*
X149251247Y-61814173D01*
X149251247Y-61814173D02*
X149441723Y-61861792D01*
X149441723Y-61861792D02*
X149536961Y-61909411D01*
X149536961Y-61909411D02*
X149632200Y-62004649D01*
X149632200Y-62004649D02*
X149679819Y-62147506D01*
X149679819Y-62147506D02*
X149679819Y-62385601D01*
X138996009Y-64433220D02*
X138996009Y-64099887D01*
X139519819Y-63957030D02*
X139519819Y-64433220D01*
X139519819Y-64433220D02*
X138519819Y-64433220D01*
X138519819Y-64433220D02*
X138519819Y-63957030D01*
X139519819Y-63528458D02*
X138519819Y-63528458D01*
X138519819Y-63528458D02*
X139519819Y-62957030D01*
X139519819Y-62957030D02*
X138519819Y-62957030D01*
X147139819Y-62591792D02*
X146663628Y-62925125D01*
X147139819Y-63163220D02*
X146139819Y-63163220D01*
X146139819Y-63163220D02*
X146139819Y-62782268D01*
X146139819Y-62782268D02*
X146187438Y-62687030D01*
X146187438Y-62687030D02*
X146235057Y-62639411D01*
X146235057Y-62639411D02*
X146330295Y-62591792D01*
X146330295Y-62591792D02*
X146473152Y-62591792D01*
X146473152Y-62591792D02*
X146568390Y-62639411D01*
X146568390Y-62639411D02*
X146616009Y-62687030D01*
X146616009Y-62687030D02*
X146663628Y-62782268D01*
X146663628Y-62782268D02*
X146663628Y-63163220D01*
X147139819Y-62258458D02*
X146473152Y-61734649D01*
X146473152Y-62258458D02*
X147139819Y-61734649D01*
X134530180Y-59705952D02*
X134530180Y-59896428D01*
X134530180Y-59896428D02*
X134482561Y-59991666D01*
X134482561Y-59991666D02*
X134387323Y-60086904D01*
X134387323Y-60086904D02*
X134196847Y-60134523D01*
X134196847Y-60134523D02*
X133863514Y-60134523D01*
X133863514Y-60134523D02*
X133673038Y-60086904D01*
X133673038Y-60086904D02*
X133577800Y-59991666D01*
X133577800Y-59991666D02*
X133530180Y-59896428D01*
X133530180Y-59896428D02*
X133530180Y-59705952D01*
X133530180Y-59705952D02*
X133577800Y-59610714D01*
X133577800Y-59610714D02*
X133673038Y-59515476D01*
X133673038Y-59515476D02*
X133863514Y-59467857D01*
X133863514Y-59467857D02*
X134196847Y-59467857D01*
X134196847Y-59467857D02*
X134387323Y-59515476D01*
X134387323Y-59515476D02*
X134482561Y-59610714D01*
X134482561Y-59610714D02*
X134530180Y-59705952D01*
X133530180Y-60563095D02*
X134530180Y-60563095D01*
X134530180Y-60563095D02*
X133530180Y-61134523D01*
X133530180Y-61134523D02*
X134530180Y-61134523D01*
X151219819Y-61515475D02*
X151219819Y-60896428D01*
X151219819Y-60896428D02*
X151600771Y-61229761D01*
X151600771Y-61229761D02*
X151600771Y-61086904D01*
X151600771Y-61086904D02*
X151648390Y-60991666D01*
X151648390Y-60991666D02*
X151696009Y-60944047D01*
X151696009Y-60944047D02*
X151791247Y-60896428D01*
X151791247Y-60896428D02*
X152029342Y-60896428D01*
X152029342Y-60896428D02*
X152124580Y-60944047D01*
X152124580Y-60944047D02*
X152172200Y-60991666D01*
X152172200Y-60991666D02*
X152219819Y-61086904D01*
X152219819Y-61086904D02*
X152219819Y-61372618D01*
X152219819Y-61372618D02*
X152172200Y-61467856D01*
X152172200Y-61467856D02*
X152124580Y-61515475D01*
X151553152Y-60563094D02*
X152219819Y-60324999D01*
X152219819Y-60324999D02*
X151553152Y-60086904D01*
X151219819Y-59801189D02*
X151219819Y-59182142D01*
X151219819Y-59182142D02*
X151600771Y-59515475D01*
X151600771Y-59515475D02*
X151600771Y-59372618D01*
X151600771Y-59372618D02*
X151648390Y-59277380D01*
X151648390Y-59277380D02*
X151696009Y-59229761D01*
X151696009Y-59229761D02*
X151791247Y-59182142D01*
X151791247Y-59182142D02*
X152029342Y-59182142D01*
X152029342Y-59182142D02*
X152124580Y-59229761D01*
X152124580Y-59229761D02*
X152172200Y-59277380D01*
X152172200Y-59277380D02*
X152219819Y-59372618D01*
X152219819Y-59372618D02*
X152219819Y-59658332D01*
X152219819Y-59658332D02*
X152172200Y-59753570D01*
X152172200Y-59753570D02*
X152124580Y-59801189D01*
X141059819Y-64528458D02*
X141059819Y-63909411D01*
X141059819Y-63909411D02*
X141440771Y-64242744D01*
X141440771Y-64242744D02*
X141440771Y-64099887D01*
X141440771Y-64099887D02*
X141488390Y-64004649D01*
X141488390Y-64004649D02*
X141536009Y-63957030D01*
X141536009Y-63957030D02*
X141631247Y-63909411D01*
X141631247Y-63909411D02*
X141869342Y-63909411D01*
X141869342Y-63909411D02*
X141964580Y-63957030D01*
X141964580Y-63957030D02*
X142012200Y-64004649D01*
X142012200Y-64004649D02*
X142059819Y-64099887D01*
X142059819Y-64099887D02*
X142059819Y-64385601D01*
X142059819Y-64385601D02*
X142012200Y-64480839D01*
X142012200Y-64480839D02*
X141964580Y-64528458D01*
X141393152Y-63576077D02*
X142059819Y-63337982D01*
X142059819Y-63337982D02*
X141393152Y-63099887D01*
X141059819Y-62814172D02*
X141059819Y-62195125D01*
X141059819Y-62195125D02*
X141440771Y-62528458D01*
X141440771Y-62528458D02*
X141440771Y-62385601D01*
X141440771Y-62385601D02*
X141488390Y-62290363D01*
X141488390Y-62290363D02*
X141536009Y-62242744D01*
X141536009Y-62242744D02*
X141631247Y-62195125D01*
X141631247Y-62195125D02*
X141869342Y-62195125D01*
X141869342Y-62195125D02*
X141964580Y-62242744D01*
X141964580Y-62242744D02*
X142012200Y-62290363D01*
X142012200Y-62290363D02*
X142059819Y-62385601D01*
X142059819Y-62385601D02*
X142059819Y-62671315D01*
X142059819Y-62671315D02*
X142012200Y-62766553D01*
X142012200Y-62766553D02*
X141964580Y-62814172D01*
D11*
G04 #@! TO.C,R104*
X149125000Y-59917064D02*
X149125000Y-59462936D01*
X150595000Y-59917064D02*
X150595000Y-59462936D01*
G04 #@! TO.C,J101*
X151969000Y-41919000D02*
X151549000Y-41919000D01*
X151969000Y-39939000D02*
X151969000Y-41919000D01*
X151969000Y-37569000D02*
X151969000Y-37969000D01*
X149969000Y-42149000D02*
X149969000Y-42599000D01*
X149519000Y-42599000D02*
X149969000Y-42599000D01*
X144449000Y-41919000D02*
X144869000Y-41919000D01*
X144449000Y-39939000D02*
X144449000Y-41919000D01*
X144449000Y-37969000D02*
X144449000Y-37569000D01*
G04 #@! TO.C,C103*
X147814420Y-49020000D02*
X148095580Y-49020000D01*
X147814420Y-50040000D02*
X148095580Y-50040000D01*
G04 #@! TO.C,U101*
X139065000Y-45430000D02*
X137265000Y-45430000D01*
X139065000Y-45430000D02*
X139865000Y-45430000D01*
X139065000Y-48550000D02*
X138265000Y-48550000D01*
X139065000Y-48550000D02*
X139865000Y-48550000D01*
G04 #@! TO.C,U102*
X151547000Y-46609000D02*
X151547000Y-44809000D01*
X151547000Y-46609000D02*
X151547000Y-47409000D01*
X148427000Y-46609000D02*
X148427000Y-45809000D01*
X148427000Y-46609000D02*
X148427000Y-47409000D01*
G04 #@! TO.C,U103*
X150475000Y-53975000D02*
X150475000Y-50525000D01*
X150475000Y-53975000D02*
X150475000Y-55925000D01*
X140355000Y-53975000D02*
X140355000Y-52025000D01*
X140355000Y-53975000D02*
X140355000Y-55925000D01*
G04 #@! TO.C,D101*
X152153000Y-50130000D02*
X152153000Y-48930000D01*
X150303000Y-50130000D02*
X152153000Y-50130000D01*
X150303000Y-48930000D02*
X152153000Y-48930000D01*
G04 #@! TO.C,C104*
X151001000Y-55893580D02*
X151001000Y-55612420D01*
X152021000Y-55893580D02*
X152021000Y-55612420D01*
G04 #@! TO.C,R105*
X134507500Y-66437742D02*
X134507500Y-66912258D01*
X133462500Y-66437742D02*
X133462500Y-66912258D01*
G04 #@! TO.C,R102*
X141717500Y-47227258D02*
X141717500Y-46752742D01*
X142762500Y-47227258D02*
X142762500Y-46752742D01*
G04 #@! TO.C,C102*
X152500000Y-51808748D02*
X152500000Y-52331252D01*
X151030000Y-51808748D02*
X151030000Y-52331252D01*
G04 #@! TO.C,Q101*
X147845000Y-60390000D02*
X147845000Y-58990000D01*
X145525000Y-58990000D02*
X145525000Y-60890000D01*
G04 #@! TO.C,R106*
X152287500Y-66437742D02*
X152287500Y-66912258D01*
X151242500Y-66437742D02*
X151242500Y-66912258D01*
G04 #@! TO.C,D102*
X133250000Y-64985000D02*
X134720000Y-64985000D01*
X134720000Y-64985000D02*
X134720000Y-62700000D01*
X133250000Y-62700000D02*
X133250000Y-64985000D01*
G04 #@! TO.C,C101*
X146331000Y-45981252D02*
X146331000Y-45458748D01*
X147801000Y-45981252D02*
X147801000Y-45458748D01*
G04 #@! TO.C,D103*
X151030000Y-64985000D02*
X152500000Y-64985000D01*
X152500000Y-64985000D02*
X152500000Y-62700000D01*
X151030000Y-62700000D02*
X151030000Y-64985000D01*
G04 #@! TO.C,SW101*
X136520000Y-49375000D02*
X136520000Y-50775000D01*
X132720000Y-49375000D02*
X136520000Y-49375000D01*
X132720000Y-49375000D02*
X132720000Y-49375000D01*
X132720000Y-51075000D02*
X132720000Y-49375000D01*
X132420000Y-51075000D02*
X132720000Y-51075000D01*
X132720000Y-51875000D02*
X132420000Y-51875000D01*
X132420000Y-51875000D02*
X132420000Y-51075000D01*
X132120000Y-51975000D02*
X132120000Y-51975000D01*
X131620000Y-51975000D02*
X132120000Y-51975000D01*
X131320000Y-51975000D02*
X131320000Y-51975000D01*
X130820000Y-51975000D02*
X131320000Y-51975000D01*
X130820000Y-51975000D02*
X130820000Y-52475000D01*
X136520000Y-52175000D02*
X136520000Y-52175000D01*
X130820000Y-52475000D02*
X130820000Y-52475000D01*
X130820000Y-52775000D02*
X130820000Y-53275000D01*
X136520000Y-53275000D02*
X136520000Y-52175000D01*
X130820000Y-53275000D02*
X130820000Y-53275000D01*
X132720000Y-53575000D02*
X132720000Y-51875000D01*
X132420000Y-53575000D02*
X132720000Y-53575000D01*
X130820000Y-53575000D02*
X130820000Y-53575000D01*
X132720000Y-54375000D02*
X132420000Y-54375000D01*
X132420000Y-54375000D02*
X132420000Y-53575000D01*
X130820000Y-54375000D02*
X130820000Y-53575000D01*
X136520000Y-54675000D02*
X136520000Y-54675000D01*
X130820000Y-54675000D02*
X130820000Y-54675000D01*
X130820000Y-55175000D02*
X130820000Y-54675000D01*
X130820000Y-55475000D02*
X130820000Y-55475000D01*
X136520000Y-55775000D02*
X136520000Y-54675000D01*
X132120000Y-55975000D02*
X132120000Y-55975000D01*
X131620000Y-55975000D02*
X132120000Y-55975000D01*
X131320000Y-55975000D02*
X131320000Y-55975000D01*
X130820000Y-55975000D02*
X130820000Y-55475000D01*
X130820000Y-55975000D02*
X131320000Y-55975000D01*
X132720000Y-56075000D02*
X132720000Y-54375000D01*
X132420000Y-56075000D02*
X132720000Y-56075000D01*
X132720000Y-56875000D02*
X132420000Y-56875000D01*
X132420000Y-56875000D02*
X132420000Y-56075000D01*
X136520000Y-57175000D02*
X136520000Y-58575000D01*
X136520000Y-58575000D02*
X132720000Y-58575000D01*
X132720000Y-58575000D02*
X132720000Y-56875000D01*
G04 #@! TO.C,R101*
X135367500Y-47227258D02*
X135367500Y-46752742D01*
X136412500Y-47227258D02*
X136412500Y-46752742D01*
G04 #@! TO.C,F101*
X144197000Y-45981252D02*
X144197000Y-45458748D01*
X145617000Y-45981252D02*
X145617000Y-45458748D01*
G04 #@! TO.C,J102*
X143130000Y-41905000D02*
X143130000Y-39905000D01*
X143130000Y-38005000D02*
X143130000Y-36105000D01*
X143130000Y-36105000D02*
X133730000Y-36105000D01*
X133730000Y-41905000D02*
X133730000Y-39905000D01*
X133730000Y-38005000D02*
X133730000Y-36105000D01*
G04 #@! TO.C,J103*
X150495000Y-64770000D02*
X150495000Y-66040000D01*
X149225000Y-64770000D02*
X150495000Y-64770000D01*
X147065000Y-67082929D02*
X147065000Y-67480000D01*
X146305000Y-67082929D02*
X146305000Y-67480000D01*
X144525000Y-67082929D02*
X144525000Y-67480000D01*
X143765000Y-67082929D02*
X143765000Y-67480000D01*
X141985000Y-67082929D02*
X141985000Y-67480000D01*
X141225000Y-67082929D02*
X141225000Y-67480000D01*
X139445000Y-67082929D02*
X139445000Y-67480000D01*
X138685000Y-67082929D02*
X138685000Y-67480000D01*
X136905000Y-67082929D02*
X136905000Y-67480000D01*
X136145000Y-67082929D02*
X136145000Y-67480000D01*
X149605000Y-67150000D02*
X149605000Y-67480000D01*
X148845000Y-67150000D02*
X148845000Y-67480000D01*
X150555000Y-67480000D02*
X135195000Y-67480000D01*
X147955000Y-67480000D02*
X147955000Y-70140000D01*
X145415000Y-67480000D02*
X145415000Y-70140000D01*
X142875000Y-67480000D02*
X142875000Y-70140000D01*
X140335000Y-67480000D02*
X140335000Y-70140000D01*
X137795000Y-67480000D02*
X137795000Y-70140000D01*
X135195000Y-67480000D02*
X135195000Y-70140000D01*
X150555000Y-70140000D02*
X150555000Y-67480000D01*
X149605000Y-70140000D02*
X149605000Y-76140000D01*
X149545000Y-70140000D02*
X149545000Y-76140000D01*
X149425000Y-70140000D02*
X149425000Y-76140000D01*
X149305000Y-70140000D02*
X149305000Y-76140000D01*
X149185000Y-70140000D02*
X149185000Y-76140000D01*
X149065000Y-70140000D02*
X149065000Y-76140000D01*
X148945000Y-70140000D02*
X148945000Y-76140000D01*
X147065000Y-70140000D02*
X147065000Y-76140000D01*
X144525000Y-70140000D02*
X144525000Y-76140000D01*
X141985000Y-70140000D02*
X141985000Y-76140000D01*
X139445000Y-70140000D02*
X139445000Y-76140000D01*
X136905000Y-70140000D02*
X136905000Y-76140000D01*
X135195000Y-70140000D02*
X150555000Y-70140000D01*
X149605000Y-76140000D02*
X148845000Y-76140000D01*
X148845000Y-76140000D02*
X148845000Y-70140000D01*
X147065000Y-76140000D02*
X146305000Y-76140000D01*
X146305000Y-76140000D02*
X146305000Y-70140000D01*
X144525000Y-76140000D02*
X143765000Y-76140000D01*
X143765000Y-76140000D02*
X143765000Y-70140000D01*
X141985000Y-76140000D02*
X141225000Y-76140000D01*
X141225000Y-76140000D02*
X141225000Y-70140000D01*
X139445000Y-76140000D02*
X138685000Y-76140000D01*
X138685000Y-76140000D02*
X138685000Y-70140000D01*
X136905000Y-76140000D02*
X136145000Y-76140000D01*
X136145000Y-76140000D02*
X136145000Y-70140000D01*
G04 #@! TO.C,R103*
X144245000Y-59462936D02*
X144245000Y-59917064D01*
X142775000Y-59462936D02*
X142775000Y-59917064D01*
G04 #@! TD*
M02*
