G04 #@! TF.GenerationSoftware,KiCad,Pcbnew,7.0.5-7.0.5~ubuntu22.04.1*
G04 #@! TF.CreationDate,2023-07-13T11:12:20+08:00*
G04 #@! TF.ProjectId,EFP-flash,4546502d-666c-4617-9368-2e6b69636164,v1.1.0*
G04 #@! TF.SameCoordinates,Original*
G04 #@! TF.FileFunction,Copper,L2,Bot*
G04 #@! TF.FilePolarity,Positive*
%FSLAX46Y46*%
G04 Gerber Fmt 4.6, Leading zero omitted, Abs format (unit mm)*
G04 Created by KiCad (PCBNEW 7.0.5-7.0.5~ubuntu22.04.1) date 2023-07-13 11:12:20*
%MOMM*%
%LPD*%
G01*
G04 APERTURE LIST*
G04 #@! TA.AperFunction,ComponentPad*
%ADD10O,0.890000X1.550000*%
G04 #@! TD*
G04 #@! TA.AperFunction,ComponentPad*
%ADD11O,1.250000X0.950000*%
G04 #@! TD*
G04 #@! TA.AperFunction,ComponentPad*
%ADD12O,1.000000X2.100000*%
G04 #@! TD*
G04 #@! TA.AperFunction,ComponentPad*
%ADD13O,1.000000X1.600000*%
G04 #@! TD*
G04 #@! TA.AperFunction,ComponentPad*
%ADD14R,1.700000X1.700000*%
G04 #@! TD*
G04 #@! TA.AperFunction,ComponentPad*
%ADD15O,1.700000X1.700000*%
G04 #@! TD*
G04 #@! TA.AperFunction,ViaPad*
%ADD16C,0.600000*%
G04 #@! TD*
G04 #@! TA.AperFunction,Conductor*
%ADD17C,0.200000*%
G04 #@! TD*
G04 #@! TA.AperFunction,Conductor*
%ADD18C,0.400000*%
G04 #@! TD*
G04 #@! TA.AperFunction,Conductor*
%ADD19C,0.127000*%
G04 #@! TD*
G04 APERTURE END LIST*
D10*
G04 #@! TO.P,J101,6,Shield*
G04 #@! TO.N,GND*
X151709000Y-38959000D03*
D11*
X150709000Y-41659000D03*
X145709000Y-41659000D03*
D10*
X144709000Y-38959000D03*
G04 #@! TD*
D12*
G04 #@! TO.P,J102,S1,SHIELD*
G04 #@! TO.N,GND*
X142750000Y-43135000D03*
D13*
X142750000Y-38955000D03*
D12*
X134110000Y-43135000D03*
D13*
X134110000Y-38955000D03*
G04 #@! TD*
D14*
G04 #@! TO.P,J103,1,Pin_1*
G04 #@! TO.N,GND*
X149225000Y-66040000D03*
D15*
G04 #@! TO.P,J103,2,Pin_2*
G04 #@! TO.N,/SER_RX*
X146685000Y-66040000D03*
G04 #@! TO.P,J103,3,Pin_3*
G04 #@! TO.N,/SER_TX*
X144145000Y-66040000D03*
G04 #@! TO.P,J103,4,Pin_4*
G04 #@! TO.N,/3v3_{SW}*
X141605000Y-66040000D03*
G04 #@! TO.P,J103,5,Pin_5*
G04 #@! TO.N,/EN*
X139065000Y-66040000D03*
G04 #@! TO.P,J103,6,Pin_6*
G04 #@! TO.N,/Boot*
X136525000Y-66040000D03*
G04 #@! TD*
D16*
G04 #@! TO.N,GND*
X145415000Y-53340000D03*
X145415000Y-64135000D03*
X149606000Y-49530000D03*
X144780000Y-49530000D03*
X151765000Y-53975000D03*
X146939000Y-40259000D03*
X135890000Y-48641000D03*
X147828000Y-48133000D03*
X139700000Y-50165000D03*
X137795000Y-64135000D03*
X136906000Y-46990000D03*
X149987000Y-43942000D03*
X147955000Y-54610000D03*
X140970000Y-59055000D03*
X138430000Y-60960000D03*
X151765000Y-58420000D03*
X143129000Y-47752000D03*
X134620000Y-45720000D03*
X140970000Y-61595000D03*
G04 #@! TO.N,+3V3*
X151892000Y-48133000D03*
X146050000Y-49530000D03*
X151511000Y-57404000D03*
X135128000Y-61087000D03*
X135255000Y-53975000D03*
G04 #@! TO.N,Net-(J101-VBUS)*
X143510000Y-45085000D03*
X140335000Y-41275000D03*
X136525000Y-41275000D03*
G04 #@! TO.N,/3v3_{SW}*
X150495000Y-63119000D03*
G04 #@! TO.N,/EN*
X145481000Y-58740000D03*
G04 #@! TO.N,/Boot*
X147889000Y-60640000D03*
G04 #@! TD*
D17*
G04 #@! TO.N,+3V3*
X136525000Y-59690000D02*
X136525000Y-55880000D01*
D18*
X150876000Y-54991000D02*
X151511000Y-55626000D01*
X150876000Y-52959000D02*
X150876000Y-54991000D01*
D17*
X135255000Y-54610000D02*
X135255000Y-53975000D01*
D18*
X147955000Y-49530000D02*
X146050000Y-49530000D01*
X146050000Y-49530000D02*
X141605000Y-53975000D01*
X151892000Y-48133000D02*
X151892000Y-51943000D01*
D17*
X136525000Y-55880000D02*
X135255000Y-54610000D01*
D18*
X151892000Y-51943000D02*
X150876000Y-52959000D01*
X149352000Y-48133000D02*
X147955000Y-49530000D01*
X141605000Y-53975000D02*
X135255000Y-53975000D01*
D17*
X135128000Y-61087000D02*
X136525000Y-59690000D01*
D18*
X151892000Y-48133000D02*
X149352000Y-48133000D01*
X151511000Y-55626000D02*
X151511000Y-57404000D01*
G04 #@! TO.N,Net-(J101-VBUS)*
X139700000Y-41275000D02*
X139700000Y-42545000D01*
X139700000Y-42545000D02*
X142240000Y-45085000D01*
X136525000Y-41275000D02*
X139700000Y-41275000D01*
X142240000Y-45085000D02*
X143510000Y-45085000D01*
X139700000Y-41275000D02*
X140335000Y-41275000D01*
D17*
G04 #@! TO.N,/3v3_{SW}*
X143510000Y-67945000D02*
X150495000Y-67945000D01*
X141605000Y-66040000D02*
X143510000Y-67945000D01*
X151130000Y-67310000D02*
X151130000Y-63754000D01*
X151130000Y-63754000D02*
X150495000Y-63119000D01*
X150495000Y-67945000D02*
X151130000Y-67310000D01*
D19*
G04 #@! TO.N,/EN*
X139065000Y-66040000D02*
X145481000Y-59624000D01*
X145481000Y-59624000D02*
X145481000Y-58740000D01*
G04 #@! TO.N,/Boot*
X145100000Y-60640000D02*
X147889000Y-60640000D01*
X140335000Y-65405000D02*
X145100000Y-60640000D01*
X140335000Y-66675000D02*
X140335000Y-65405000D01*
X139700000Y-67310000D02*
X140335000Y-66675000D01*
X136525000Y-66040000D02*
X137795000Y-67310000D01*
X137795000Y-67310000D02*
X139700000Y-67310000D01*
G04 #@! TD*
G04 #@! TA.AperFunction,Conductor*
G04 #@! TO.N,GND*
G36*
X142082766Y-37685502D02*
G01*
X142129259Y-37739158D01*
X142139363Y-37809432D01*
X142109869Y-37874012D01*
X142094579Y-37888899D01*
X142033788Y-37938788D01*
X141907824Y-38092275D01*
X141814225Y-38267385D01*
X141814219Y-38267400D01*
X141756585Y-38457393D01*
X141756583Y-38457405D01*
X141742000Y-38605473D01*
X141742000Y-38701000D01*
X142450000Y-38701000D01*
X142450000Y-39209000D01*
X141742000Y-39209000D01*
X141742000Y-39304526D01*
X141756583Y-39452594D01*
X141756585Y-39452606D01*
X141814219Y-39642599D01*
X141814225Y-39642614D01*
X141907824Y-39817724D01*
X142033788Y-39971211D01*
X142187275Y-40097175D01*
X142362388Y-40190775D01*
X142496000Y-40231305D01*
X142496000Y-39414650D01*
X142524457Y-39460610D01*
X142613962Y-39528201D01*
X142721840Y-39558895D01*
X142833521Y-39548546D01*
X142933922Y-39498552D01*
X143004000Y-39421681D01*
X143004000Y-40231305D01*
X143137611Y-40190775D01*
X143312724Y-40097175D01*
X143466211Y-39971211D01*
X143592175Y-39817724D01*
X143640287Y-39727714D01*
X143690039Y-39677066D01*
X143759275Y-39661356D01*
X143826015Y-39685572D01*
X143861577Y-39725962D01*
X143922778Y-39836226D01*
X143922778Y-39836227D01*
X144049023Y-39983285D01*
X144049029Y-39983290D01*
X144202298Y-40101929D01*
X144376308Y-40187285D01*
X144376309Y-40187286D01*
X144455000Y-40207660D01*
X144455000Y-39213000D01*
X143772191Y-39213000D01*
X143758568Y-39209000D01*
X143050000Y-39209000D01*
X143050000Y-38701000D01*
X143741809Y-38701000D01*
X143755432Y-38705000D01*
X144459000Y-38705000D01*
X144459000Y-39308624D01*
X144473505Y-39381545D01*
X144528760Y-39464240D01*
X144611455Y-39519495D01*
X144709000Y-39538898D01*
X144806545Y-39519495D01*
X144889240Y-39464240D01*
X144944495Y-39381545D01*
X144959000Y-39308624D01*
X144959000Y-39213000D01*
X144963000Y-39213000D01*
X144963000Y-40211187D01*
X145130858Y-40149019D01*
X145295347Y-40046493D01*
X145295354Y-40046489D01*
X145435827Y-39912957D01*
X145546550Y-39753878D01*
X145622982Y-39575767D01*
X145661999Y-39385912D01*
X145662000Y-39385906D01*
X145662000Y-39213000D01*
X150756000Y-39213000D01*
X150756000Y-39337350D01*
X150770692Y-39481819D01*
X150770693Y-39481824D01*
X150828716Y-39666757D01*
X150922778Y-39836226D01*
X150922778Y-39836227D01*
X151049023Y-39983285D01*
X151049029Y-39983290D01*
X151202298Y-40101929D01*
X151376308Y-40187285D01*
X151376309Y-40187286D01*
X151455000Y-40207660D01*
X151455000Y-39213000D01*
X150756000Y-39213000D01*
X145662000Y-39213000D01*
X144963000Y-39213000D01*
X144959000Y-39213000D01*
X144959000Y-38705000D01*
X145662000Y-38705000D01*
X145662000Y-38580668D01*
X145661999Y-38580649D01*
X145647307Y-38436180D01*
X145647306Y-38436175D01*
X145589283Y-38251242D01*
X145495221Y-38081773D01*
X145495221Y-38081772D01*
X145368976Y-37934714D01*
X145368974Y-37934713D01*
X145312680Y-37891138D01*
X145271056Y-37833623D01*
X145267133Y-37762735D01*
X145302159Y-37700980D01*
X145365011Y-37667964D01*
X145389806Y-37665500D01*
X151023936Y-37665500D01*
X151092057Y-37685502D01*
X151138550Y-37739158D01*
X151148654Y-37809432D01*
X151119160Y-37874012D01*
X151110746Y-37882824D01*
X150982170Y-38005045D01*
X150871449Y-38164121D01*
X150795017Y-38342232D01*
X150756000Y-38532087D01*
X150756000Y-38705000D01*
X151459000Y-38705000D01*
X151459000Y-39308624D01*
X151473505Y-39381545D01*
X151528760Y-39464240D01*
X151611455Y-39519495D01*
X151709000Y-39538898D01*
X151806545Y-39519495D01*
X151889240Y-39464240D01*
X151944495Y-39381545D01*
X151959000Y-39308624D01*
X151959000Y-38812611D01*
X151963000Y-38831000D01*
X151963000Y-40211187D01*
X152130858Y-40149019D01*
X152295347Y-40046493D01*
X152295354Y-40046489D01*
X152435827Y-39912957D01*
X152546550Y-39753878D01*
X152592711Y-39646309D01*
X152637956Y-39591596D01*
X152705597Y-39570030D01*
X152774161Y-39588458D01*
X152821877Y-39641028D01*
X152834500Y-39695997D01*
X152834500Y-68577242D01*
X152834260Y-68582736D01*
X152819211Y-68754736D01*
X152815398Y-68776365D01*
X152772854Y-68935142D01*
X152765342Y-68955781D01*
X152695870Y-69104763D01*
X152684888Y-69123783D01*
X152590607Y-69258431D01*
X152576489Y-69275256D01*
X152460256Y-69391489D01*
X152443431Y-69405607D01*
X152308783Y-69499888D01*
X152289763Y-69510870D01*
X152140781Y-69580342D01*
X152120142Y-69587854D01*
X151961365Y-69630398D01*
X151939736Y-69634211D01*
X151767736Y-69649260D01*
X151762242Y-69649500D01*
X133987758Y-69649500D01*
X133982264Y-69649260D01*
X133810263Y-69634212D01*
X133788634Y-69630398D01*
X133629857Y-69587854D01*
X133609218Y-69580342D01*
X133460236Y-69510870D01*
X133441216Y-69499888D01*
X133306568Y-69405607D01*
X133289743Y-69391489D01*
X133173510Y-69275256D01*
X133159392Y-69258431D01*
X133065111Y-69123783D01*
X133054129Y-69104763D01*
X132984657Y-68955781D01*
X132977147Y-68935148D01*
X132934600Y-68776363D01*
X132930787Y-68754735D01*
X132915740Y-68582736D01*
X132915500Y-68577242D01*
X132915500Y-66040004D01*
X135415768Y-66040004D01*
X135434654Y-66243819D01*
X135448932Y-66294000D01*
X135490672Y-66440701D01*
X135581912Y-66623935D01*
X135602186Y-66650783D01*
X135705266Y-66787284D01*
X135856536Y-66925185D01*
X136030566Y-67032940D01*
X136030568Y-67032940D01*
X136030573Y-67032944D01*
X136221444Y-67106888D01*
X136422653Y-67144500D01*
X136422655Y-67144500D01*
X136627345Y-67144500D01*
X136627347Y-67144500D01*
X136828556Y-67106888D01*
X136978041Y-67048976D01*
X137048788Y-67043020D01*
X137111524Y-67076257D01*
X137112653Y-67077373D01*
X137558379Y-67523099D01*
X137562083Y-67527142D01*
X137587438Y-67557358D01*
X137587440Y-67557360D01*
X137621594Y-67577079D01*
X137626219Y-67580025D01*
X137635706Y-67586668D01*
X137658536Y-67602654D01*
X137664988Y-67605662D01*
X137677850Y-67610989D01*
X137684558Y-67613431D01*
X137684560Y-67613432D01*
X137723412Y-67620282D01*
X137728748Y-67621465D01*
X137766857Y-67631677D01*
X137791918Y-67629484D01*
X137806150Y-67628240D01*
X137811642Y-67628000D01*
X139683358Y-67628000D01*
X139688850Y-67628240D01*
X139705255Y-67629674D01*
X139728143Y-67631677D01*
X139766262Y-67621461D01*
X139771583Y-67620282D01*
X139810440Y-67613432D01*
X139810441Y-67613431D01*
X139810443Y-67613431D01*
X139817163Y-67610984D01*
X139829973Y-67605679D01*
X139836460Y-67602653D01*
X139836466Y-67602652D01*
X139868781Y-67580024D01*
X139873410Y-67577077D01*
X139907558Y-67557362D01*
X139907562Y-67557358D01*
X139932917Y-67527139D01*
X139936610Y-67523108D01*
X140548108Y-66911610D01*
X140552141Y-66907916D01*
X140582360Y-66882560D01*
X140602076Y-66848411D01*
X140605029Y-66843775D01*
X140606587Y-66841549D01*
X140617198Y-66826394D01*
X140672652Y-66782065D01*
X140743271Y-66774753D01*
X140805298Y-66805547D01*
X140936532Y-66925182D01*
X140936535Y-66925184D01*
X140936537Y-66925185D01*
X140936538Y-66925186D01*
X140984843Y-66955095D01*
X141110566Y-67032940D01*
X141110568Y-67032940D01*
X141110573Y-67032944D01*
X141301444Y-67106888D01*
X141502653Y-67144500D01*
X141502655Y-67144500D01*
X141707345Y-67144500D01*
X141707347Y-67144500D01*
X141908556Y-67106888D01*
X142020835Y-67063389D01*
X142091580Y-67057433D01*
X142154317Y-67090669D01*
X142155447Y-67091786D01*
X143224089Y-68160428D01*
X143240476Y-68180606D01*
X143245578Y-68188416D01*
X143248242Y-68190489D01*
X143271813Y-68208835D01*
X143277657Y-68213996D01*
X143280103Y-68216442D01*
X143286344Y-68220898D01*
X143296987Y-68228498D01*
X143299074Y-68230054D01*
X143331653Y-68255410D01*
X143338944Y-68261085D01*
X143338946Y-68261085D01*
X143345480Y-68264621D01*
X143352147Y-68267880D01*
X143352152Y-68267884D01*
X143383525Y-68277224D01*
X143400583Y-68282303D01*
X143403065Y-68283097D01*
X143450844Y-68299500D01*
X143450851Y-68299500D01*
X143458191Y-68300725D01*
X143465542Y-68301641D01*
X143465544Y-68301642D01*
X143465545Y-68301641D01*
X143465546Y-68301642D01*
X143479291Y-68301073D01*
X143516034Y-68299553D01*
X143518629Y-68299500D01*
X150445166Y-68299500D01*
X150471022Y-68302181D01*
X150480147Y-68304095D01*
X150513134Y-68299983D01*
X150520923Y-68299500D01*
X150524374Y-68299500D01*
X150524377Y-68299500D01*
X150544840Y-68296084D01*
X150547400Y-68295712D01*
X150569184Y-68292996D01*
X150597551Y-68289461D01*
X150597555Y-68289458D01*
X150604694Y-68287333D01*
X150611696Y-68284929D01*
X150611698Y-68284929D01*
X150649223Y-68264621D01*
X150656132Y-68260882D01*
X150658429Y-68259698D01*
X150703840Y-68237499D01*
X150703845Y-68237493D01*
X150709887Y-68233179D01*
X150715744Y-68228621D01*
X150715749Y-68228619D01*
X150749990Y-68191421D01*
X150751749Y-68189588D01*
X151345431Y-67595905D01*
X151365609Y-67579520D01*
X151373416Y-67574421D01*
X151393843Y-67548174D01*
X151398999Y-67542337D01*
X151401442Y-67539896D01*
X151413521Y-67522976D01*
X151415015Y-67520972D01*
X151446085Y-67481056D01*
X151446088Y-67481045D01*
X151449627Y-67474506D01*
X151452884Y-67467847D01*
X151467312Y-67419381D01*
X151468083Y-67416975D01*
X151484500Y-67369156D01*
X151484500Y-67369149D01*
X151485724Y-67361810D01*
X151486642Y-67354452D01*
X151484554Y-67303973D01*
X151484500Y-67301369D01*
X151484500Y-63803834D01*
X151487182Y-63777974D01*
X151489095Y-63768853D01*
X151484983Y-63735866D01*
X151484500Y-63728076D01*
X151484500Y-63724627D01*
X151484500Y-63724623D01*
X151481081Y-63704138D01*
X151480712Y-63701602D01*
X151480299Y-63698287D01*
X151474461Y-63651449D01*
X151474459Y-63651446D01*
X151472343Y-63644335D01*
X151469929Y-63637304D01*
X151469929Y-63637302D01*
X151445861Y-63592830D01*
X151444704Y-63590583D01*
X151422499Y-63545161D01*
X151422495Y-63545157D01*
X151418158Y-63539083D01*
X151413620Y-63533252D01*
X151376419Y-63499006D01*
X151374564Y-63497226D01*
X151091190Y-63213852D01*
X151057164Y-63151540D01*
X151054285Y-63124757D01*
X151054285Y-63118999D01*
X151035228Y-62974247D01*
X151035228Y-62974246D01*
X150979355Y-62839358D01*
X150890474Y-62723526D01*
X150890472Y-62723524D01*
X150890471Y-62723523D01*
X150774649Y-62634649D01*
X150774641Y-62634644D01*
X150639752Y-62578771D01*
X150495000Y-62559715D01*
X150350247Y-62578771D01*
X150282801Y-62606708D01*
X150215358Y-62634645D01*
X150215357Y-62634646D01*
X150215356Y-62634646D01*
X150099526Y-62723526D01*
X150010646Y-62839356D01*
X150010645Y-62839358D01*
X149982708Y-62906802D01*
X149954771Y-62974247D01*
X149935715Y-63118999D01*
X149935715Y-63119000D01*
X149954771Y-63263752D01*
X150010644Y-63398641D01*
X150010649Y-63398649D01*
X150099525Y-63514474D01*
X150201682Y-63592862D01*
X150215357Y-63603355D01*
X150350246Y-63659228D01*
X150495000Y-63678285D01*
X150500757Y-63678285D01*
X150568878Y-63698287D01*
X150589852Y-63715190D01*
X150738595Y-63863933D01*
X150772621Y-63926245D01*
X150775500Y-63953028D01*
X150775500Y-64916088D01*
X150755498Y-64984209D01*
X150701842Y-65030702D01*
X150631568Y-65040806D01*
X150566988Y-65011312D01*
X150531445Y-64960122D01*
X150525445Y-64944037D01*
X150525444Y-64944034D01*
X150437904Y-64827095D01*
X150320965Y-64739555D01*
X150184093Y-64688505D01*
X150123597Y-64682000D01*
X149479000Y-64682000D01*
X149479000Y-65606325D01*
X149367315Y-65555320D01*
X149260763Y-65540000D01*
X149189237Y-65540000D01*
X149082685Y-65555320D01*
X148971000Y-65606325D01*
X148971000Y-64682000D01*
X148326402Y-64682000D01*
X148265906Y-64688505D01*
X148129035Y-64739555D01*
X148129034Y-64739555D01*
X148012095Y-64827095D01*
X147924555Y-64944034D01*
X147924555Y-64944035D01*
X147873505Y-65080906D01*
X147867000Y-65141402D01*
X147867000Y-65400145D01*
X147846998Y-65468266D01*
X147793342Y-65514759D01*
X147723068Y-65524863D01*
X147658488Y-65495369D01*
X147631630Y-65460723D01*
X147631155Y-65461018D01*
X147628360Y-65456505D01*
X147628211Y-65456312D01*
X147628087Y-65456063D01*
X147504733Y-65292715D01*
X147353463Y-65154814D01*
X147179433Y-65047059D01*
X147179428Y-65047057D01*
X147179427Y-65047056D01*
X147127040Y-65026761D01*
X146988559Y-64973113D01*
X146988560Y-64973113D01*
X146988557Y-64973112D01*
X146988556Y-64973112D01*
X146787347Y-64935500D01*
X146582653Y-64935500D01*
X146381444Y-64973112D01*
X146381439Y-64973113D01*
X146190577Y-65047054D01*
X146190566Y-65047059D01*
X146016536Y-65154814D01*
X145865266Y-65292715D01*
X145741913Y-65456063D01*
X145650671Y-65639301D01*
X145594654Y-65836180D01*
X145575768Y-66039995D01*
X145575768Y-66040004D01*
X145594654Y-66243819D01*
X145608932Y-66294000D01*
X145650672Y-66440701D01*
X145741912Y-66623935D01*
X145762186Y-66650783D01*
X145865266Y-66787284D01*
X146016536Y-66925185D01*
X146190566Y-67032940D01*
X146190568Y-67032940D01*
X146190573Y-67032944D01*
X146381444Y-67106888D01*
X146582653Y-67144500D01*
X146582655Y-67144500D01*
X146787345Y-67144500D01*
X146787347Y-67144500D01*
X146988556Y-67106888D01*
X147179427Y-67032944D01*
X147353462Y-66925186D01*
X147504732Y-66787285D01*
X147506126Y-66785440D01*
X147585860Y-66679854D01*
X147628088Y-66623935D01*
X147628208Y-66623693D01*
X147628296Y-66623598D01*
X147631155Y-66618982D01*
X147632057Y-66619541D01*
X147676474Y-66571630D01*
X147745228Y-66553925D01*
X147812639Y-66576202D01*
X147857305Y-66631387D01*
X147867000Y-66679854D01*
X147867000Y-66938597D01*
X147873505Y-66999093D01*
X147924555Y-67135964D01*
X147924555Y-67135965D01*
X148012095Y-67252904D01*
X148129034Y-67340444D01*
X148145121Y-67346444D01*
X148201957Y-67388991D01*
X148226768Y-67455511D01*
X148211677Y-67524885D01*
X148161475Y-67575087D01*
X148101089Y-67590500D01*
X143709029Y-67590500D01*
X143640908Y-67570498D01*
X143619934Y-67553595D01*
X142659458Y-66593119D01*
X142625432Y-66530807D01*
X142630497Y-66459992D01*
X142635759Y-66447868D01*
X142639328Y-66440701D01*
X142695345Y-66243821D01*
X142702371Y-66168000D01*
X142714232Y-66040004D01*
X143035768Y-66040004D01*
X143054654Y-66243819D01*
X143068932Y-66294000D01*
X143110672Y-66440701D01*
X143201912Y-66623935D01*
X143222186Y-66650783D01*
X143325266Y-66787284D01*
X143476536Y-66925185D01*
X143650566Y-67032940D01*
X143650568Y-67032940D01*
X143650573Y-67032944D01*
X143841444Y-67106888D01*
X144042653Y-67144500D01*
X144042655Y-67144500D01*
X144247345Y-67144500D01*
X144247347Y-67144500D01*
X144448556Y-67106888D01*
X144639427Y-67032944D01*
X144813462Y-66925186D01*
X144964732Y-66787285D01*
X144966126Y-66785440D01*
X144997500Y-66743893D01*
X145088088Y-66623935D01*
X145179328Y-66440701D01*
X145235345Y-66243821D01*
X145242371Y-66168000D01*
X145254232Y-66040004D01*
X145254232Y-66039995D01*
X145235345Y-65836180D01*
X145199217Y-65709202D01*
X145179328Y-65639299D01*
X145088088Y-65456065D01*
X145045859Y-65400145D01*
X144964733Y-65292715D01*
X144813463Y-65154814D01*
X144639433Y-65047059D01*
X144639428Y-65047057D01*
X144639427Y-65047056D01*
X144587040Y-65026761D01*
X144448559Y-64973113D01*
X144448560Y-64973113D01*
X144448557Y-64973112D01*
X144448556Y-64973112D01*
X144247347Y-64935500D01*
X144042653Y-64935500D01*
X143841444Y-64973112D01*
X143841439Y-64973113D01*
X143650577Y-65047054D01*
X143650566Y-65047059D01*
X143476536Y-65154814D01*
X143325266Y-65292715D01*
X143201913Y-65456063D01*
X143110671Y-65639301D01*
X143054654Y-65836180D01*
X143035768Y-66039995D01*
X143035768Y-66040004D01*
X142714232Y-66040004D01*
X142714232Y-66039995D01*
X142695345Y-65836180D01*
X142659217Y-65709202D01*
X142639328Y-65639299D01*
X142548088Y-65456065D01*
X142505859Y-65400145D01*
X142424733Y-65292715D01*
X142273463Y-65154814D01*
X142099433Y-65047059D01*
X142099428Y-65047057D01*
X142099427Y-65047056D01*
X142047040Y-65026761D01*
X141908559Y-64973113D01*
X141908560Y-64973113D01*
X141908557Y-64973112D01*
X141908556Y-64973112D01*
X141707347Y-64935500D01*
X141558409Y-64935500D01*
X141490288Y-64915498D01*
X141443795Y-64861842D01*
X141433691Y-64791568D01*
X141463185Y-64726988D01*
X141469314Y-64720405D01*
X143215473Y-62974247D01*
X145194814Y-60994905D01*
X145257127Y-60960879D01*
X145283910Y-60958000D01*
X147371942Y-60958000D01*
X147440063Y-60978002D01*
X147471904Y-61007296D01*
X147493526Y-61035474D01*
X147609357Y-61124355D01*
X147744246Y-61180228D01*
X147889000Y-61199285D01*
X148033754Y-61180228D01*
X148168643Y-61124355D01*
X148284474Y-61035474D01*
X148373355Y-60919643D01*
X148429228Y-60784754D01*
X148448285Y-60640000D01*
X148429228Y-60495246D01*
X148373355Y-60360358D01*
X148284474Y-60244526D01*
X148284472Y-60244524D01*
X148284471Y-60244523D01*
X148168649Y-60155649D01*
X148168641Y-60155644D01*
X148033752Y-60099771D01*
X147889000Y-60080715D01*
X147744247Y-60099771D01*
X147676801Y-60127708D01*
X147609358Y-60155645D01*
X147609357Y-60155646D01*
X147609356Y-60155646D01*
X147493524Y-60244527D01*
X147471905Y-60272703D01*
X147414567Y-60314571D01*
X147371942Y-60322000D01*
X145536911Y-60322000D01*
X145468790Y-60301998D01*
X145422297Y-60248342D01*
X145412193Y-60178068D01*
X145441687Y-60113488D01*
X145447815Y-60106905D01*
X145632395Y-59922324D01*
X145694103Y-59860615D01*
X145698148Y-59856910D01*
X145701005Y-59854513D01*
X145728360Y-59831560D01*
X145747639Y-59798168D01*
X145748077Y-59797410D01*
X145751024Y-59792781D01*
X145773652Y-59760466D01*
X145773653Y-59760460D01*
X145776679Y-59753973D01*
X145781984Y-59741163D01*
X145784431Y-59734443D01*
X145784432Y-59734440D01*
X145791282Y-59695583D01*
X145792461Y-59690262D01*
X145802677Y-59652143D01*
X145800574Y-59628110D01*
X145799240Y-59612850D01*
X145799000Y-59607358D01*
X145799000Y-59257058D01*
X145819002Y-59188937D01*
X145848297Y-59157095D01*
X145876474Y-59135474D01*
X145965355Y-59019643D01*
X146021228Y-58884754D01*
X146040285Y-58740000D01*
X146021228Y-58595246D01*
X145965355Y-58460358D01*
X145876474Y-58344526D01*
X145876472Y-58344524D01*
X145876471Y-58344523D01*
X145760649Y-58255649D01*
X145760641Y-58255644D01*
X145625752Y-58199771D01*
X145481000Y-58180715D01*
X145336247Y-58199771D01*
X145268801Y-58227708D01*
X145201358Y-58255645D01*
X145201357Y-58255646D01*
X145201356Y-58255646D01*
X145085526Y-58344526D01*
X144996646Y-58460356D01*
X144996645Y-58460358D01*
X144968708Y-58527802D01*
X144940771Y-58595247D01*
X144921715Y-58739999D01*
X144921715Y-58740000D01*
X144940771Y-58884752D01*
X144996644Y-59019641D01*
X144996649Y-59019649D01*
X145085525Y-59135473D01*
X145113703Y-59157095D01*
X145155571Y-59214433D01*
X145163000Y-59257058D01*
X145163000Y-59440089D01*
X145142998Y-59508210D01*
X145126095Y-59529184D01*
X139652652Y-65002626D01*
X139590340Y-65036652D01*
X139519525Y-65031587D01*
X139518041Y-65031023D01*
X139517212Y-65030702D01*
X139497708Y-65023146D01*
X139368557Y-64973112D01*
X139299065Y-64960122D01*
X139167347Y-64935500D01*
X138962653Y-64935500D01*
X138761444Y-64973112D01*
X138761439Y-64973113D01*
X138570577Y-65047054D01*
X138570566Y-65047059D01*
X138396536Y-65154814D01*
X138245266Y-65292715D01*
X138121913Y-65456063D01*
X138030671Y-65639301D01*
X137974654Y-65836180D01*
X137955768Y-66039995D01*
X137955768Y-66040004D01*
X137974654Y-66243819D01*
X137988932Y-66294000D01*
X138030672Y-66440701D01*
X138121912Y-66623935D01*
X138149985Y-66661110D01*
X138247369Y-66790068D01*
X138272459Y-66856484D01*
X138257659Y-66925921D01*
X138207668Y-66976333D01*
X138146819Y-66992000D01*
X137978910Y-66992000D01*
X137910789Y-66971998D01*
X137889815Y-66955095D01*
X137562299Y-66627579D01*
X137528273Y-66565267D01*
X137533338Y-66494452D01*
X137538604Y-66482320D01*
X137549722Y-66459992D01*
X137559328Y-66440701D01*
X137615345Y-66243821D01*
X137622371Y-66168000D01*
X137634232Y-66040004D01*
X137634232Y-66039995D01*
X137615345Y-65836180D01*
X137579217Y-65709202D01*
X137559328Y-65639299D01*
X137468088Y-65456065D01*
X137425859Y-65400145D01*
X137344733Y-65292715D01*
X137193463Y-65154814D01*
X137019433Y-65047059D01*
X137019428Y-65047057D01*
X137019427Y-65047056D01*
X136967040Y-65026761D01*
X136828559Y-64973113D01*
X136828560Y-64973113D01*
X136828557Y-64973112D01*
X136828556Y-64973112D01*
X136627347Y-64935500D01*
X136422653Y-64935500D01*
X136221444Y-64973112D01*
X136221439Y-64973113D01*
X136030577Y-65047054D01*
X136030566Y-65047059D01*
X135856536Y-65154814D01*
X135705266Y-65292715D01*
X135581913Y-65456063D01*
X135490671Y-65639301D01*
X135434654Y-65836180D01*
X135415768Y-66039995D01*
X135415768Y-66040004D01*
X132915500Y-66040004D01*
X132915500Y-61087000D01*
X134568715Y-61087000D01*
X134587771Y-61231752D01*
X134643644Y-61366641D01*
X134643649Y-61366649D01*
X134732525Y-61482474D01*
X134848350Y-61571350D01*
X134848357Y-61571355D01*
X134983246Y-61627228D01*
X135128000Y-61646285D01*
X135272754Y-61627228D01*
X135407643Y-61571355D01*
X135523474Y-61482474D01*
X135612355Y-61366643D01*
X135668228Y-61231754D01*
X135687285Y-61087000D01*
X135687285Y-61086999D01*
X135687285Y-61081243D01*
X135707287Y-61013122D01*
X135724190Y-60992148D01*
X136225528Y-60490810D01*
X136740431Y-59975906D01*
X136760608Y-59959521D01*
X136768416Y-59954421D01*
X136788842Y-59928176D01*
X136794001Y-59922337D01*
X136796442Y-59919897D01*
X136808526Y-59902970D01*
X136810028Y-59900955D01*
X136841085Y-59861056D01*
X136841087Y-59861048D01*
X136844624Y-59854513D01*
X136847884Y-59847847D01*
X136852733Y-59831559D01*
X136862312Y-59799381D01*
X136863083Y-59796975D01*
X136879500Y-59749156D01*
X136879500Y-59749149D01*
X136880725Y-59741808D01*
X136881642Y-59734453D01*
X136879554Y-59683984D01*
X136879500Y-59681380D01*
X136879500Y-55929834D01*
X136882182Y-55903974D01*
X136884095Y-55894853D01*
X136879983Y-55861866D01*
X136879500Y-55854076D01*
X136879500Y-55850627D01*
X136879500Y-55850623D01*
X136876081Y-55830138D01*
X136875712Y-55827602D01*
X136874049Y-55814260D01*
X136869461Y-55777449D01*
X136869459Y-55777446D01*
X136867341Y-55770330D01*
X136864929Y-55763305D01*
X136864929Y-55763302D01*
X136840872Y-55718848D01*
X136839693Y-55716559D01*
X136817499Y-55671160D01*
X136817496Y-55671157D01*
X136813176Y-55665107D01*
X136808617Y-55659249D01*
X136796419Y-55648020D01*
X136771423Y-55625009D01*
X136769566Y-55623227D01*
X135790934Y-54644595D01*
X135756908Y-54582283D01*
X135761973Y-54511468D01*
X135804520Y-54454632D01*
X135871040Y-54429821D01*
X135880029Y-54429500D01*
X141575927Y-54429500D01*
X141582981Y-54429895D01*
X141622186Y-54434313D01*
X141680014Y-54423370D01*
X141682290Y-54422983D01*
X141740479Y-54414214D01*
X141740484Y-54414211D01*
X141748705Y-54411676D01*
X141756800Y-54408842D01*
X141756807Y-54408841D01*
X141808866Y-54381326D01*
X141810896Y-54380302D01*
X141863921Y-54354767D01*
X141863923Y-54354764D01*
X141871025Y-54349922D01*
X141877931Y-54344824D01*
X141877940Y-54344820D01*
X141919526Y-54303232D01*
X141921204Y-54301614D01*
X141964356Y-54261577D01*
X141964356Y-54261576D01*
X141970244Y-54254193D01*
X141970917Y-54254730D01*
X141980420Y-54242338D01*
X146115887Y-50106871D01*
X146178197Y-50072847D01*
X146188515Y-50071049D01*
X146194754Y-50070228D01*
X146329643Y-50014355D01*
X146334618Y-50010537D01*
X146400840Y-49984937D01*
X146411322Y-49984500D01*
X147925927Y-49984500D01*
X147932981Y-49984895D01*
X147972186Y-49989313D01*
X148030014Y-49978370D01*
X148032290Y-49977983D01*
X148090479Y-49969214D01*
X148090484Y-49969211D01*
X148098705Y-49966676D01*
X148106800Y-49963842D01*
X148106807Y-49963841D01*
X148158866Y-49936326D01*
X148160896Y-49935302D01*
X148213921Y-49909767D01*
X148213923Y-49909764D01*
X148221025Y-49904922D01*
X148227931Y-49899824D01*
X148227940Y-49899820D01*
X148269526Y-49858232D01*
X148271204Y-49856614D01*
X148314356Y-49816577D01*
X148314356Y-49816576D01*
X148320244Y-49809193D01*
X148320917Y-49809729D01*
X148330417Y-49797341D01*
X149503357Y-48624402D01*
X149565667Y-48590379D01*
X149592450Y-48587500D01*
X151311500Y-48587500D01*
X151379621Y-48607502D01*
X151426114Y-48661158D01*
X151437500Y-48713500D01*
X151437500Y-51702547D01*
X151417498Y-51770668D01*
X151400595Y-51791643D01*
X150575172Y-52617065D01*
X150569902Y-52621775D01*
X150539064Y-52646368D01*
X150505921Y-52694979D01*
X150504559Y-52696897D01*
X150469631Y-52744226D01*
X150465595Y-52751862D01*
X150461884Y-52759569D01*
X150444542Y-52815792D01*
X150443806Y-52818030D01*
X150424378Y-52873551D01*
X150422782Y-52881982D01*
X150421500Y-52890494D01*
X150421500Y-52949309D01*
X150421456Y-52951665D01*
X150419255Y-53010465D01*
X150420313Y-53019846D01*
X150419460Y-53019942D01*
X150421500Y-53035426D01*
X150421500Y-54961925D01*
X150421104Y-54968984D01*
X150416687Y-55008186D01*
X150416687Y-55008189D01*
X150427619Y-55065966D01*
X150428014Y-55068287D01*
X150436786Y-55126479D01*
X150439315Y-55134680D01*
X150442159Y-55142807D01*
X150469644Y-55194812D01*
X150470705Y-55196914D01*
X150496231Y-55249918D01*
X150501077Y-55257025D01*
X150506179Y-55263938D01*
X150506180Y-55263940D01*
X150547780Y-55305540D01*
X150549389Y-55307210D01*
X150589421Y-55350355D01*
X150596805Y-55356243D01*
X150596270Y-55356913D01*
X150608662Y-55366422D01*
X151019595Y-55777355D01*
X151053621Y-55839667D01*
X151056500Y-55866450D01*
X151056500Y-57042678D01*
X151036498Y-57110799D01*
X151030466Y-57119378D01*
X151026648Y-57124353D01*
X151026646Y-57124356D01*
X151026645Y-57124358D01*
X150998708Y-57191801D01*
X150970771Y-57259247D01*
X150951715Y-57403999D01*
X150951715Y-57404000D01*
X150970771Y-57548752D01*
X151026644Y-57683641D01*
X151026649Y-57683649D01*
X151115525Y-57799474D01*
X151200546Y-57864713D01*
X151231357Y-57888355D01*
X151366246Y-57944228D01*
X151511000Y-57963285D01*
X151655754Y-57944228D01*
X151790643Y-57888355D01*
X151906474Y-57799474D01*
X151995355Y-57683643D01*
X152051228Y-57548754D01*
X152070285Y-57404000D01*
X152051228Y-57259246D01*
X151995355Y-57124358D01*
X151991534Y-57119378D01*
X151965936Y-57053157D01*
X151965500Y-57042678D01*
X151965500Y-55655080D01*
X151965896Y-55648020D01*
X151970314Y-55608814D01*
X151959373Y-55550994D01*
X151958980Y-55548681D01*
X151957833Y-55541073D01*
X151950214Y-55490521D01*
X151950213Y-55490518D01*
X151947689Y-55482337D01*
X151944842Y-55474203D01*
X151944841Y-55474193D01*
X151917334Y-55422147D01*
X151916320Y-55420142D01*
X151897686Y-55381447D01*
X151890769Y-55367082D01*
X151885914Y-55359962D01*
X151880822Y-55353063D01*
X151880821Y-55353061D01*
X151839216Y-55311456D01*
X151837608Y-55309786D01*
X151797577Y-55266643D01*
X151790196Y-55260757D01*
X151790729Y-55260088D01*
X151778339Y-55250579D01*
X151367404Y-54839643D01*
X151333379Y-54777331D01*
X151330500Y-54750548D01*
X151330500Y-53199449D01*
X151350502Y-53131328D01*
X151367400Y-53110359D01*
X152192840Y-52284919D01*
X152198084Y-52280232D01*
X152228936Y-52255631D01*
X152262101Y-52206985D01*
X152263390Y-52205166D01*
X152298369Y-52157773D01*
X152298370Y-52157771D01*
X152302387Y-52150171D01*
X152306112Y-52142432D01*
X152306116Y-52142428D01*
X152323459Y-52086200D01*
X152324185Y-52083991D01*
X152343621Y-52028451D01*
X152343621Y-52028445D01*
X152345217Y-52020009D01*
X152346500Y-52011503D01*
X152346500Y-51952689D01*
X152346544Y-51950333D01*
X152348744Y-51891535D01*
X152347687Y-51882152D01*
X152348537Y-51882056D01*
X152346500Y-51866572D01*
X152346500Y-48494321D01*
X152366502Y-48426200D01*
X152372534Y-48417622D01*
X152376355Y-48412643D01*
X152432228Y-48277754D01*
X152451285Y-48133000D01*
X152432228Y-47988246D01*
X152376355Y-47853358D01*
X152287474Y-47737526D01*
X152287472Y-47737524D01*
X152287471Y-47737523D01*
X152171649Y-47648649D01*
X152171641Y-47648644D01*
X152036752Y-47592771D01*
X151892000Y-47573715D01*
X151747247Y-47592771D01*
X151679802Y-47620708D01*
X151612358Y-47648645D01*
X151612356Y-47648646D01*
X151612357Y-47648646D01*
X151612351Y-47648649D01*
X151607383Y-47652462D01*
X151541163Y-47678063D01*
X151530679Y-47678500D01*
X149381072Y-47678500D01*
X149374015Y-47678104D01*
X149334814Y-47673687D01*
X149334813Y-47673687D01*
X149334812Y-47673687D01*
X149276986Y-47684627D01*
X149274666Y-47685021D01*
X149216524Y-47693785D01*
X149208271Y-47696330D01*
X149200194Y-47699157D01*
X149148168Y-47726653D01*
X149146068Y-47727713D01*
X149093082Y-47753231D01*
X149085967Y-47758082D01*
X149079059Y-47763179D01*
X149037468Y-47804770D01*
X149035773Y-47806403D01*
X148992644Y-47846422D01*
X148986757Y-47853805D01*
X148986088Y-47853272D01*
X148976581Y-47865657D01*
X147803644Y-49038595D01*
X147741332Y-49072620D01*
X147714549Y-49075500D01*
X146411322Y-49075500D01*
X146343201Y-49055498D01*
X146334619Y-49049463D01*
X146329644Y-49045646D01*
X146329645Y-49045646D01*
X146194752Y-48989771D01*
X146050000Y-48970715D01*
X145905247Y-48989771D01*
X145837801Y-49017708D01*
X145770358Y-49045645D01*
X145770357Y-49045646D01*
X145770356Y-49045646D01*
X145654526Y-49134526D01*
X145565646Y-49250356D01*
X145565645Y-49250358D01*
X145509772Y-49385246D01*
X145509772Y-49385247D01*
X145508953Y-49391467D01*
X145480228Y-49456393D01*
X145473126Y-49464112D01*
X141453644Y-53483595D01*
X141391332Y-53517621D01*
X141364549Y-53520500D01*
X135616322Y-53520500D01*
X135548201Y-53500498D01*
X135539619Y-53494463D01*
X135534644Y-53490646D01*
X135534645Y-53490646D01*
X135399752Y-53434771D01*
X135255000Y-53415715D01*
X135110247Y-53434771D01*
X135042802Y-53462708D01*
X134975358Y-53490645D01*
X134975357Y-53490646D01*
X134975356Y-53490646D01*
X134859526Y-53579526D01*
X134770646Y-53695356D01*
X134770645Y-53695358D01*
X134742708Y-53762802D01*
X134714771Y-53830247D01*
X134695715Y-53974999D01*
X134695715Y-53975000D01*
X134714771Y-54119752D01*
X134770644Y-54254641D01*
X134770649Y-54254649D01*
X134859526Y-54370475D01*
X134863595Y-54374544D01*
X134897621Y-54436856D01*
X134900500Y-54463639D01*
X134900500Y-54560165D01*
X134897818Y-54586022D01*
X134895904Y-54595146D01*
X134897956Y-54611606D01*
X134900016Y-54628135D01*
X134900500Y-54635922D01*
X134900500Y-54639384D01*
X134903914Y-54659847D01*
X134904289Y-54662420D01*
X134910538Y-54712548D01*
X134912658Y-54719670D01*
X134915071Y-54726699D01*
X134939117Y-54771131D01*
X134940308Y-54773445D01*
X134962501Y-54818840D01*
X134966811Y-54824878D01*
X134971383Y-54830751D01*
X135008566Y-54864981D01*
X135010421Y-54866760D01*
X135617853Y-55474192D01*
X136133595Y-55989934D01*
X136167621Y-56052246D01*
X136170500Y-56079029D01*
X136170500Y-59490970D01*
X136150498Y-59559091D01*
X136133595Y-59580065D01*
X135222850Y-60490810D01*
X135160538Y-60524836D01*
X135133755Y-60527715D01*
X135128000Y-60527715D01*
X134983247Y-60546771D01*
X134915801Y-60574708D01*
X134848358Y-60602645D01*
X134848357Y-60602646D01*
X134848356Y-60602646D01*
X134732526Y-60691526D01*
X134643646Y-60807356D01*
X134643645Y-60807358D01*
X134615708Y-60874802D01*
X134587771Y-60942247D01*
X134568715Y-61086999D01*
X134568715Y-61087000D01*
X132915500Y-61087000D01*
X132915500Y-57375000D01*
X133834561Y-57375000D01*
X133854254Y-57549777D01*
X133854255Y-57549779D01*
X133912344Y-57715789D01*
X133912345Y-57715791D01*
X134005918Y-57864713D01*
X134130286Y-57989081D01*
X134256172Y-58068179D01*
X134279211Y-58082656D01*
X134445223Y-58140746D01*
X134576166Y-58155500D01*
X134663834Y-58155500D01*
X134794777Y-58140746D01*
X134960789Y-58082656D01*
X135109713Y-57989081D01*
X135234081Y-57864713D01*
X135327656Y-57715789D01*
X135385746Y-57549777D01*
X135405439Y-57375000D01*
X135385746Y-57200223D01*
X135327656Y-57034211D01*
X135313179Y-57011172D01*
X135234081Y-56885286D01*
X135109713Y-56760918D01*
X134960791Y-56667345D01*
X134960789Y-56667344D01*
X134794780Y-56609255D01*
X134794779Y-56609254D01*
X134794777Y-56609254D01*
X134663834Y-56594500D01*
X134576166Y-56594500D01*
X134445223Y-56609254D01*
X134445220Y-56609254D01*
X134445219Y-56609255D01*
X134279210Y-56667344D01*
X134279208Y-56667345D01*
X134130286Y-56760918D01*
X134005918Y-56885286D01*
X133912345Y-57034208D01*
X133912344Y-57034210D01*
X133880800Y-57124358D01*
X133854254Y-57200223D01*
X133834561Y-57375000D01*
X132915500Y-57375000D01*
X132915500Y-50575000D01*
X133834561Y-50575000D01*
X133854254Y-50749777D01*
X133854255Y-50749779D01*
X133912344Y-50915789D01*
X133912345Y-50915791D01*
X134005918Y-51064713D01*
X134130286Y-51189081D01*
X134256172Y-51268179D01*
X134279211Y-51282656D01*
X134445223Y-51340746D01*
X134576166Y-51355500D01*
X134663834Y-51355500D01*
X134794777Y-51340746D01*
X134960789Y-51282656D01*
X135109713Y-51189081D01*
X135234081Y-51064713D01*
X135327656Y-50915789D01*
X135385746Y-50749777D01*
X135405439Y-50575000D01*
X135385746Y-50400223D01*
X135327656Y-50234211D01*
X135313179Y-50211172D01*
X135234081Y-50085286D01*
X135109713Y-49960918D01*
X134960791Y-49867345D01*
X134960789Y-49867344D01*
X134794780Y-49809255D01*
X134794779Y-49809254D01*
X134794777Y-49809254D01*
X134663834Y-49794500D01*
X134576166Y-49794500D01*
X134445223Y-49809254D01*
X134445220Y-49809254D01*
X134445219Y-49809255D01*
X134279210Y-49867344D01*
X134279208Y-49867345D01*
X134130286Y-49960918D01*
X134005918Y-50085286D01*
X133912345Y-50234208D01*
X133912344Y-50234210D01*
X133912344Y-50234211D01*
X133854254Y-50400223D01*
X133834561Y-50575000D01*
X132915500Y-50575000D01*
X132915500Y-44069137D01*
X132935502Y-44001016D01*
X132989158Y-43954523D01*
X133059432Y-43944419D01*
X133124012Y-43973913D01*
X133162075Y-44032561D01*
X133174223Y-44072608D01*
X133174225Y-44072614D01*
X133267824Y-44247724D01*
X133393788Y-44401211D01*
X133547275Y-44527175D01*
X133722388Y-44620775D01*
X133856000Y-44661305D01*
X133856000Y-43844650D01*
X133884457Y-43890610D01*
X133973962Y-43958201D01*
X134081840Y-43988895D01*
X134193521Y-43978546D01*
X134293922Y-43928552D01*
X134364000Y-43851681D01*
X134364000Y-44661305D01*
X134497611Y-44620775D01*
X134672724Y-44527175D01*
X134826211Y-44401211D01*
X134952175Y-44247724D01*
X135045774Y-44072614D01*
X135045780Y-44072599D01*
X135103414Y-43882606D01*
X135103416Y-43882594D01*
X135117999Y-43734526D01*
X135118000Y-43734508D01*
X135118000Y-43333934D01*
X135138002Y-43265813D01*
X135191658Y-43219320D01*
X135261932Y-43209216D01*
X135290383Y-43216782D01*
X135296770Y-43219310D01*
X135296771Y-43219310D01*
X135296776Y-43219313D01*
X135457191Y-43260500D01*
X135457193Y-43260500D01*
X135581238Y-43260500D01*
X135581242Y-43260500D01*
X135628734Y-43254500D01*
X135704307Y-43244954D01*
X135704307Y-43244953D01*
X135704312Y-43244953D01*
X135858299Y-43183985D01*
X135992287Y-43086637D01*
X136097856Y-42959026D01*
X136168373Y-42809171D01*
X136168374Y-42809166D01*
X136199405Y-42646492D01*
X136199406Y-42646481D01*
X136192422Y-42535473D01*
X136189007Y-42481195D01*
X136137828Y-42323683D01*
X136110807Y-42281105D01*
X136049087Y-42183849D01*
X135928355Y-42070473D01*
X135840682Y-42022275D01*
X135783224Y-41990687D01*
X135622809Y-41949500D01*
X135498758Y-41949500D01*
X135498755Y-41949500D01*
X135498743Y-41949501D01*
X135375692Y-41965045D01*
X135375690Y-41965046D01*
X135221700Y-42026015D01*
X135221693Y-42026019D01*
X135146011Y-42081005D01*
X135079144Y-42104864D01*
X135009992Y-42088783D01*
X134960829Y-42038465D01*
X134952175Y-42022275D01*
X134826211Y-41868788D01*
X134672724Y-41742824D01*
X134497612Y-41649224D01*
X134497610Y-41649223D01*
X134364000Y-41608692D01*
X134364000Y-42425349D01*
X134335543Y-42379390D01*
X134246038Y-42311799D01*
X134138160Y-42281105D01*
X134026479Y-42291454D01*
X133926078Y-42341448D01*
X133856000Y-42418318D01*
X133856000Y-41608693D01*
X133855999Y-41608692D01*
X133722389Y-41649223D01*
X133722387Y-41649224D01*
X133547275Y-41742824D01*
X133393788Y-41868788D01*
X133267824Y-42022275D01*
X133174225Y-42197385D01*
X133174219Y-42197401D01*
X133162074Y-42237438D01*
X133123159Y-42296819D01*
X133058317Y-42325735D01*
X132988136Y-42315004D01*
X132934898Y-42268033D01*
X132915500Y-42200862D01*
X132915500Y-41275000D01*
X135965715Y-41275000D01*
X135984771Y-41419752D01*
X136040644Y-41554641D01*
X136040649Y-41554649D01*
X136129525Y-41670474D01*
X136232516Y-41749502D01*
X136245357Y-41759355D01*
X136380246Y-41815228D01*
X136525000Y-41834285D01*
X136669754Y-41815228D01*
X136804643Y-41759355D01*
X136809618Y-41755537D01*
X136875840Y-41729937D01*
X136886322Y-41729500D01*
X139119500Y-41729500D01*
X139187621Y-41749502D01*
X139234114Y-41803158D01*
X139245500Y-41855500D01*
X139245500Y-42515925D01*
X139245104Y-42522984D01*
X139240687Y-42562186D01*
X139240687Y-42562189D01*
X139251619Y-42619966D01*
X139252014Y-42622287D01*
X139260786Y-42680479D01*
X139263315Y-42688680D01*
X139266159Y-42696807D01*
X139293644Y-42748812D01*
X139294705Y-42750914D01*
X139320231Y-42803918D01*
X139325077Y-42811025D01*
X139330179Y-42817938D01*
X139330180Y-42817940D01*
X139371780Y-42859540D01*
X139373389Y-42861210D01*
X139413421Y-42904355D01*
X139420805Y-42910243D01*
X139420270Y-42910913D01*
X139432662Y-42920422D01*
X141898064Y-45385824D01*
X141902767Y-45391086D01*
X141927366Y-45421933D01*
X141927370Y-45421937D01*
X141975996Y-45455089D01*
X141977917Y-45456453D01*
X142025228Y-45491370D01*
X142032831Y-45495388D01*
X142040567Y-45499114D01*
X142040570Y-45499115D01*
X142040572Y-45499116D01*
X142096821Y-45516466D01*
X142099001Y-45517183D01*
X142154549Y-45536620D01*
X142163014Y-45538222D01*
X142171494Y-45539500D01*
X142171495Y-45539500D01*
X142230336Y-45539500D01*
X142232692Y-45539544D01*
X142251156Y-45540234D01*
X142291462Y-45541743D01*
X142291462Y-45541742D01*
X142291464Y-45541743D01*
X142300849Y-45540686D01*
X142300945Y-45541538D01*
X142316423Y-45539500D01*
X143148678Y-45539500D01*
X143216799Y-45559502D01*
X143225381Y-45565537D01*
X143230357Y-45569355D01*
X143365246Y-45625228D01*
X143510000Y-45644285D01*
X143654754Y-45625228D01*
X143789643Y-45569355D01*
X143905474Y-45480474D01*
X143994355Y-45364643D01*
X144050228Y-45229754D01*
X144069285Y-45085000D01*
X144050228Y-44940246D01*
X143994355Y-44805358D01*
X143905474Y-44689526D01*
X143905472Y-44689524D01*
X143905471Y-44689523D01*
X143789649Y-44600649D01*
X143789641Y-44600644D01*
X143750133Y-44584279D01*
X143654754Y-44544772D01*
X143641531Y-44543031D01*
X143603052Y-44537965D01*
X143538126Y-44509242D01*
X143499035Y-44449976D01*
X143498190Y-44378985D01*
X143522101Y-44333109D01*
X143592175Y-44247724D01*
X143685774Y-44072614D01*
X143685780Y-44072599D01*
X143743414Y-43882606D01*
X143743416Y-43882594D01*
X143757999Y-43734526D01*
X143758000Y-43734508D01*
X143758000Y-43389000D01*
X143050000Y-43389000D01*
X143050000Y-42881000D01*
X143758000Y-42881000D01*
X143758000Y-42535491D01*
X143757999Y-42535473D01*
X143743416Y-42387405D01*
X143743414Y-42387393D01*
X143685780Y-42197400D01*
X143685774Y-42197385D01*
X143592175Y-42022275D01*
X143502495Y-41913000D01*
X144604821Y-41913000D01*
X144671907Y-42094140D01*
X144777658Y-42263802D01*
X144777661Y-42263805D01*
X144915403Y-42408708D01*
X145079487Y-42522915D01*
X145263210Y-42601755D01*
X145455000Y-42641169D01*
X145455000Y-41918701D01*
X145531912Y-41934000D01*
X145886088Y-41934000D01*
X145963000Y-41918701D01*
X145963000Y-42636492D01*
X146057899Y-42626842D01*
X146248652Y-42566993D01*
X146423451Y-42469970D01*
X146423457Y-42469966D01*
X146575140Y-42339751D01*
X146575141Y-42339749D01*
X146697521Y-42181648D01*
X146785562Y-42002163D01*
X146785563Y-42002161D01*
X146808650Y-41913000D01*
X149604821Y-41913000D01*
X149671907Y-42094140D01*
X149777658Y-42263802D01*
X149777661Y-42263805D01*
X149915403Y-42408708D01*
X150079487Y-42522915D01*
X150263210Y-42601755D01*
X150455000Y-42641169D01*
X150455000Y-41918701D01*
X150531912Y-41934000D01*
X150886088Y-41934000D01*
X150963000Y-41918701D01*
X150963000Y-42636492D01*
X151057899Y-42626842D01*
X151248652Y-42566993D01*
X151423451Y-42469970D01*
X151423457Y-42469966D01*
X151575140Y-42339751D01*
X151575141Y-42339749D01*
X151697521Y-42181648D01*
X151785562Y-42002163D01*
X151785563Y-42002161D01*
X151808650Y-41913000D01*
X150973850Y-41913000D01*
X151057264Y-41857264D01*
X151118045Y-41766300D01*
X151139388Y-41659000D01*
X151118045Y-41551700D01*
X151057264Y-41460736D01*
X150973850Y-41405000D01*
X151813179Y-41405000D01*
X151746092Y-41223859D01*
X151640341Y-41054197D01*
X151640338Y-41054194D01*
X151502596Y-40909291D01*
X151338512Y-40795084D01*
X151154794Y-40716246D01*
X150963000Y-40676830D01*
X150963000Y-41399298D01*
X150886088Y-41384000D01*
X150531912Y-41384000D01*
X150455000Y-41399298D01*
X150455000Y-40681505D01*
X150454999Y-40681505D01*
X150360110Y-40691155D01*
X150360105Y-40691156D01*
X150169349Y-40751005D01*
X150169347Y-40751006D01*
X149994548Y-40848029D01*
X149994542Y-40848033D01*
X149842859Y-40978248D01*
X149842858Y-40978250D01*
X149720478Y-41136351D01*
X149632437Y-41315836D01*
X149632436Y-41315838D01*
X149609350Y-41405000D01*
X150444150Y-41405000D01*
X150360736Y-41460736D01*
X150299955Y-41551700D01*
X150278612Y-41659000D01*
X150299955Y-41766300D01*
X150360736Y-41857264D01*
X150444150Y-41913000D01*
X149604821Y-41913000D01*
X146808650Y-41913000D01*
X145973850Y-41913000D01*
X146057264Y-41857264D01*
X146118045Y-41766300D01*
X146139388Y-41659000D01*
X146118045Y-41551700D01*
X146057264Y-41460736D01*
X145973850Y-41405000D01*
X146813179Y-41405000D01*
X146746092Y-41223859D01*
X146640341Y-41054197D01*
X146640338Y-41054194D01*
X146502596Y-40909291D01*
X146338512Y-40795084D01*
X146154794Y-40716246D01*
X145963000Y-40676830D01*
X145963000Y-41399298D01*
X145886088Y-41384000D01*
X145531912Y-41384000D01*
X145455000Y-41399298D01*
X145455000Y-40681505D01*
X145454999Y-40681505D01*
X145360110Y-40691155D01*
X145360105Y-40691156D01*
X145169349Y-40751005D01*
X145169347Y-40751006D01*
X144994548Y-40848029D01*
X144994542Y-40848033D01*
X144842859Y-40978248D01*
X144842858Y-40978250D01*
X144720478Y-41136351D01*
X144632437Y-41315836D01*
X144632436Y-41315838D01*
X144609350Y-41405000D01*
X145444150Y-41405000D01*
X145360736Y-41460736D01*
X145299955Y-41551700D01*
X145278612Y-41659000D01*
X145299955Y-41766300D01*
X145360736Y-41857264D01*
X145444150Y-41913000D01*
X144604821Y-41913000D01*
X143502495Y-41913000D01*
X143466211Y-41868788D01*
X143312724Y-41742824D01*
X143137612Y-41649224D01*
X143137610Y-41649223D01*
X143004000Y-41608692D01*
X143004000Y-42425349D01*
X142975543Y-42379390D01*
X142886038Y-42311799D01*
X142778160Y-42281105D01*
X142666479Y-42291454D01*
X142566078Y-42341448D01*
X142496000Y-42418318D01*
X142496000Y-41608692D01*
X142495999Y-41608692D01*
X142362389Y-41649223D01*
X142362387Y-41649224D01*
X142187275Y-41742824D01*
X142033788Y-41868788D01*
X141907823Y-42022276D01*
X141901518Y-42034072D01*
X141851763Y-42084718D01*
X141782525Y-42100424D01*
X141715788Y-42076204D01*
X141712646Y-42073591D01*
X141708356Y-42070474D01*
X141642141Y-42034072D01*
X141563224Y-41990687D01*
X141402809Y-41949500D01*
X141278758Y-41949500D01*
X141278755Y-41949500D01*
X141278743Y-41949501D01*
X141155692Y-41965045D01*
X141155690Y-41965046D01*
X141001700Y-42026015D01*
X141001697Y-42026016D01*
X140867714Y-42123361D01*
X140867713Y-42123362D01*
X140762143Y-42250974D01*
X140691627Y-42400827D01*
X140691625Y-42400833D01*
X140660593Y-42563515D01*
X140660398Y-42566615D01*
X140659564Y-42568910D01*
X140659108Y-42571301D01*
X140658722Y-42571227D01*
X140636154Y-42633344D01*
X140579683Y-42676373D01*
X140508913Y-42682040D01*
X140446313Y-42648547D01*
X140445619Y-42647859D01*
X140191404Y-42393643D01*
X140157379Y-42331331D01*
X140154500Y-42304548D01*
X140154500Y-41954197D01*
X140174502Y-41886076D01*
X140228158Y-41839583D01*
X140296945Y-41829275D01*
X140335000Y-41834285D01*
X140479754Y-41815228D01*
X140614643Y-41759355D01*
X140730474Y-41670474D01*
X140819355Y-41554643D01*
X140875228Y-41419754D01*
X140894285Y-41275000D01*
X140875228Y-41130246D01*
X140819355Y-40995358D01*
X140730474Y-40879526D01*
X140730472Y-40879524D01*
X140730471Y-40879523D01*
X140614649Y-40790649D01*
X140614641Y-40790644D01*
X140479752Y-40734771D01*
X140335000Y-40715715D01*
X140190247Y-40734771D01*
X140122801Y-40762708D01*
X140055358Y-40790645D01*
X140055356Y-40790646D01*
X140055357Y-40790646D01*
X140055351Y-40790649D01*
X140050383Y-40794462D01*
X139984163Y-40820063D01*
X139973679Y-40820500D01*
X139765409Y-40820500D01*
X139737371Y-40817341D01*
X139734349Y-40816651D01*
X139734348Y-40816651D01*
X139725141Y-40817341D01*
X139685335Y-40820324D01*
X139680626Y-40820500D01*
X136886322Y-40820500D01*
X136818201Y-40800498D01*
X136809619Y-40794463D01*
X136804644Y-40790646D01*
X136804645Y-40790646D01*
X136804640Y-40790644D01*
X136669754Y-40734772D01*
X136669752Y-40734771D01*
X136525000Y-40715715D01*
X136380247Y-40734771D01*
X136312802Y-40762708D01*
X136245358Y-40790645D01*
X136245357Y-40790646D01*
X136245356Y-40790646D01*
X136129526Y-40879526D01*
X136040646Y-40995356D01*
X136040645Y-40995358D01*
X136016274Y-41054194D01*
X135984771Y-41130247D01*
X135965715Y-41274999D01*
X135965715Y-41275000D01*
X132915500Y-41275000D01*
X132915500Y-39639137D01*
X132935502Y-39571016D01*
X132989158Y-39524523D01*
X133059432Y-39514419D01*
X133124012Y-39543913D01*
X133162075Y-39602561D01*
X133174223Y-39642608D01*
X133174225Y-39642614D01*
X133267824Y-39817724D01*
X133393788Y-39971211D01*
X133547275Y-40097175D01*
X133722388Y-40190775D01*
X133856000Y-40231305D01*
X133856000Y-39414650D01*
X133884457Y-39460610D01*
X133973962Y-39528201D01*
X134081840Y-39558895D01*
X134193521Y-39548546D01*
X134293922Y-39498552D01*
X134364000Y-39421681D01*
X134364000Y-40231305D01*
X134497611Y-40190775D01*
X134672724Y-40097175D01*
X134826211Y-39971211D01*
X134952175Y-39817724D01*
X135045774Y-39642614D01*
X135045780Y-39642599D01*
X135103414Y-39452606D01*
X135103416Y-39452594D01*
X135117999Y-39304526D01*
X135118000Y-39304508D01*
X135118000Y-39209000D01*
X134410000Y-39209000D01*
X134410000Y-38701000D01*
X135118000Y-38701000D01*
X135118000Y-38605491D01*
X135117999Y-38605473D01*
X135103416Y-38457405D01*
X135103414Y-38457393D01*
X135045780Y-38267400D01*
X135045774Y-38267385D01*
X134952175Y-38092275D01*
X134826211Y-37938788D01*
X134765421Y-37888899D01*
X134725453Y-37830222D01*
X134723552Y-37759251D01*
X134760323Y-37698519D01*
X134824091Y-37667307D01*
X134845355Y-37665500D01*
X142014645Y-37665500D01*
X142082766Y-37685502D01*
G37*
G04 #@! TD.AperFunction*
G04 #@! TD*
M02*
