M48
; DRILL file {KiCad 7.0.5-7.0.5~ubuntu22.04.1} date Thu Jul 13 11:12:20 2023
; FORMAT={-:-/ absolute / metric / decimal}
; #@! TF.CreationDate,2023-07-13T11:12:20+08:00
; #@! TF.GenerationSoftware,Kicad,Pcbnew,7.0.5-7.0.5~ubuntu22.04.1
; #@! TF.FileFunction,MixedPlating,1,2
FMAT,2
METRIC
; #@! TA.AperFunction,Plated,PTH,ViaDrill
T1C0.300
; #@! TA.AperFunction,Plated,PTH,ComponentDrill
T2C0.500
; #@! TA.AperFunction,Plated,PTH,ComponentDrill
T3C0.550
; #@! TA.AperFunction,Plated,PTH,ComponentDrill
T4C0.600
; #@! TA.AperFunction,Plated,PTH,ComponentDrill
T5C1.000
; #@! TA.AperFunction,NonPlated,NPTH,ComponentDrill
T6C0.650
; #@! TA.AperFunction,NonPlated,NPTH,ComponentDrill
T7C0.900
%
G90
G05
T1
X134.62Y-45.72
X135.128Y-61.087
X135.255Y-53.975
X135.89Y-48.641
X136.525Y-41.275
X136.906Y-46.99
X137.795Y-64.135
X138.43Y-60.96
X139.7Y-50.165
X140.335Y-41.275
X140.97Y-59.055
X140.97Y-61.595
X143.129Y-47.752
X143.51Y-45.085
X144.78Y-49.53
X145.415Y-53.34
X145.415Y-64.135
X145.481Y-58.74
X146.05Y-49.53
X146.939Y-40.259
X147.828Y-48.133
X147.889Y-60.64
X147.955Y-54.61
X149.606Y-49.53
X149.987Y-43.942
X150.495Y-63.119
X151.511Y-57.404
X151.765Y-53.975
X151.765Y-58.42
X151.892Y-48.133
T5
X136.525Y-66.04
X139.065Y-66.04
X141.605Y-66.04
X144.145Y-66.04
X146.685Y-66.04
X149.225Y-66.04
T6
X135.54Y-42.605
X141.32Y-42.605
T7
X134.62Y-50.575
X134.62Y-57.375
T2
X144.709Y-39.284G85X144.709Y-38.634
G05
X151.709Y-39.284G85X151.709Y-38.634
G05
T3
X145.859Y-41.659G85X145.559Y-41.659
G05
X150.859Y-41.659G85X150.559Y-41.659
G05
T4
X134.11Y-39.255G85X134.11Y-38.655
G05
X134.11Y-43.685G85X134.11Y-42.585
G05
X142.75Y-39.255G85X142.75Y-38.655
G05
X142.75Y-43.685G85X142.75Y-42.585
G05
T0
M30
