G04 #@! TF.GenerationSoftware,KiCad,Pcbnew,7.0.5-7.0.5~ubuntu22.04.1*
G04 #@! TF.CreationDate,2023-07-13T11:12:20+08:00*
G04 #@! TF.ProjectId,EFP-flash,4546502d-666c-4617-9368-2e6b69636164,v1.1.0*
G04 #@! TF.SameCoordinates,Original*
G04 #@! TF.FileFunction,Copper,L1,Top*
G04 #@! TF.FilePolarity,Positive*
%FSLAX46Y46*%
G04 Gerber Fmt 4.6, Leading zero omitted, Abs format (unit mm)*
G04 Created by KiCad (PCBNEW 7.0.5-7.0.5~ubuntu22.04.1) date 2023-07-13 11:12:20*
%MOMM*%
%LPD*%
G01*
G04 APERTURE LIST*
G04 Aperture macros list*
%AMRoundRect*
0 Rectangle with rounded corners*
0 $1 Rounding radius*
0 $2 $3 $4 $5 $6 $7 $8 $9 X,Y pos of 4 corners*
0 Add a 4 corners polygon primitive as box body*
4,1,4,$2,$3,$4,$5,$6,$7,$8,$9,$2,$3,0*
0 Add four circle primitives for the rounded corners*
1,1,$1+$1,$2,$3*
1,1,$1+$1,$4,$5*
1,1,$1+$1,$6,$7*
1,1,$1+$1,$8,$9*
0 Add four rect primitives between the rounded corners*
20,1,$1+$1,$2,$3,$4,$5,0*
20,1,$1+$1,$4,$5,$6,$7,0*
20,1,$1+$1,$6,$7,$8,$9,0*
20,1,$1+$1,$8,$9,$2,$3,0*%
G04 Aperture macros list end*
G04 #@! TA.AperFunction,SMDPad,CuDef*
%ADD10RoundRect,0.250000X0.450000X-0.262500X0.450000X0.262500X-0.450000X0.262500X-0.450000X-0.262500X0*%
G04 #@! TD*
G04 #@! TA.AperFunction,SMDPad,CuDef*
%ADD11R,0.400000X1.350000*%
G04 #@! TD*
G04 #@! TA.AperFunction,ComponentPad*
%ADD12O,0.890000X1.550000*%
G04 #@! TD*
G04 #@! TA.AperFunction,ComponentPad*
%ADD13O,1.250000X0.950000*%
G04 #@! TD*
G04 #@! TA.AperFunction,SMDPad,CuDef*
%ADD14RoundRect,0.225000X-0.225000X-0.250000X0.225000X-0.250000X0.225000X0.250000X-0.225000X0.250000X0*%
G04 #@! TD*
G04 #@! TA.AperFunction,SMDPad,CuDef*
%ADD15RoundRect,0.150000X-0.512500X-0.150000X0.512500X-0.150000X0.512500X0.150000X-0.512500X0.150000X0*%
G04 #@! TD*
G04 #@! TA.AperFunction,SMDPad,CuDef*
%ADD16RoundRect,0.150000X-0.150000X0.512500X-0.150000X-0.512500X0.150000X-0.512500X0.150000X0.512500X0*%
G04 #@! TD*
G04 #@! TA.AperFunction,SMDPad,CuDef*
%ADD17RoundRect,0.150000X-0.150000X0.825000X-0.150000X-0.825000X0.150000X-0.825000X0.150000X0.825000X0*%
G04 #@! TD*
G04 #@! TA.AperFunction,SMDPad,CuDef*
%ADD18R,0.600000X0.700000*%
G04 #@! TD*
G04 #@! TA.AperFunction,SMDPad,CuDef*
%ADD19RoundRect,0.225000X0.250000X-0.225000X0.250000X0.225000X-0.250000X0.225000X-0.250000X-0.225000X0*%
G04 #@! TD*
G04 #@! TA.AperFunction,SMDPad,CuDef*
%ADD20RoundRect,0.200000X-0.275000X0.200000X-0.275000X-0.200000X0.275000X-0.200000X0.275000X0.200000X0*%
G04 #@! TD*
G04 #@! TA.AperFunction,SMDPad,CuDef*
%ADD21RoundRect,0.200000X0.275000X-0.200000X0.275000X0.200000X-0.275000X0.200000X-0.275000X-0.200000X0*%
G04 #@! TD*
G04 #@! TA.AperFunction,SMDPad,CuDef*
%ADD22RoundRect,0.250000X-0.475000X0.250000X-0.475000X-0.250000X0.475000X-0.250000X0.475000X0.250000X0*%
G04 #@! TD*
G04 #@! TA.AperFunction,SMDPad,CuDef*
%ADD23R,0.400000X0.650000*%
G04 #@! TD*
G04 #@! TA.AperFunction,SMDPad,CuDef*
%ADD24RoundRect,0.218750X0.256250X-0.218750X0.256250X0.218750X-0.256250X0.218750X-0.256250X-0.218750X0*%
G04 #@! TD*
G04 #@! TA.AperFunction,SMDPad,CuDef*
%ADD25RoundRect,0.250000X0.475000X-0.250000X0.475000X0.250000X-0.475000X0.250000X-0.475000X-0.250000X0*%
G04 #@! TD*
G04 #@! TA.AperFunction,SMDPad,CuDef*
%ADD26R,2.500000X1.250000*%
G04 #@! TD*
G04 #@! TA.AperFunction,SMDPad,CuDef*
%ADD27RoundRect,0.250000X0.450000X-0.325000X0.450000X0.325000X-0.450000X0.325000X-0.450000X-0.325000X0*%
G04 #@! TD*
G04 #@! TA.AperFunction,SMDPad,CuDef*
%ADD28R,0.600000X1.450000*%
G04 #@! TD*
G04 #@! TA.AperFunction,SMDPad,CuDef*
%ADD29R,0.300000X1.450000*%
G04 #@! TD*
G04 #@! TA.AperFunction,ComponentPad*
%ADD30O,1.000000X2.100000*%
G04 #@! TD*
G04 #@! TA.AperFunction,ComponentPad*
%ADD31O,1.000000X1.600000*%
G04 #@! TD*
G04 #@! TA.AperFunction,ComponentPad*
%ADD32R,1.700000X1.700000*%
G04 #@! TD*
G04 #@! TA.AperFunction,ComponentPad*
%ADD33O,1.700000X1.700000*%
G04 #@! TD*
G04 #@! TA.AperFunction,SMDPad,CuDef*
%ADD34RoundRect,0.250000X-0.450000X0.262500X-0.450000X-0.262500X0.450000X-0.262500X0.450000X0.262500X0*%
G04 #@! TD*
G04 #@! TA.AperFunction,ViaPad*
%ADD35C,0.600000*%
G04 #@! TD*
G04 #@! TA.AperFunction,Conductor*
%ADD36C,0.400000*%
G04 #@! TD*
G04 #@! TA.AperFunction,Conductor*
%ADD37C,0.200000*%
G04 #@! TD*
G04 #@! TA.AperFunction,Conductor*
%ADD38C,0.127000*%
G04 #@! TD*
G04 APERTURE END LIST*
D10*
G04 #@! TO.P,R104,1*
G04 #@! TO.N,Net-(Q101B-B2)*
X149860000Y-60602500D03*
G04 #@! TO.P,R104,2*
G04 #@! TO.N,/RTS*
X149860000Y-58777500D03*
G04 #@! TD*
D11*
G04 #@! TO.P,J101,1,VBUS*
G04 #@! TO.N,Net-(J101-VBUS)*
X149509000Y-41659000D03*
G04 #@! TO.P,J101,2,D-*
G04 #@! TO.N,/USB_D-*
X148859000Y-41659000D03*
G04 #@! TO.P,J101,3,D+*
G04 #@! TO.N,/USB_D+*
X148209000Y-41659000D03*
G04 #@! TO.P,J101,4,ID*
G04 #@! TO.N,unconnected-(J101-ID-Pad4)*
X147559000Y-41659000D03*
G04 #@! TO.P,J101,5,GND*
G04 #@! TO.N,GND*
X146909000Y-41659000D03*
D12*
G04 #@! TO.P,J101,6,Shield*
X151709000Y-38959000D03*
D13*
X150709000Y-41659000D03*
X145709000Y-41659000D03*
D12*
X144709000Y-38959000D03*
G04 #@! TD*
D14*
G04 #@! TO.P,C103,1*
G04 #@! TO.N,+3V3*
X147180000Y-49530000D03*
G04 #@! TO.P,C103,2*
G04 #@! TO.N,GND*
X148730000Y-49530000D03*
G04 #@! TD*
D15*
G04 #@! TO.P,U101,1,I/O1*
G04 #@! TO.N,/USB_D+*
X137927500Y-46040000D03*
G04 #@! TO.P,U101,2,GND*
G04 #@! TO.N,GND*
X137927500Y-46990000D03*
G04 #@! TO.P,U101,3,I/O2*
G04 #@! TO.N,unconnected-(U101-I{slash}O2-Pad3)*
X137927500Y-47940000D03*
G04 #@! TO.P,U101,4,I/O3*
G04 #@! TO.N,unconnected-(U101-I{slash}O3-Pad4)*
X140202500Y-47940000D03*
G04 #@! TO.P,U101,5,VBUS*
G04 #@! TO.N,VBUS*
X140202500Y-46990000D03*
G04 #@! TO.P,U101,6,I/O4*
G04 #@! TO.N,/USB_D-*
X140202500Y-46040000D03*
G04 #@! TD*
D16*
G04 #@! TO.P,U102,1,IN*
G04 #@! TO.N,VBUS*
X150937000Y-45471500D03*
G04 #@! TO.P,U102,2,GND*
G04 #@! TO.N,GND*
X149987000Y-45471500D03*
G04 #@! TO.P,U102,3,EN*
G04 #@! TO.N,VBUS*
X149037000Y-45471500D03*
G04 #@! TO.P,U102,4,NC*
G04 #@! TO.N,unconnected-(U102-NC-Pad4)*
X149037000Y-47746500D03*
G04 #@! TO.P,U102,5,OUT*
G04 #@! TO.N,+3V3*
X150937000Y-47746500D03*
G04 #@! TD*
D17*
G04 #@! TO.P,U103,1,GND*
G04 #@! TO.N,GND*
X149860000Y-51500000D03*
G04 #@! TO.P,U103,2,TXD*
G04 #@! TO.N,/SER_TX*
X148590000Y-51500000D03*
G04 #@! TO.P,U103,3,RXD*
G04 #@! TO.N,/SER_RX*
X147320000Y-51500000D03*
G04 #@! TO.P,U103,4,V3*
G04 #@! TO.N,+3V3*
X146050000Y-51500000D03*
G04 #@! TO.P,U103,5,UD+*
G04 #@! TO.N,/USB_D+*
X144780000Y-51500000D03*
G04 #@! TO.P,U103,6,UD-*
G04 #@! TO.N,/USB_D-*
X143510000Y-51500000D03*
G04 #@! TO.P,U103,7,NC*
G04 #@! TO.N,unconnected-(U103-NC-Pad7)*
X142240000Y-51500000D03*
G04 #@! TO.P,U103,8,NC*
G04 #@! TO.N,unconnected-(U103-NC-Pad8)*
X140970000Y-51500000D03*
G04 #@! TO.P,U103,9,~{CTS}*
G04 #@! TO.N,unconnected-(U103-~{CTS}-Pad9)*
X140970000Y-56450000D03*
G04 #@! TO.P,U103,10,~{DSR}*
G04 #@! TO.N,unconnected-(U103-~{DSR}-Pad10)*
X142240000Y-56450000D03*
G04 #@! TO.P,U103,11,~{RI}*
G04 #@! TO.N,unconnected-(U103-~{RI}-Pad11)*
X143510000Y-56450000D03*
G04 #@! TO.P,U103,12,~{DCD}*
G04 #@! TO.N,unconnected-(U103-~{DCD}-Pad12)*
X144780000Y-56450000D03*
G04 #@! TO.P,U103,13,~{DTR}*
G04 #@! TO.N,/DTR*
X146050000Y-56450000D03*
G04 #@! TO.P,U103,14,~{RTS}*
G04 #@! TO.N,/RTS*
X147320000Y-56450000D03*
G04 #@! TO.P,U103,15,R232*
G04 #@! TO.N,unconnected-(U103-R232-Pad15)*
X148590000Y-56450000D03*
G04 #@! TO.P,U103,16,VCC*
G04 #@! TO.N,+3V3*
X149860000Y-56450000D03*
G04 #@! TD*
D18*
G04 #@! TO.P,D101,1,A1*
G04 #@! TO.N,+3V3*
X151703000Y-49530000D03*
G04 #@! TO.P,D101,2,A2*
G04 #@! TO.N,GND*
X150303000Y-49530000D03*
G04 #@! TD*
D19*
G04 #@! TO.P,C104,1*
G04 #@! TO.N,+3V3*
X151511000Y-56528000D03*
G04 #@! TO.P,C104,2*
G04 #@! TO.N,GND*
X151511000Y-54978000D03*
G04 #@! TD*
D20*
G04 #@! TO.P,R105,1*
G04 #@! TO.N,Net-(D102-K)*
X133985000Y-65850000D03*
G04 #@! TO.P,R105,2*
G04 #@! TO.N,GND*
X133985000Y-67500000D03*
G04 #@! TD*
D21*
G04 #@! TO.P,R102,1*
G04 #@! TO.N,GND*
X142240000Y-47815000D03*
G04 #@! TO.P,R102,2*
G04 #@! TO.N,Net-(J102-CC1)*
X142240000Y-46165000D03*
G04 #@! TD*
D22*
G04 #@! TO.P,C102,1*
G04 #@! TO.N,+3V3*
X151765000Y-51120000D03*
G04 #@! TO.P,C102,2*
G04 #@! TO.N,GND*
X151765000Y-53020000D03*
G04 #@! TD*
D23*
G04 #@! TO.P,Q101,1,E1*
G04 #@! TO.N,/RTS*
X146035000Y-60640000D03*
G04 #@! TO.P,Q101,2,B1*
G04 #@! TO.N,Net-(Q101A-B1)*
X146685000Y-60640000D03*
G04 #@! TO.P,Q101,3,C2*
G04 #@! TO.N,/Boot*
X147335000Y-60640000D03*
G04 #@! TO.P,Q101,4,E2*
G04 #@! TO.N,/DTR*
X147335000Y-58740000D03*
G04 #@! TO.P,Q101,5,B2*
G04 #@! TO.N,Net-(Q101B-B2)*
X146685000Y-58740000D03*
G04 #@! TO.P,Q101,6,C1*
G04 #@! TO.N,/EN*
X146035000Y-58740000D03*
G04 #@! TD*
D20*
G04 #@! TO.P,R106,1*
G04 #@! TO.N,Net-(D103-K)*
X151765000Y-65850000D03*
G04 #@! TO.P,R106,2*
G04 #@! TO.N,GND*
X151765000Y-67500000D03*
G04 #@! TD*
D24*
G04 #@! TO.P,D102,1,K*
G04 #@! TO.N,Net-(D102-K)*
X133985000Y-64287500D03*
G04 #@! TO.P,D102,2,A*
G04 #@! TO.N,+3V3*
X133985000Y-62712500D03*
G04 #@! TD*
D25*
G04 #@! TO.P,C101,1*
G04 #@! TO.N,VBUS*
X147066000Y-46670000D03*
G04 #@! TO.P,C101,2*
G04 #@! TO.N,GND*
X147066000Y-44770000D03*
G04 #@! TD*
D24*
G04 #@! TO.P,D103,1,K*
G04 #@! TO.N,Net-(D103-K)*
X151765000Y-64287500D03*
G04 #@! TO.P,D103,2,A*
G04 #@! TO.N,/3v3_{SW}*
X151765000Y-62712500D03*
G04 #@! TD*
D26*
G04 #@! TO.P,SW101,1,A*
G04 #@! TO.N,Net-(D102-K)*
X137370000Y-51475000D03*
G04 #@! TO.P,SW101,2,B*
G04 #@! TO.N,+3V3*
X137370000Y-53975000D03*
G04 #@! TO.P,SW101,3,C*
G04 #@! TO.N,/3v3_{SW}*
X137370000Y-56475000D03*
G04 #@! TD*
D21*
G04 #@! TO.P,R101,1*
G04 #@! TO.N,GND*
X135890000Y-47815000D03*
G04 #@! TO.P,R101,2*
G04 #@! TO.N,Net-(J102-CC2)*
X135890000Y-46165000D03*
G04 #@! TD*
D27*
G04 #@! TO.P,F101,1*
G04 #@! TO.N,VBUS*
X144907000Y-46745000D03*
G04 #@! TO.P,F101,2*
G04 #@! TO.N,Net-(J101-VBUS)*
X144907000Y-44695000D03*
G04 #@! TD*
D28*
G04 #@! TO.P,J102,A1,GND*
G04 #@! TO.N,GND*
X141680000Y-44050000D03*
G04 #@! TO.P,J102,A4,VBUS*
G04 #@! TO.N,Net-(J101-VBUS)*
X140880000Y-44050000D03*
D29*
G04 #@! TO.P,J102,A5,CC1*
G04 #@! TO.N,Net-(J102-CC1)*
X139680000Y-44050000D03*
G04 #@! TO.P,J102,A6,D+*
G04 #@! TO.N,/USB_D+*
X138680000Y-44050000D03*
G04 #@! TO.P,J102,A7,D-*
G04 #@! TO.N,/USB_D-*
X138180000Y-44050000D03*
G04 #@! TO.P,J102,A8,SBU1*
G04 #@! TO.N,unconnected-(J102-SBU1-PadA8)*
X137180000Y-44050000D03*
D28*
G04 #@! TO.P,J102,A9,VBUS*
G04 #@! TO.N,Net-(J101-VBUS)*
X135980000Y-44050000D03*
G04 #@! TO.P,J102,A12,GND*
G04 #@! TO.N,GND*
X135180000Y-44050000D03*
G04 #@! TO.P,J102,B1,GND*
X135180000Y-44050000D03*
G04 #@! TO.P,J102,B4,VBUS*
G04 #@! TO.N,Net-(J101-VBUS)*
X135980000Y-44050000D03*
D29*
G04 #@! TO.P,J102,B5,CC2*
G04 #@! TO.N,Net-(J102-CC2)*
X136680000Y-44050000D03*
G04 #@! TO.P,J102,B6,D+*
G04 #@! TO.N,/USB_D+*
X137680000Y-44050000D03*
G04 #@! TO.P,J102,B7,D-*
G04 #@! TO.N,/USB_D-*
X139180000Y-44050000D03*
G04 #@! TO.P,J102,B8,SBU2*
G04 #@! TO.N,unconnected-(J102-SBU2-PadB8)*
X140180000Y-44050000D03*
D28*
G04 #@! TO.P,J102,B9,VBUS*
G04 #@! TO.N,Net-(J101-VBUS)*
X140880000Y-44050000D03*
G04 #@! TO.P,J102,B12,GND*
G04 #@! TO.N,GND*
X141680000Y-44050000D03*
D30*
G04 #@! TO.P,J102,S1,SHIELD*
X142750000Y-43135000D03*
D31*
X142750000Y-38955000D03*
D30*
X134110000Y-43135000D03*
D31*
X134110000Y-38955000D03*
G04 #@! TD*
D32*
G04 #@! TO.P,J103,1,Pin_1*
G04 #@! TO.N,GND*
X149225000Y-66040000D03*
D33*
G04 #@! TO.P,J103,2,Pin_2*
G04 #@! TO.N,/SER_RX*
X146685000Y-66040000D03*
G04 #@! TO.P,J103,3,Pin_3*
G04 #@! TO.N,/SER_TX*
X144145000Y-66040000D03*
G04 #@! TO.P,J103,4,Pin_4*
G04 #@! TO.N,/3v3_{SW}*
X141605000Y-66040000D03*
G04 #@! TO.P,J103,5,Pin_5*
G04 #@! TO.N,/EN*
X139065000Y-66040000D03*
G04 #@! TO.P,J103,6,Pin_6*
G04 #@! TO.N,/Boot*
X136525000Y-66040000D03*
G04 #@! TD*
D34*
G04 #@! TO.P,R103,1*
G04 #@! TO.N,Net-(Q101A-B1)*
X143510000Y-58777500D03*
G04 #@! TO.P,R103,2*
G04 #@! TO.N,/DTR*
X143510000Y-60602500D03*
G04 #@! TD*
D35*
G04 #@! TO.N,GND*
X145415000Y-53340000D03*
X145415000Y-64135000D03*
X149606000Y-49530000D03*
X144780000Y-49530000D03*
X151765000Y-53975000D03*
X146939000Y-40259000D03*
X135890000Y-48641000D03*
X147828000Y-48133000D03*
X139700000Y-50165000D03*
X137795000Y-64135000D03*
X136906000Y-46990000D03*
X149987000Y-43942000D03*
X147955000Y-54610000D03*
X140970000Y-59055000D03*
X138430000Y-60960000D03*
X151765000Y-58420000D03*
X143129000Y-47752000D03*
X134620000Y-45720000D03*
X140970000Y-61595000D03*
G04 #@! TO.N,+3V3*
X151892000Y-48133000D03*
X146050000Y-49530000D03*
X151511000Y-57404000D03*
X135128000Y-61087000D03*
X135255000Y-53975000D03*
G04 #@! TO.N,Net-(J101-VBUS)*
X143510000Y-45085000D03*
X140335000Y-41275000D03*
X136525000Y-41275000D03*
G04 #@! TO.N,/3v3_{SW}*
X150495000Y-63119000D03*
G04 #@! TO.N,/EN*
X145481000Y-58740000D03*
G04 #@! TO.N,/Boot*
X147889000Y-60640000D03*
G04 #@! TD*
D36*
G04 #@! TO.N,VBUS*
X150937000Y-45471500D02*
X150937000Y-46294000D01*
X149098000Y-46609000D02*
X149037000Y-46548000D01*
X147188000Y-46548000D02*
X147066000Y-46670000D01*
X150622000Y-46609000D02*
X149098000Y-46609000D01*
X149037000Y-45471500D02*
X149037000Y-46548000D01*
X143002000Y-46990000D02*
X143322000Y-46670000D01*
X150937000Y-46294000D02*
X150622000Y-46609000D01*
X149037000Y-46548000D02*
X147188000Y-46548000D01*
X143322000Y-46670000D02*
X147066000Y-46670000D01*
X140202500Y-46990000D02*
X143002000Y-46990000D01*
G04 #@! TO.N,GND*
X146909000Y-40289000D02*
X146939000Y-40259000D01*
D37*
X142240000Y-47815000D02*
X143066000Y-47815000D01*
X143066000Y-47815000D02*
X143129000Y-47752000D01*
X151511000Y-54229000D02*
X151765000Y-53975000D01*
X135890000Y-47815000D02*
X135890000Y-48641000D01*
D36*
X142750000Y-43648000D02*
X142750000Y-43135000D01*
D37*
X151765000Y-53020000D02*
X151765000Y-53975000D01*
D36*
X134110000Y-43648000D02*
X134110000Y-43135000D01*
X149606000Y-50038000D02*
X149606000Y-49530000D01*
D37*
X137927500Y-46990000D02*
X136906000Y-46990000D01*
D36*
X149860000Y-51500000D02*
X149860000Y-50292000D01*
X134512000Y-44050000D02*
X134110000Y-43648000D01*
D37*
X150303000Y-49530000D02*
X149606000Y-49530000D01*
D36*
X135180000Y-44050000D02*
X134512000Y-44050000D01*
X147254000Y-44770000D02*
X147828000Y-44196000D01*
X149479000Y-43942000D02*
X149987000Y-43942000D01*
X142348000Y-44050000D02*
X142750000Y-43648000D01*
X147066000Y-44770000D02*
X147254000Y-44770000D01*
X149860000Y-50292000D02*
X149606000Y-50038000D01*
D37*
X151511000Y-54978000D02*
X151511000Y-54229000D01*
D36*
X149225000Y-44196000D02*
X149479000Y-43942000D01*
X146909000Y-41659000D02*
X146909000Y-40289000D01*
X141680000Y-44050000D02*
X142348000Y-44050000D01*
D37*
X149987000Y-45471500D02*
X149987000Y-43942000D01*
D36*
X147828000Y-44196000D02*
X149225000Y-44196000D01*
D37*
X148730000Y-49530000D02*
X149606000Y-49530000D01*
D36*
G04 #@! TO.N,+3V3*
X150937000Y-47746500D02*
X151505500Y-47746500D01*
X146050000Y-51500000D02*
X146050000Y-49530000D01*
X146050000Y-49530000D02*
X147180000Y-49530000D01*
X151765000Y-51120000D02*
X151765000Y-49592000D01*
X151433000Y-56450000D02*
X151511000Y-56528000D01*
X151703000Y-49530000D02*
X151703000Y-48322000D01*
X137370000Y-53975000D02*
X135255000Y-53975000D01*
X151511000Y-56528000D02*
X151511000Y-57404000D01*
D37*
X133985000Y-62712500D02*
X133985000Y-62230000D01*
X133985000Y-62230000D02*
X135128000Y-61087000D01*
D36*
X151703000Y-48322000D02*
X151892000Y-48133000D01*
X151765000Y-49592000D02*
X151703000Y-49530000D01*
X149860000Y-56450000D02*
X151433000Y-56450000D01*
X151505500Y-47746500D02*
X151892000Y-48133000D01*
D38*
G04 #@! TO.N,/USB_D+*
X145034000Y-42672000D02*
X143256000Y-40894000D01*
X137680000Y-45097000D02*
X137791000Y-45208000D01*
X138877000Y-46040000D02*
X138938000Y-46101000D01*
X137927500Y-46040000D02*
X138877000Y-46040000D01*
X142621000Y-49276000D02*
X142875000Y-49530000D01*
X141732000Y-40894000D02*
X140843000Y-40005000D01*
X143129000Y-52832000D02*
X144526000Y-52832000D01*
X147998000Y-42672000D02*
X145034000Y-42672000D01*
X138938000Y-48514000D02*
X139700000Y-49276000D01*
X139446000Y-40005000D02*
X138176000Y-41275000D01*
X137791000Y-45208000D02*
X138680000Y-45208000D01*
X138176000Y-41275000D02*
X138176000Y-42545000D01*
X148209000Y-42461000D02*
X147998000Y-42672000D01*
X138938000Y-45466000D02*
X138938000Y-46101000D01*
X143256000Y-40894000D02*
X141732000Y-40894000D01*
X137680000Y-43041000D02*
X137680000Y-44050000D01*
X139700000Y-49276000D02*
X142621000Y-49276000D01*
X148209000Y-41659000D02*
X148209000Y-42461000D01*
X137680000Y-44050000D02*
X137680000Y-45097000D01*
X138938000Y-46101000D02*
X138938000Y-48514000D01*
X140843000Y-40005000D02*
X139446000Y-40005000D01*
X142875000Y-52578000D02*
X143129000Y-52832000D01*
X144780000Y-52578000D02*
X144780000Y-51500000D01*
X138680000Y-44050000D02*
X138680000Y-45208000D01*
X144526000Y-52832000D02*
X144780000Y-52578000D01*
X138176000Y-42545000D02*
X137680000Y-43041000D01*
X142875000Y-49530000D02*
X142875000Y-52578000D01*
X138680000Y-45208000D02*
X138938000Y-45466000D01*
D37*
G04 #@! TO.N,Net-(D102-K)*
X133985000Y-65850000D02*
X133985000Y-64287500D01*
X133985000Y-64287500D02*
X135890000Y-62382500D01*
X133604000Y-53721000D02*
X135850000Y-51475000D01*
X133604000Y-58039000D02*
X133604000Y-53721000D01*
X135890000Y-60325000D02*
X133604000Y-58039000D01*
X135850000Y-51475000D02*
X137370000Y-51475000D01*
X135890000Y-62382500D02*
X135890000Y-60325000D01*
G04 #@! TO.N,Net-(D103-K)*
X151765000Y-64287500D02*
X151765000Y-65850000D01*
D38*
G04 #@! TO.N,/USB_D-*
X139180000Y-44050000D02*
X139180000Y-45085000D01*
X139313480Y-48392520D02*
X139815960Y-48895000D01*
X139313480Y-45339000D02*
X139313480Y-45979520D01*
X138557000Y-41402000D02*
X138557000Y-43053000D01*
X148859000Y-41659000D02*
X148859000Y-42657000D01*
X139827000Y-48895000D02*
X142875000Y-48895000D01*
X140202500Y-46040000D02*
X139373960Y-46040000D01*
X148859000Y-42657000D02*
X148463000Y-43053000D01*
X140716000Y-40386000D02*
X139573000Y-40386000D01*
X142875000Y-48895000D02*
X143510000Y-49530000D01*
D37*
X138303000Y-43053000D02*
X138180000Y-43176000D01*
X138557000Y-43053000D02*
X138303000Y-43053000D01*
X139180000Y-44050000D02*
X139180000Y-43168000D01*
X139065000Y-43053000D02*
X138557000Y-43053000D01*
D38*
X143510000Y-49530000D02*
X143510000Y-51500000D01*
X139573000Y-40386000D02*
X138557000Y-41402000D01*
X139180000Y-45085000D02*
X139313480Y-45339000D01*
D37*
X138180000Y-43176000D02*
X138180000Y-44050000D01*
D38*
X139313480Y-45979520D02*
X139313480Y-48392520D01*
X143129000Y-41275000D02*
X141605000Y-41275000D01*
X148463000Y-43053000D02*
X144907000Y-43053000D01*
X144907000Y-43053000D02*
X143129000Y-41275000D01*
X141605000Y-41275000D02*
X140716000Y-40386000D01*
D37*
X139180000Y-43168000D02*
X139065000Y-43053000D01*
D38*
X139373960Y-46040000D02*
X139313480Y-45979520D01*
D37*
G04 #@! TO.N,Net-(J101-VBUS)*
X140335000Y-41275000D02*
X140335000Y-42687055D01*
D36*
X144907000Y-44695000D02*
X144907000Y-43815000D01*
X148717000Y-43561000D02*
X149509000Y-42769000D01*
D37*
X136525000Y-41275000D02*
X136525000Y-42687055D01*
D36*
X145161000Y-43561000D02*
X148717000Y-43561000D01*
D37*
X136525000Y-42687055D02*
X135980000Y-43232055D01*
X140880000Y-44050000D02*
X140880000Y-43232055D01*
X140335000Y-42687055D02*
X140898973Y-43251028D01*
X135980000Y-43232055D02*
X135980000Y-44050000D01*
D36*
X144907000Y-43815000D02*
X145161000Y-43561000D01*
X149509000Y-42769000D02*
X149509000Y-41659000D01*
X143510000Y-45085000D02*
X143900000Y-44695000D01*
X143900000Y-44695000D02*
X144907000Y-44695000D01*
D38*
G04 #@! TO.N,/SER_TX*
X140589000Y-54610000D02*
X140081000Y-55118000D01*
X148336000Y-52959000D02*
X147574000Y-52959000D01*
X148590000Y-52705000D02*
X148336000Y-52959000D01*
X140081000Y-55118000D02*
X140081000Y-61976000D01*
X145923000Y-54610000D02*
X140589000Y-54610000D01*
X140081000Y-61976000D02*
X144145000Y-66040000D01*
X147574000Y-52959000D02*
X145923000Y-54610000D01*
X148590000Y-51500000D02*
X148590000Y-52705000D01*
G04 #@! TO.N,/SER_RX*
X142875000Y-66675000D02*
X143510000Y-67310000D01*
X139700000Y-62230000D02*
X142875000Y-65405000D01*
X143510000Y-67310000D02*
X145415000Y-67310000D01*
X145415000Y-67310000D02*
X146685000Y-66040000D01*
X145796000Y-54229000D02*
X140462000Y-54229000D01*
X140462000Y-54229000D02*
X139700000Y-54991000D01*
X139700000Y-54991000D02*
X139700000Y-62230000D01*
X142875000Y-65405000D02*
X142875000Y-66675000D01*
X147320000Y-52705000D02*
X145796000Y-54229000D01*
X147320000Y-51500000D02*
X147320000Y-52705000D01*
D37*
G04 #@! TO.N,/3v3_{SW}*
X150495000Y-63119000D02*
X150901500Y-62712500D01*
X150901500Y-62712500D02*
X151765000Y-62712500D01*
D36*
X137370000Y-56475000D02*
X137370000Y-61805000D01*
X137370000Y-61805000D02*
X141605000Y-66040000D01*
D38*
G04 #@! TO.N,/EN*
X146035000Y-58740000D02*
X145481000Y-58740000D01*
G04 #@! TO.N,/Boot*
X147335000Y-60640000D02*
X147889000Y-60640000D01*
G04 #@! TO.N,/RTS*
X147320000Y-57658000D02*
X148439500Y-58777500D01*
X146304000Y-61468000D02*
X146035000Y-61199000D01*
X150090500Y-58777500D02*
X150876000Y-59563000D01*
X148439500Y-58777500D02*
X149860000Y-58777500D01*
X149860000Y-58777500D02*
X150090500Y-58777500D01*
X150495000Y-61468000D02*
X146304000Y-61468000D01*
X146035000Y-61199000D02*
X146035000Y-60640000D01*
X150876000Y-61087000D02*
X150495000Y-61468000D01*
X150876000Y-59563000D02*
X150876000Y-61087000D01*
X147320000Y-56450000D02*
X147320000Y-57658000D01*
D37*
G04 #@! TO.N,Net-(J102-CC1)*
X142240000Y-45593000D02*
X142240000Y-46165000D01*
X139680000Y-44050000D02*
X139680000Y-44938000D01*
X141859000Y-45212000D02*
X142240000Y-45593000D01*
X139680000Y-44938000D02*
X139954000Y-45212000D01*
X139954000Y-45212000D02*
X141859000Y-45212000D01*
D38*
G04 #@! TO.N,/DTR*
X146050000Y-57912000D02*
X147066000Y-57912000D01*
X143279500Y-60602500D02*
X142494000Y-59817000D01*
X142494000Y-58293000D02*
X142875000Y-57912000D01*
X147335000Y-58181000D02*
X147066000Y-57912000D01*
X142494000Y-59817000D02*
X142494000Y-58293000D01*
X147335000Y-58740000D02*
X147335000Y-58181000D01*
X142875000Y-57912000D02*
X146050000Y-57912000D01*
X146050000Y-56450000D02*
X146050000Y-57912000D01*
X143510000Y-60602500D02*
X143279500Y-60602500D01*
D37*
G04 #@! TO.N,Net-(J102-CC2)*
X136144000Y-45339000D02*
X135890000Y-45593000D01*
X136680000Y-44930000D02*
X136271000Y-45339000D01*
X136271000Y-45339000D02*
X136144000Y-45339000D01*
X135890000Y-45593000D02*
X135890000Y-46165000D01*
X136680000Y-44050000D02*
X136680000Y-44930000D01*
D38*
G04 #@! TO.N,Net-(Q101A-B1)*
X146431000Y-59944000D02*
X146685000Y-60198000D01*
X143740500Y-58777500D02*
X144907000Y-59944000D01*
X146685000Y-60198000D02*
X146685000Y-60640000D01*
X143510000Y-58777500D02*
X143740500Y-58777500D01*
X144907000Y-59944000D02*
X146431000Y-59944000D01*
G04 #@! TO.N,Net-(Q101B-B2)*
X148994500Y-60602500D02*
X149860000Y-60602500D01*
X146685000Y-59309000D02*
X146939000Y-59563000D01*
X146685000Y-58740000D02*
X146685000Y-59309000D01*
X146939000Y-59563000D02*
X147955000Y-59563000D01*
X147955000Y-59563000D02*
X148994500Y-60602500D01*
G04 #@! TD*
G04 #@! TA.AperFunction,Conductor*
G04 #@! TO.N,GND*
G36*
X135134512Y-43123576D02*
G01*
X135138236Y-43126935D01*
X135151644Y-43139526D01*
X135296776Y-43219313D01*
X135330834Y-43228057D01*
X135391839Y-43264369D01*
X135423529Y-43327901D01*
X135425500Y-43350098D01*
X135425500Y-44800063D01*
X135425501Y-44800068D01*
X135428046Y-44812862D01*
X135431579Y-44830627D01*
X135434000Y-44855204D01*
X135434000Y-45283000D01*
X135443436Y-45283000D01*
X135511557Y-45303002D01*
X135558050Y-45356658D01*
X135568154Y-45426932D01*
X135564192Y-45444972D01*
X135563853Y-45446110D01*
X135525235Y-45505685D01*
X135484713Y-45529067D01*
X135400230Y-45558629D01*
X135400225Y-45558631D01*
X135289989Y-45639989D01*
X135208631Y-45750225D01*
X135208628Y-45750232D01*
X135163379Y-45879545D01*
X135160500Y-45910248D01*
X135160500Y-46419740D01*
X135160501Y-46419755D01*
X135163379Y-46450452D01*
X135163380Y-46450455D01*
X135208628Y-46579767D01*
X135208631Y-46579774D01*
X135289989Y-46690010D01*
X135361108Y-46742498D01*
X135404040Y-46799043D01*
X135409587Y-46869822D01*
X135375986Y-46932365D01*
X135329010Y-46960984D01*
X135329245Y-46961505D01*
X135325075Y-46963381D01*
X135323783Y-46964169D01*
X135322296Y-46964632D01*
X135322295Y-46964632D01*
X135175159Y-47053578D01*
X135175149Y-47053586D01*
X135053586Y-47175149D01*
X135053578Y-47175159D01*
X134964633Y-47322293D01*
X134913481Y-47486446D01*
X134913481Y-47486447D01*
X134907000Y-47557777D01*
X134907000Y-47561000D01*
X136018000Y-47561000D01*
X136086121Y-47581002D01*
X136132614Y-47634658D01*
X136144000Y-47687000D01*
X136144000Y-48722999D01*
X136222222Y-48722999D01*
X136293553Y-48716518D01*
X136457706Y-48665366D01*
X136604840Y-48576421D01*
X136604850Y-48576413D01*
X136726413Y-48454850D01*
X136726421Y-48454840D01*
X136815367Y-48307704D01*
X136820668Y-48290693D01*
X136860029Y-48231607D01*
X136925087Y-48203181D01*
X136995185Y-48214441D01*
X137048068Y-48261810D01*
X137053230Y-48270974D01*
X137083673Y-48330722D01*
X137083675Y-48330725D01*
X137174276Y-48421326D01*
X137231361Y-48450412D01*
X137288445Y-48479498D01*
X137383166Y-48494500D01*
X137383168Y-48494500D01*
X138471835Y-48494500D01*
X138477553Y-48493594D01*
X138485559Y-48492326D01*
X138555970Y-48501424D01*
X138610285Y-48547145D01*
X138629358Y-48594894D01*
X138634567Y-48624438D01*
X138637001Y-48631124D01*
X138642347Y-48644029D01*
X138645349Y-48650468D01*
X138667970Y-48682775D01*
X138670918Y-48687401D01*
X138678832Y-48701109D01*
X138690639Y-48721559D01*
X138720850Y-48746909D01*
X138724893Y-48750613D01*
X139463379Y-49489099D01*
X139467083Y-49493142D01*
X139492438Y-49523358D01*
X139492440Y-49523360D01*
X139526594Y-49543079D01*
X139531219Y-49546025D01*
X139548982Y-49558463D01*
X139563536Y-49568654D01*
X139569988Y-49571662D01*
X139582850Y-49576989D01*
X139589556Y-49579430D01*
X139589560Y-49579432D01*
X139628412Y-49586282D01*
X139633748Y-49587465D01*
X139671857Y-49597677D01*
X139696881Y-49595487D01*
X139711153Y-49594240D01*
X139716645Y-49594000D01*
X142431000Y-49594000D01*
X142499121Y-49614002D01*
X142545614Y-49667658D01*
X142557000Y-49720000D01*
X142557000Y-50144831D01*
X142536998Y-50212952D01*
X142483342Y-50259445D01*
X142426784Y-50269445D01*
X142426784Y-50270500D01*
X142421834Y-50270500D01*
X142058166Y-50270500D01*
X142032266Y-50274602D01*
X141963446Y-50285501D01*
X141849276Y-50343673D01*
X141758675Y-50434274D01*
X141758673Y-50434277D01*
X141717267Y-50515542D01*
X141668518Y-50567157D01*
X141599604Y-50584223D01*
X141532402Y-50561322D01*
X141492733Y-50515542D01*
X141451326Y-50434277D01*
X141451324Y-50434274D01*
X141360723Y-50343673D01*
X141246553Y-50285501D01*
X141181835Y-50275251D01*
X141151834Y-50270500D01*
X140788166Y-50270500D01*
X140762266Y-50274602D01*
X140693446Y-50285501D01*
X140579276Y-50343673D01*
X140488673Y-50434276D01*
X140430501Y-50548446D01*
X140415500Y-50643167D01*
X140415500Y-52356832D01*
X140430501Y-52451553D01*
X140488673Y-52565723D01*
X140579276Y-52656326D01*
X140622766Y-52678485D01*
X140693445Y-52714498D01*
X140788166Y-52729500D01*
X140788168Y-52729500D01*
X141151832Y-52729500D01*
X141151834Y-52729500D01*
X141246555Y-52714498D01*
X141360723Y-52656326D01*
X141451326Y-52565723D01*
X141492733Y-52484455D01*
X141541481Y-52432842D01*
X141610396Y-52415776D01*
X141677598Y-52438677D01*
X141717267Y-52484457D01*
X141758673Y-52565723D01*
X141849276Y-52656326D01*
X141892766Y-52678485D01*
X141963445Y-52714498D01*
X142058166Y-52729500D01*
X142058168Y-52729500D01*
X142421829Y-52729500D01*
X142421834Y-52729500D01*
X142495215Y-52717877D01*
X142565620Y-52726976D01*
X142619935Y-52772697D01*
X142624039Y-52779325D01*
X142627637Y-52785557D01*
X142627638Y-52785558D01*
X142657850Y-52810909D01*
X142661893Y-52814613D01*
X142892379Y-53045099D01*
X142896083Y-53049142D01*
X142921438Y-53079358D01*
X142921440Y-53079360D01*
X142955594Y-53099079D01*
X142960219Y-53102025D01*
X142977982Y-53114463D01*
X142992536Y-53124654D01*
X142998988Y-53127662D01*
X143011850Y-53132989D01*
X143018558Y-53135431D01*
X143018560Y-53135432D01*
X143057412Y-53142282D01*
X143062748Y-53143465D01*
X143100857Y-53153677D01*
X143125918Y-53151484D01*
X143140150Y-53150240D01*
X143145642Y-53150000D01*
X144509358Y-53150000D01*
X144514850Y-53150240D01*
X144531255Y-53151674D01*
X144554143Y-53153677D01*
X144592262Y-53143461D01*
X144597583Y-53142282D01*
X144636440Y-53135432D01*
X144636441Y-53135431D01*
X144636443Y-53135431D01*
X144643163Y-53132984D01*
X144655973Y-53127679D01*
X144662460Y-53124653D01*
X144662466Y-53124652D01*
X144694781Y-53102024D01*
X144699410Y-53099077D01*
X144733558Y-53079362D01*
X144733562Y-53079358D01*
X144758917Y-53049139D01*
X144762610Y-53045108D01*
X144993108Y-52814610D01*
X144997141Y-52810916D01*
X144997149Y-52810909D01*
X145027360Y-52785560D01*
X145047087Y-52751389D01*
X145050021Y-52746786D01*
X145063530Y-52727492D01*
X145109537Y-52687501D01*
X145170723Y-52656326D01*
X145261326Y-52565723D01*
X145302733Y-52484455D01*
X145351481Y-52432842D01*
X145420396Y-52415776D01*
X145487598Y-52438677D01*
X145527267Y-52484457D01*
X145568673Y-52565723D01*
X145659276Y-52656326D01*
X145702766Y-52678485D01*
X145773445Y-52714498D01*
X145868166Y-52729500D01*
X145868168Y-52729500D01*
X146231832Y-52729500D01*
X146231834Y-52729500D01*
X146326555Y-52714498D01*
X146440723Y-52656326D01*
X146531326Y-52565723D01*
X146572733Y-52484455D01*
X146621481Y-52432842D01*
X146690396Y-52415776D01*
X146757598Y-52438677D01*
X146797267Y-52484457D01*
X146838673Y-52565723D01*
X146844501Y-52573743D01*
X146842276Y-52575359D01*
X146869045Y-52624381D01*
X146863980Y-52695196D01*
X146835019Y-52740259D01*
X145701183Y-53874096D01*
X145638873Y-53908120D01*
X145612090Y-53911000D01*
X140478645Y-53911000D01*
X140473153Y-53910760D01*
X140439082Y-53907780D01*
X140433857Y-53907323D01*
X140433856Y-53907323D01*
X140433851Y-53907323D01*
X140395764Y-53917529D01*
X140390399Y-53918718D01*
X140351563Y-53925566D01*
X140344893Y-53927994D01*
X140331957Y-53933352D01*
X140325533Y-53936348D01*
X140293233Y-53958963D01*
X140288601Y-53961914D01*
X140254440Y-53981639D01*
X140229084Y-54011856D01*
X140225370Y-54015909D01*
X139486909Y-54754370D01*
X139482856Y-54758084D01*
X139452639Y-54783440D01*
X139432914Y-54817601D01*
X139429963Y-54822233D01*
X139407348Y-54854533D01*
X139404352Y-54860957D01*
X139398994Y-54873893D01*
X139396566Y-54880563D01*
X139389718Y-54919399D01*
X139388529Y-54924764D01*
X139378323Y-54962851D01*
X139378323Y-54962856D01*
X139381760Y-55002150D01*
X139382000Y-55007642D01*
X139382000Y-62213357D01*
X139381760Y-62218849D01*
X139378323Y-62258143D01*
X139388529Y-62296235D01*
X139389719Y-62301602D01*
X139396567Y-62340437D01*
X139399001Y-62347124D01*
X139404347Y-62360029D01*
X139407349Y-62366468D01*
X139429970Y-62398775D01*
X139432918Y-62403401D01*
X139442502Y-62420001D01*
X139450763Y-62434310D01*
X139452640Y-62437560D01*
X139465657Y-62448483D01*
X139482850Y-62462909D01*
X139486893Y-62466613D01*
X140615780Y-63595500D01*
X141740685Y-64720405D01*
X141774711Y-64782717D01*
X141769646Y-64853532D01*
X141727099Y-64910368D01*
X141660579Y-64935179D01*
X141651590Y-64935500D01*
X141502653Y-64935500D01*
X141301444Y-64973112D01*
X141301442Y-64973112D01*
X141301440Y-64973113D01*
X141291092Y-64977122D01*
X141220345Y-64983076D01*
X141157610Y-64949837D01*
X141156484Y-64948724D01*
X137861405Y-61653644D01*
X137827379Y-61591332D01*
X137824500Y-61564549D01*
X137824500Y-57480499D01*
X137844502Y-57412378D01*
X137898158Y-57365885D01*
X137950500Y-57354499D01*
X138645064Y-57354499D01*
X138645066Y-57354499D01*
X138645069Y-57354498D01*
X138645072Y-57354498D01*
X138681663Y-57347219D01*
X138719301Y-57339734D01*
X138803484Y-57283484D01*
X138859734Y-57199301D01*
X138874500Y-57125067D01*
X138874499Y-55824934D01*
X138874498Y-55824930D01*
X138874498Y-55824926D01*
X138859734Y-55750699D01*
X138803483Y-55666515D01*
X138719302Y-55610266D01*
X138645067Y-55595500D01*
X136094936Y-55595500D01*
X136094926Y-55595501D01*
X136020699Y-55610265D01*
X135936515Y-55666516D01*
X135880266Y-55750697D01*
X135865500Y-55824930D01*
X135865500Y-57125063D01*
X135865501Y-57125073D01*
X135880265Y-57199300D01*
X135936516Y-57283484D01*
X136020697Y-57339733D01*
X136020699Y-57339734D01*
X136094933Y-57354500D01*
X136789500Y-57354499D01*
X136857621Y-57374501D01*
X136904114Y-57428157D01*
X136915500Y-57480499D01*
X136915500Y-61775925D01*
X136915104Y-61782984D01*
X136910687Y-61822186D01*
X136910687Y-61822189D01*
X136921619Y-61879966D01*
X136922014Y-61882287D01*
X136930786Y-61940479D01*
X136933315Y-61948680D01*
X136936159Y-61956807D01*
X136963644Y-62008812D01*
X136964705Y-62010914D01*
X136990231Y-62063918D01*
X136995077Y-62071025D01*
X137000179Y-62077938D01*
X137000180Y-62077940D01*
X137041780Y-62119540D01*
X137043389Y-62121210D01*
X137083421Y-62164355D01*
X137090805Y-62170243D01*
X137090270Y-62170913D01*
X137102662Y-62180422D01*
X139867733Y-64945493D01*
X139901759Y-65007805D01*
X139896694Y-65078620D01*
X139854147Y-65135456D01*
X139787627Y-65160267D01*
X139718253Y-65145176D01*
X139712308Y-65141715D01*
X139559438Y-65047062D01*
X139559431Y-65047058D01*
X139559427Y-65047056D01*
X139559422Y-65047054D01*
X139368559Y-64973113D01*
X139368560Y-64973113D01*
X139368557Y-64973112D01*
X139368556Y-64973112D01*
X139167347Y-64935500D01*
X138962653Y-64935500D01*
X138761444Y-64973112D01*
X138761439Y-64973113D01*
X138570577Y-65047054D01*
X138570566Y-65047059D01*
X138396536Y-65154814D01*
X138245266Y-65292715D01*
X138121913Y-65456063D01*
X138030671Y-65639301D01*
X137974654Y-65836180D01*
X137955768Y-66039995D01*
X137955768Y-66040004D01*
X137974654Y-66243819D01*
X138011981Y-66375010D01*
X138030672Y-66440701D01*
X138121912Y-66623935D01*
X138138388Y-66645753D01*
X138245266Y-66787284D01*
X138396536Y-66925185D01*
X138570566Y-67032940D01*
X138570568Y-67032940D01*
X138570573Y-67032944D01*
X138761444Y-67106888D01*
X138962653Y-67144500D01*
X138962655Y-67144500D01*
X139167345Y-67144500D01*
X139167347Y-67144500D01*
X139368556Y-67106888D01*
X139559427Y-67032944D01*
X139733462Y-66925186D01*
X139884732Y-66787285D01*
X139886126Y-66785440D01*
X139921514Y-66738578D01*
X140008088Y-66623935D01*
X140099328Y-66440701D01*
X140155345Y-66243821D01*
X140165387Y-66135451D01*
X140174232Y-66040004D01*
X140174232Y-66039995D01*
X140155345Y-65836180D01*
X140141068Y-65786000D01*
X140099328Y-65639299D01*
X140008088Y-65456065D01*
X139960143Y-65392575D01*
X139935053Y-65326159D01*
X139949853Y-65256722D01*
X139999844Y-65206310D01*
X140069154Y-65190927D01*
X140135778Y-65215459D01*
X140149788Y-65227548D01*
X140516290Y-65594050D01*
X140550316Y-65656362D01*
X140548385Y-65717626D01*
X140514654Y-65836180D01*
X140495768Y-66039995D01*
X140495768Y-66040004D01*
X140514654Y-66243819D01*
X140551981Y-66375010D01*
X140570672Y-66440701D01*
X140661912Y-66623935D01*
X140678388Y-66645753D01*
X140785266Y-66787284D01*
X140936536Y-66925185D01*
X141110566Y-67032940D01*
X141110568Y-67032940D01*
X141110573Y-67032944D01*
X141301444Y-67106888D01*
X141502653Y-67144500D01*
X141502655Y-67144500D01*
X141707345Y-67144500D01*
X141707347Y-67144500D01*
X141908556Y-67106888D01*
X142099427Y-67032944D01*
X142273462Y-66925186D01*
X142404700Y-66805546D01*
X142468516Y-66774436D01*
X142539022Y-66782766D01*
X142592799Y-66826392D01*
X142604969Y-66843774D01*
X142607923Y-66848411D01*
X142627638Y-66882558D01*
X142627639Y-66882559D01*
X142627640Y-66882560D01*
X142637921Y-66891187D01*
X142657850Y-66907909D01*
X142661893Y-66911613D01*
X143273379Y-67523099D01*
X143277083Y-67527142D01*
X143302438Y-67557358D01*
X143302440Y-67557360D01*
X143336594Y-67577079D01*
X143341219Y-67580025D01*
X143358982Y-67592463D01*
X143373536Y-67602654D01*
X143379988Y-67605662D01*
X143392850Y-67610989D01*
X143399556Y-67613430D01*
X143399560Y-67613432D01*
X143438412Y-67620282D01*
X143443748Y-67621465D01*
X143481857Y-67631677D01*
X143506881Y-67629487D01*
X143521153Y-67628240D01*
X143526645Y-67628000D01*
X145398358Y-67628000D01*
X145403850Y-67628240D01*
X145420255Y-67629674D01*
X145443143Y-67631677D01*
X145481262Y-67621461D01*
X145486583Y-67620282D01*
X145525440Y-67613432D01*
X145525441Y-67613431D01*
X145525443Y-67613431D01*
X145532163Y-67610984D01*
X145544973Y-67605679D01*
X145551460Y-67602653D01*
X145551466Y-67602652D01*
X145583781Y-67580024D01*
X145588410Y-67577077D01*
X145622558Y-67557362D01*
X145622562Y-67557358D01*
X145647917Y-67527139D01*
X145651610Y-67523108D01*
X146097347Y-67077371D01*
X146159657Y-67043347D01*
X146230472Y-67048412D01*
X146231956Y-67048976D01*
X146381444Y-67106888D01*
X146582653Y-67144500D01*
X146582655Y-67144500D01*
X146787345Y-67144500D01*
X146787347Y-67144500D01*
X146988556Y-67106888D01*
X147179427Y-67032944D01*
X147353462Y-66925186D01*
X147504732Y-66787285D01*
X147506126Y-66785440D01*
X147585860Y-66679854D01*
X147628088Y-66623935D01*
X147628208Y-66623693D01*
X147628296Y-66623598D01*
X147631155Y-66618982D01*
X147632057Y-66619541D01*
X147676474Y-66571630D01*
X147745228Y-66553925D01*
X147812639Y-66576202D01*
X147857305Y-66631387D01*
X147867000Y-66679854D01*
X147867000Y-66938597D01*
X147873505Y-66999093D01*
X147924555Y-67135964D01*
X147924555Y-67135965D01*
X148012095Y-67252904D01*
X148129034Y-67340444D01*
X148265906Y-67391494D01*
X148326402Y-67397999D01*
X148326415Y-67398000D01*
X148971000Y-67398000D01*
X148971000Y-66473674D01*
X149082685Y-66524680D01*
X149189237Y-66540000D01*
X149260763Y-66540000D01*
X149367315Y-66524680D01*
X149479000Y-66473674D01*
X149479000Y-67398000D01*
X150123585Y-67398000D01*
X150123597Y-67397999D01*
X150184093Y-67391494D01*
X150320964Y-67340444D01*
X150320965Y-67340444D01*
X150437904Y-67252904D01*
X150525444Y-67135965D01*
X150525444Y-67135964D01*
X150576494Y-66999093D01*
X150582999Y-66938597D01*
X150583000Y-66938585D01*
X150583000Y-66294000D01*
X149656116Y-66294000D01*
X149684493Y-66249844D01*
X149725000Y-66111889D01*
X149725000Y-65968111D01*
X149684493Y-65830156D01*
X149656116Y-65786000D01*
X150583000Y-65786000D01*
X150583000Y-65141414D01*
X150582999Y-65141402D01*
X150576494Y-65080906D01*
X150525444Y-64944035D01*
X150525444Y-64944034D01*
X150437904Y-64827095D01*
X150320965Y-64739555D01*
X150184093Y-64688505D01*
X150123597Y-64682000D01*
X149479000Y-64682000D01*
X149479000Y-65606325D01*
X149367315Y-65555320D01*
X149260763Y-65540000D01*
X149189237Y-65540000D01*
X149082685Y-65555320D01*
X148971000Y-65606325D01*
X148971000Y-64682000D01*
X148326402Y-64682000D01*
X148265906Y-64688505D01*
X148129035Y-64739555D01*
X148129034Y-64739555D01*
X148012095Y-64827095D01*
X147924555Y-64944034D01*
X147924555Y-64944035D01*
X147873505Y-65080906D01*
X147867000Y-65141402D01*
X147867000Y-65400145D01*
X147846998Y-65468266D01*
X147793342Y-65514759D01*
X147723068Y-65524863D01*
X147658488Y-65495369D01*
X147631630Y-65460723D01*
X147631155Y-65461018D01*
X147628360Y-65456505D01*
X147628211Y-65456312D01*
X147628087Y-65456063D01*
X147504733Y-65292715D01*
X147353463Y-65154814D01*
X147179433Y-65047059D01*
X147179428Y-65047057D01*
X147179427Y-65047056D01*
X147179422Y-65047054D01*
X146988559Y-64973113D01*
X146988560Y-64973113D01*
X146988557Y-64973112D01*
X146988556Y-64973112D01*
X146787347Y-64935500D01*
X146582653Y-64935500D01*
X146381444Y-64973112D01*
X146381439Y-64973113D01*
X146190577Y-65047054D01*
X146190566Y-65047059D01*
X146016536Y-65154814D01*
X145865266Y-65292715D01*
X145741913Y-65456063D01*
X145650671Y-65639301D01*
X145594654Y-65836180D01*
X145575768Y-66039995D01*
X145575768Y-66040004D01*
X145594654Y-66243819D01*
X145650669Y-66440692D01*
X145650674Y-66440705D01*
X145671396Y-66482321D01*
X145683854Y-66552216D01*
X145656547Y-66617751D01*
X145647701Y-66627578D01*
X145320185Y-66955095D01*
X145257872Y-66989120D01*
X145231089Y-66992000D01*
X145063181Y-66992000D01*
X144995060Y-66971998D01*
X144948567Y-66918342D01*
X144938463Y-66848068D01*
X144962631Y-66790068D01*
X145028273Y-66703143D01*
X145088088Y-66623935D01*
X145179328Y-66440701D01*
X145235345Y-66243821D01*
X145245387Y-66135451D01*
X145254232Y-66040004D01*
X145254232Y-66039995D01*
X145235345Y-65836180D01*
X145221068Y-65786000D01*
X145179328Y-65639299D01*
X145088088Y-65456065D01*
X144989988Y-65326159D01*
X144964733Y-65292715D01*
X144813463Y-65154814D01*
X144639433Y-65047059D01*
X144639428Y-65047057D01*
X144639427Y-65047056D01*
X144639422Y-65047054D01*
X144448559Y-64973113D01*
X144448560Y-64973113D01*
X144448557Y-64973112D01*
X144448556Y-64973112D01*
X144247347Y-64935500D01*
X144042653Y-64935500D01*
X143965956Y-64949837D01*
X143841442Y-64973112D01*
X143691957Y-65031023D01*
X143621211Y-65036979D01*
X143558475Y-65003741D01*
X143557346Y-65002626D01*
X140435905Y-61881184D01*
X140401879Y-61818872D01*
X140399000Y-61792089D01*
X140399000Y-57720084D01*
X140419002Y-57651963D01*
X140472658Y-57605470D01*
X140542932Y-57595366D01*
X140582203Y-57607817D01*
X140693445Y-57664498D01*
X140788166Y-57679500D01*
X140788168Y-57679500D01*
X141151832Y-57679500D01*
X141151834Y-57679500D01*
X141246555Y-57664498D01*
X141360723Y-57606326D01*
X141451326Y-57515723D01*
X141492733Y-57434455D01*
X141541481Y-57382842D01*
X141610396Y-57365776D01*
X141677598Y-57388677D01*
X141717267Y-57434457D01*
X141758673Y-57515723D01*
X141849276Y-57606326D01*
X141894654Y-57629447D01*
X141963445Y-57664498D01*
X142058166Y-57679500D01*
X142058168Y-57679500D01*
X142353589Y-57679500D01*
X142421710Y-57699502D01*
X142468203Y-57753158D01*
X142478307Y-57823432D01*
X142448813Y-57888012D01*
X142442697Y-57894581D01*
X142348198Y-57989081D01*
X142280909Y-58056370D01*
X142276856Y-58060084D01*
X142246639Y-58085440D01*
X142226914Y-58119601D01*
X142223963Y-58124233D01*
X142201348Y-58156533D01*
X142198352Y-58162957D01*
X142192994Y-58175893D01*
X142190566Y-58182563D01*
X142183718Y-58221399D01*
X142182529Y-58226764D01*
X142172323Y-58264851D01*
X142172323Y-58264856D01*
X142175760Y-58304150D01*
X142176000Y-58309642D01*
X142176000Y-59800357D01*
X142175760Y-59805849D01*
X142172323Y-59845143D01*
X142182529Y-59883235D01*
X142183719Y-59888602D01*
X142190567Y-59927437D01*
X142193001Y-59934124D01*
X142198347Y-59947029D01*
X142201349Y-59953468D01*
X142223970Y-59985775D01*
X142226918Y-59990401D01*
X142246640Y-60024560D01*
X142266649Y-60041350D01*
X142276850Y-60049909D01*
X142280893Y-60053613D01*
X142399807Y-60172527D01*
X142518595Y-60291315D01*
X142552621Y-60353627D01*
X142555500Y-60380410D01*
X142555500Y-60913246D01*
X142555502Y-60913270D01*
X142561959Y-60973339D01*
X142561959Y-60973341D01*
X142612657Y-61109266D01*
X142628177Y-61129998D01*
X142699596Y-61225404D01*
X142815733Y-61312342D01*
X142951658Y-61363040D01*
X143011745Y-61369500D01*
X144008254Y-61369499D01*
X144068342Y-61363040D01*
X144204267Y-61312342D01*
X144320404Y-61225404D01*
X144407342Y-61109267D01*
X144458040Y-60973342D01*
X144464500Y-60913255D01*
X144464499Y-60291746D01*
X144461837Y-60266985D01*
X144474442Y-60197119D01*
X144522820Y-60145157D01*
X144591611Y-60127598D01*
X144658975Y-60150018D01*
X144683637Y-60172527D01*
X144699440Y-60191360D01*
X144728784Y-60208302D01*
X144733594Y-60211079D01*
X144738219Y-60214025D01*
X144750247Y-60222447D01*
X144770536Y-60236654D01*
X144776988Y-60239662D01*
X144789850Y-60244989D01*
X144796558Y-60247431D01*
X144796560Y-60247432D01*
X144835412Y-60254282D01*
X144840748Y-60255465D01*
X144878857Y-60265677D01*
X144903918Y-60263484D01*
X144918150Y-60262240D01*
X144923642Y-60262000D01*
X145454500Y-60262000D01*
X145522621Y-60282002D01*
X145569114Y-60335658D01*
X145580500Y-60388000D01*
X145580500Y-60990063D01*
X145580501Y-60990073D01*
X145595265Y-61064300D01*
X145623197Y-61106103D01*
X145651516Y-61148484D01*
X145661698Y-61155287D01*
X145707225Y-61209763D01*
X145713403Y-61227441D01*
X145723529Y-61265235D01*
X145724719Y-61270602D01*
X145731567Y-61309437D01*
X145734001Y-61316124D01*
X145739347Y-61329029D01*
X145742349Y-61335468D01*
X145764970Y-61367775D01*
X145767918Y-61372401D01*
X145779104Y-61391777D01*
X145787639Y-61406559D01*
X145817844Y-61431904D01*
X145821899Y-61435619D01*
X146067375Y-61681095D01*
X146071090Y-61685149D01*
X146096441Y-61715361D01*
X146096443Y-61715362D01*
X146130591Y-61735077D01*
X146130597Y-61735080D01*
X146135229Y-61738031D01*
X146167534Y-61760651D01*
X146167536Y-61760652D01*
X146174000Y-61763666D01*
X146186879Y-61769001D01*
X146193557Y-61771431D01*
X146193558Y-61771431D01*
X146193560Y-61771432D01*
X146232416Y-61778283D01*
X146237757Y-61779467D01*
X146275857Y-61789677D01*
X146299539Y-61787605D01*
X146315150Y-61786240D01*
X146320642Y-61786000D01*
X150478358Y-61786000D01*
X150483850Y-61786240D01*
X150500255Y-61787674D01*
X150523143Y-61789677D01*
X150561262Y-61779461D01*
X150566583Y-61778282D01*
X150605440Y-61771432D01*
X150605441Y-61771431D01*
X150605443Y-61771431D01*
X150612163Y-61768984D01*
X150624973Y-61763679D01*
X150631460Y-61760653D01*
X150631466Y-61760652D01*
X150663781Y-61738024D01*
X150668410Y-61735077D01*
X150702558Y-61715362D01*
X150727916Y-61685141D01*
X150731610Y-61681108D01*
X151089109Y-61323609D01*
X151093141Y-61319916D01*
X151097660Y-61316124D01*
X151123360Y-61294560D01*
X151143088Y-61260388D01*
X151146014Y-61255794D01*
X151168651Y-61223466D01*
X151168651Y-61223463D01*
X151171683Y-61216963D01*
X151176985Y-61204162D01*
X151179432Y-61197440D01*
X151180418Y-61191846D01*
X151186282Y-61158587D01*
X151187470Y-61153231D01*
X151188743Y-61148482D01*
X151197677Y-61115143D01*
X151195215Y-61086999D01*
X151194240Y-61075850D01*
X151194000Y-61070358D01*
X151194000Y-59579644D01*
X151194240Y-59574152D01*
X151196833Y-59544500D01*
X151197677Y-59534857D01*
X151187465Y-59496748D01*
X151186282Y-59491412D01*
X151179432Y-59452560D01*
X151179430Y-59452556D01*
X151176989Y-59445850D01*
X151171662Y-59432988D01*
X151168654Y-59426536D01*
X151150355Y-59400403D01*
X151146025Y-59394219D01*
X151143079Y-59389594D01*
X151136323Y-59377893D01*
X151123360Y-59355440D01*
X151114445Y-59347959D01*
X151093142Y-59330083D01*
X151089099Y-59326379D01*
X150851404Y-59088684D01*
X150817378Y-59026372D01*
X150814499Y-58999589D01*
X150814499Y-58466753D01*
X150814499Y-58466746D01*
X150808040Y-58406658D01*
X150757342Y-58270733D01*
X150670404Y-58154596D01*
X150554267Y-58067658D01*
X150554265Y-58067657D01*
X150554266Y-58067657D01*
X150418349Y-58016962D01*
X150418344Y-58016960D01*
X150418342Y-58016960D01*
X150388298Y-58013730D01*
X150358256Y-58010500D01*
X149361753Y-58010500D01*
X149361729Y-58010502D01*
X149301660Y-58016959D01*
X149301658Y-58016959D01*
X149165733Y-58067657D01*
X149049596Y-58154596D01*
X148962657Y-58270733D01*
X148922823Y-58377533D01*
X148880277Y-58434369D01*
X148813756Y-58459179D01*
X148804768Y-58459500D01*
X148623410Y-58459500D01*
X148555289Y-58439498D01*
X148534315Y-58422595D01*
X147803479Y-57691759D01*
X147769453Y-57629447D01*
X147774518Y-57558632D01*
X147796484Y-57524459D01*
X147795499Y-57523743D01*
X147801326Y-57515723D01*
X147801325Y-57515723D01*
X147842733Y-57434455D01*
X147891481Y-57382842D01*
X147960396Y-57365776D01*
X148027598Y-57388677D01*
X148067267Y-57434457D01*
X148108673Y-57515723D01*
X148199276Y-57606326D01*
X148244654Y-57629447D01*
X148313445Y-57664498D01*
X148408166Y-57679500D01*
X148408168Y-57679500D01*
X148771832Y-57679500D01*
X148771834Y-57679500D01*
X148866555Y-57664498D01*
X148980723Y-57606326D01*
X149071326Y-57515723D01*
X149112733Y-57434455D01*
X149161481Y-57382842D01*
X149230396Y-57365776D01*
X149297598Y-57388677D01*
X149337267Y-57434457D01*
X149378673Y-57515723D01*
X149469276Y-57606326D01*
X149514654Y-57629447D01*
X149583445Y-57664498D01*
X149678166Y-57679500D01*
X149678168Y-57679500D01*
X150041832Y-57679500D01*
X150041834Y-57679500D01*
X150136555Y-57664498D01*
X150250723Y-57606326D01*
X150341326Y-57515723D01*
X150399498Y-57401555D01*
X150414500Y-57306834D01*
X150414500Y-57030499D01*
X150434502Y-56962379D01*
X150488158Y-56915886D01*
X150540500Y-56904500D01*
X150718256Y-56904500D01*
X150786377Y-56924502D01*
X150832870Y-56978158D01*
X150835602Y-56984755D01*
X150835823Y-56985159D01*
X150835825Y-56985163D01*
X150897681Y-57067793D01*
X150918455Y-57095543D01*
X150931792Y-57105527D01*
X150974338Y-57162363D01*
X150979402Y-57233179D01*
X150972693Y-57254609D01*
X150970771Y-57259247D01*
X150951715Y-57403999D01*
X150951715Y-57404000D01*
X150970771Y-57548752D01*
X151026644Y-57683641D01*
X151026649Y-57683649D01*
X151115525Y-57799474D01*
X151146748Y-57823432D01*
X151231357Y-57888355D01*
X151366246Y-57944228D01*
X151511000Y-57963285D01*
X151655754Y-57944228D01*
X151790643Y-57888355D01*
X151906474Y-57799474D01*
X151995355Y-57683643D01*
X152051228Y-57548754D01*
X152070285Y-57404000D01*
X152066401Y-57374501D01*
X152051228Y-57259246D01*
X152049309Y-57254615D01*
X152041718Y-57184027D01*
X152073495Y-57120539D01*
X152090203Y-57105530D01*
X152103544Y-57095544D01*
X152186175Y-56985163D01*
X152234360Y-56855973D01*
X152240500Y-56798864D01*
X152240500Y-56257136D01*
X152234360Y-56200027D01*
X152186175Y-56070837D01*
X152131103Y-55997270D01*
X152106293Y-55930752D01*
X152121384Y-55861377D01*
X152165826Y-55814521D01*
X152218725Y-55781892D01*
X152218734Y-55781885D01*
X152339885Y-55660734D01*
X152339890Y-55660728D01*
X152429847Y-55514884D01*
X152483742Y-55352241D01*
X152483744Y-55352229D01*
X152493999Y-55251852D01*
X152494000Y-55251852D01*
X152494000Y-55232000D01*
X150528000Y-55232000D01*
X150528000Y-55251850D01*
X150528314Y-55254925D01*
X150515336Y-55324726D01*
X150466682Y-55376429D01*
X150397798Y-55393620D01*
X150330555Y-55370841D01*
X150313871Y-55356821D01*
X150250723Y-55293673D01*
X150136553Y-55235501D01*
X150071836Y-55225251D01*
X150041834Y-55220500D01*
X149678166Y-55220500D01*
X149652266Y-55224602D01*
X149583446Y-55235501D01*
X149469276Y-55293673D01*
X149378675Y-55384274D01*
X149378673Y-55384277D01*
X149337267Y-55465542D01*
X149288518Y-55517157D01*
X149219604Y-55534223D01*
X149152402Y-55511322D01*
X149112733Y-55465542D01*
X149071326Y-55384277D01*
X149071324Y-55384274D01*
X148980723Y-55293673D01*
X148866553Y-55235501D01*
X148801835Y-55225251D01*
X148771834Y-55220500D01*
X148408166Y-55220500D01*
X148382266Y-55224602D01*
X148313446Y-55235501D01*
X148199276Y-55293673D01*
X148108675Y-55384274D01*
X148108673Y-55384277D01*
X148067267Y-55465542D01*
X148018518Y-55517157D01*
X147949604Y-55534223D01*
X147882402Y-55511322D01*
X147842733Y-55465542D01*
X147801326Y-55384277D01*
X147801324Y-55384274D01*
X147710723Y-55293673D01*
X147596553Y-55235501D01*
X147531836Y-55225251D01*
X147501834Y-55220500D01*
X147138166Y-55220500D01*
X147112266Y-55224602D01*
X147043446Y-55235501D01*
X146929276Y-55293673D01*
X146838675Y-55384274D01*
X146838673Y-55384277D01*
X146797267Y-55465542D01*
X146748518Y-55517157D01*
X146679604Y-55534223D01*
X146612402Y-55511322D01*
X146572733Y-55465542D01*
X146531326Y-55384277D01*
X146531324Y-55384274D01*
X146440723Y-55293673D01*
X146326553Y-55235501D01*
X146261835Y-55225251D01*
X146231834Y-55220500D01*
X145868166Y-55220500D01*
X145842266Y-55224602D01*
X145773446Y-55235501D01*
X145659276Y-55293673D01*
X145568675Y-55384274D01*
X145568673Y-55384277D01*
X145527267Y-55465542D01*
X145478518Y-55517157D01*
X145409604Y-55534223D01*
X145342402Y-55511322D01*
X145302733Y-55465542D01*
X145261326Y-55384277D01*
X145261324Y-55384274D01*
X145170723Y-55293673D01*
X145056553Y-55235501D01*
X144991836Y-55225251D01*
X144961834Y-55220500D01*
X144598166Y-55220500D01*
X144572266Y-55224602D01*
X144503446Y-55235501D01*
X144389276Y-55293673D01*
X144298675Y-55384274D01*
X144298673Y-55384277D01*
X144257267Y-55465542D01*
X144208518Y-55517157D01*
X144139604Y-55534223D01*
X144072402Y-55511322D01*
X144032733Y-55465542D01*
X143991326Y-55384277D01*
X143991324Y-55384274D01*
X143900723Y-55293673D01*
X143786553Y-55235501D01*
X143721835Y-55225251D01*
X143691834Y-55220500D01*
X143328166Y-55220500D01*
X143302266Y-55224602D01*
X143233446Y-55235501D01*
X143119276Y-55293673D01*
X143028675Y-55384274D01*
X143028673Y-55384277D01*
X142987267Y-55465542D01*
X142938518Y-55517157D01*
X142869604Y-55534223D01*
X142802402Y-55511322D01*
X142762733Y-55465542D01*
X142721326Y-55384277D01*
X142721324Y-55384274D01*
X142630723Y-55293673D01*
X142516553Y-55235501D01*
X142451836Y-55225251D01*
X142421834Y-55220500D01*
X142058166Y-55220500D01*
X142032266Y-55224602D01*
X141963446Y-55235501D01*
X141849276Y-55293673D01*
X141758675Y-55384274D01*
X141758673Y-55384277D01*
X141717267Y-55465542D01*
X141668518Y-55517157D01*
X141599604Y-55534223D01*
X141532402Y-55511322D01*
X141492733Y-55465542D01*
X141451326Y-55384277D01*
X141451324Y-55384274D01*
X141360723Y-55293673D01*
X141246553Y-55235501D01*
X141181835Y-55225251D01*
X141151834Y-55220500D01*
X140788166Y-55220500D01*
X140743490Y-55227575D01*
X140673079Y-55218474D01*
X140618766Y-55172751D01*
X140597795Y-55104923D01*
X140616823Y-55036524D01*
X140634679Y-55014039D01*
X140683816Y-54964902D01*
X140746127Y-54930879D01*
X140772909Y-54928000D01*
X145906358Y-54928000D01*
X145911850Y-54928240D01*
X145928255Y-54929674D01*
X145951143Y-54931677D01*
X145989262Y-54921461D01*
X145994583Y-54920282D01*
X146033440Y-54913432D01*
X146033441Y-54913431D01*
X146033443Y-54913431D01*
X146040163Y-54910984D01*
X146052973Y-54905679D01*
X146059460Y-54902653D01*
X146059466Y-54902652D01*
X146091781Y-54880024D01*
X146096410Y-54877077D01*
X146130558Y-54857361D01*
X146130557Y-54857361D01*
X146130560Y-54857360D01*
X146155918Y-54827138D01*
X146159609Y-54823109D01*
X147668817Y-53313902D01*
X147731127Y-53279879D01*
X147757910Y-53277000D01*
X148319358Y-53277000D01*
X148324850Y-53277240D01*
X148341255Y-53278674D01*
X148364143Y-53280677D01*
X148402262Y-53270461D01*
X148407583Y-53269282D01*
X148446440Y-53262432D01*
X148446441Y-53262431D01*
X148446443Y-53262431D01*
X148453163Y-53259984D01*
X148465973Y-53254679D01*
X148472460Y-53251653D01*
X148472466Y-53251652D01*
X148504781Y-53229024D01*
X148509410Y-53226077D01*
X148543558Y-53206362D01*
X148568916Y-53176141D01*
X148572610Y-53172108D01*
X148803108Y-52941610D01*
X148807141Y-52937916D01*
X148837362Y-52912558D01*
X148857077Y-52878410D01*
X148860024Y-52873781D01*
X148882652Y-52841466D01*
X148882653Y-52841460D01*
X148885679Y-52834973D01*
X148890984Y-52822163D01*
X148893430Y-52815443D01*
X148893429Y-52815443D01*
X148893432Y-52815440D01*
X148900281Y-52776588D01*
X148901468Y-52771238D01*
X148910079Y-52739104D01*
X148947031Y-52678485D01*
X148974583Y-52659454D01*
X148980723Y-52656326D01*
X148980729Y-52656319D01*
X148981134Y-52656026D01*
X148981725Y-52655815D01*
X148989565Y-52651821D01*
X148990080Y-52652832D01*
X149048000Y-52632160D01*
X149117153Y-52648234D01*
X149163659Y-52693814D01*
X149185946Y-52731499D01*
X149185949Y-52731503D01*
X149303497Y-52849051D01*
X149446600Y-52933681D01*
X149606000Y-52979991D01*
X149606000Y-51372000D01*
X149626002Y-51303879D01*
X149679658Y-51257386D01*
X149732000Y-51246000D01*
X149988000Y-51246000D01*
X150056121Y-51266002D01*
X150102614Y-51319658D01*
X150114000Y-51372000D01*
X150114000Y-52979991D01*
X150273399Y-52933681D01*
X150416502Y-52849051D01*
X150416503Y-52849050D01*
X150462649Y-52802905D01*
X150524961Y-52768879D01*
X150551744Y-52766000D01*
X151893000Y-52766000D01*
X151961121Y-52786002D01*
X152007614Y-52839658D01*
X152019000Y-52892000D01*
X152019000Y-53148000D01*
X151998998Y-53216121D01*
X151945342Y-53262614D01*
X151893000Y-53274000D01*
X150532000Y-53274000D01*
X150532000Y-53320516D01*
X150542605Y-53424318D01*
X150542606Y-53424321D01*
X150598342Y-53592525D01*
X150691365Y-53743339D01*
X150691370Y-53743345D01*
X150816654Y-53868629D01*
X150816660Y-53868634D01*
X150883727Y-53910001D01*
X150931205Y-53962787D01*
X150942608Y-54032861D01*
X150914316Y-54097977D01*
X150883728Y-54124482D01*
X150803274Y-54174107D01*
X150803265Y-54174114D01*
X150682114Y-54295265D01*
X150682109Y-54295271D01*
X150592152Y-54441115D01*
X150538257Y-54603758D01*
X150538255Y-54603770D01*
X150528000Y-54704147D01*
X150528000Y-54724000D01*
X152494000Y-54724000D01*
X152494000Y-54704147D01*
X152483744Y-54603770D01*
X152483742Y-54603758D01*
X152429847Y-54441115D01*
X152339890Y-54295271D01*
X152339885Y-54295265D01*
X152280310Y-54235690D01*
X152246284Y-54173378D01*
X152251349Y-54102563D01*
X152293896Y-54045727D01*
X152356600Y-54021247D01*
X152394324Y-54017393D01*
X152562525Y-53961657D01*
X152642353Y-53912419D01*
X152710833Y-53893682D01*
X152778571Y-53914941D01*
X152824063Y-53969448D01*
X152834500Y-54019660D01*
X152834500Y-66793734D01*
X152814498Y-66861855D01*
X152760842Y-66908348D01*
X152690568Y-66918452D01*
X152625988Y-66888958D01*
X152606513Y-66865850D01*
X152606121Y-66866158D01*
X152601413Y-66860149D01*
X152479850Y-66738586D01*
X152479840Y-66738578D01*
X152332704Y-66649632D01*
X152331220Y-66649170D01*
X152330270Y-66648537D01*
X152325755Y-66646505D01*
X152326093Y-66645753D01*
X152272137Y-66609804D01*
X152243715Y-66544745D01*
X152254979Y-66474647D01*
X152293887Y-66427500D01*
X152365010Y-66375010D01*
X152446369Y-66264773D01*
X152491621Y-66135451D01*
X152494500Y-66104749D01*
X152494499Y-65595252D01*
X152491621Y-65564549D01*
X152455394Y-65461018D01*
X152446371Y-65435232D01*
X152446368Y-65435225D01*
X152365010Y-65324989D01*
X152254774Y-65243631D01*
X152254769Y-65243629D01*
X152203884Y-65225823D01*
X152146192Y-65184444D01*
X152120030Y-65118443D01*
X152119500Y-65106894D01*
X152119500Y-65062184D01*
X152139502Y-64994063D01*
X152193158Y-64947570D01*
X152201440Y-64944139D01*
X152250387Y-64925883D01*
X152359330Y-64844330D01*
X152440883Y-64735387D01*
X152488441Y-64607881D01*
X152494500Y-64551522D01*
X152494500Y-64023478D01*
X152494388Y-64022432D01*
X152488442Y-63967123D01*
X152488440Y-63967115D01*
X152440883Y-63839614D01*
X152440883Y-63839613D01*
X152440267Y-63838790D01*
X152359330Y-63730669D01*
X152250390Y-63649119D01*
X152250386Y-63649116D01*
X152167108Y-63618055D01*
X152110272Y-63575509D01*
X152085462Y-63508988D01*
X152100554Y-63439614D01*
X152150756Y-63389412D01*
X152167108Y-63381945D01*
X152179973Y-63377146D01*
X152250387Y-63350883D01*
X152359330Y-63269330D01*
X152440883Y-63160387D01*
X152488441Y-63032881D01*
X152494500Y-62976522D01*
X152494500Y-62448478D01*
X152493767Y-62441656D01*
X152488442Y-62392123D01*
X152488440Y-62392115D01*
X152453669Y-62298893D01*
X152440883Y-62264613D01*
X152419210Y-62235661D01*
X152359330Y-62155669D01*
X152250390Y-62074119D01*
X152250385Y-62074116D01*
X152122884Y-62026559D01*
X152122876Y-62026557D01*
X152066533Y-62020500D01*
X152066522Y-62020500D01*
X151463478Y-62020500D01*
X151463466Y-62020500D01*
X151407123Y-62026557D01*
X151407115Y-62026559D01*
X151279614Y-62074116D01*
X151279609Y-62074119D01*
X151170669Y-62155669D01*
X151089119Y-62264609D01*
X151089118Y-62264610D01*
X151089116Y-62264613D01*
X151089117Y-62264613D01*
X151086152Y-62272564D01*
X151084857Y-62276035D01*
X151042309Y-62332870D01*
X150975788Y-62357679D01*
X150966802Y-62358000D01*
X150951334Y-62358000D01*
X150925477Y-62355318D01*
X150923637Y-62354932D01*
X150916351Y-62353404D01*
X150895783Y-62355968D01*
X150883365Y-62357516D01*
X150875577Y-62358000D01*
X150872119Y-62358000D01*
X150851655Y-62361414D01*
X150849082Y-62361789D01*
X150798948Y-62368038D01*
X150791799Y-62370166D01*
X150784804Y-62372569D01*
X150740347Y-62396627D01*
X150738035Y-62397817D01*
X150692658Y-62420001D01*
X150686608Y-62424320D01*
X150680748Y-62428882D01*
X150646531Y-62466053D01*
X150644729Y-62467930D01*
X150589848Y-62522811D01*
X150527539Y-62556835D01*
X150500755Y-62559715D01*
X150495000Y-62559715D01*
X150350247Y-62578771D01*
X150282801Y-62606708D01*
X150215358Y-62634645D01*
X150215357Y-62634646D01*
X150215356Y-62634646D01*
X150099526Y-62723526D01*
X150010646Y-62839356D01*
X150010645Y-62839358D01*
X149997735Y-62870525D01*
X149954771Y-62974247D01*
X149935715Y-63118999D01*
X149935715Y-63119000D01*
X149954771Y-63263752D01*
X150010644Y-63398641D01*
X150010649Y-63398649D01*
X150099525Y-63514474D01*
X150205120Y-63595500D01*
X150215357Y-63603355D01*
X150350246Y-63659228D01*
X150495000Y-63678285D01*
X150639754Y-63659228D01*
X150774643Y-63603355D01*
X150890474Y-63514474D01*
X150979355Y-63398643D01*
X151003452Y-63340467D01*
X151047997Y-63285189D01*
X151115360Y-63262767D01*
X151184152Y-63280324D01*
X151195368Y-63287819D01*
X151265703Y-63340470D01*
X151279613Y-63350883D01*
X151317766Y-63365113D01*
X151362891Y-63381945D01*
X151419727Y-63424492D01*
X151444537Y-63491012D01*
X151429445Y-63560386D01*
X151379242Y-63610588D01*
X151362891Y-63618055D01*
X151279614Y-63649116D01*
X151279609Y-63649119D01*
X151170669Y-63730669D01*
X151089119Y-63839609D01*
X151089116Y-63839614D01*
X151041559Y-63967115D01*
X151041557Y-63967123D01*
X151035500Y-64023466D01*
X151035500Y-64551533D01*
X151041557Y-64607876D01*
X151041559Y-64607884D01*
X151089116Y-64735385D01*
X151089119Y-64735390D01*
X151170669Y-64844330D01*
X151279609Y-64925880D01*
X151279609Y-64925881D01*
X151279611Y-64925881D01*
X151279613Y-64925883D01*
X151328534Y-64944130D01*
X151385368Y-64986675D01*
X151410179Y-65053195D01*
X151410500Y-65062184D01*
X151410500Y-65106894D01*
X151390498Y-65175015D01*
X151336842Y-65221508D01*
X151326116Y-65225823D01*
X151275230Y-65243629D01*
X151275225Y-65243631D01*
X151164989Y-65324989D01*
X151083631Y-65435225D01*
X151083628Y-65435232D01*
X151038379Y-65564545D01*
X151035500Y-65595248D01*
X151035500Y-66104740D01*
X151035501Y-66104755D01*
X151038379Y-66135452D01*
X151038380Y-66135455D01*
X151083628Y-66264767D01*
X151083631Y-66264774D01*
X151164989Y-66375010D01*
X151236108Y-66427498D01*
X151279040Y-66484043D01*
X151284587Y-66554822D01*
X151250986Y-66617365D01*
X151204010Y-66645984D01*
X151204245Y-66646505D01*
X151200075Y-66648381D01*
X151198783Y-66649169D01*
X151197296Y-66649632D01*
X151197295Y-66649632D01*
X151050159Y-66738578D01*
X151050149Y-66738586D01*
X150928586Y-66860149D01*
X150928578Y-66860159D01*
X150839633Y-67007293D01*
X150788481Y-67171446D01*
X150788481Y-67171447D01*
X150782000Y-67242777D01*
X150782000Y-67246000D01*
X151893000Y-67246000D01*
X151961121Y-67266002D01*
X152007614Y-67319658D01*
X152019000Y-67372000D01*
X152019000Y-68407999D01*
X152097222Y-68407999D01*
X152168553Y-68401518D01*
X152332706Y-68350366D01*
X152479840Y-68261421D01*
X152479850Y-68261413D01*
X152601413Y-68139850D01*
X152606121Y-68133842D01*
X152607445Y-68134879D01*
X152653023Y-68093136D01*
X152722992Y-68081101D01*
X152788360Y-68108805D01*
X152828373Y-68167452D01*
X152834500Y-68206265D01*
X152834500Y-68577242D01*
X152834260Y-68582736D01*
X152819211Y-68754736D01*
X152815398Y-68776365D01*
X152772854Y-68935142D01*
X152765342Y-68955781D01*
X152695870Y-69104763D01*
X152684888Y-69123783D01*
X152590607Y-69258431D01*
X152576489Y-69275256D01*
X152460256Y-69391489D01*
X152443431Y-69405607D01*
X152308783Y-69499888D01*
X152289763Y-69510870D01*
X152140781Y-69580342D01*
X152120142Y-69587854D01*
X151961365Y-69630398D01*
X151939736Y-69634211D01*
X151767736Y-69649260D01*
X151762242Y-69649500D01*
X133987758Y-69649500D01*
X133982264Y-69649260D01*
X133810263Y-69634212D01*
X133788634Y-69630398D01*
X133629857Y-69587854D01*
X133609218Y-69580342D01*
X133460236Y-69510870D01*
X133441216Y-69499888D01*
X133306568Y-69405607D01*
X133289743Y-69391489D01*
X133173510Y-69275256D01*
X133159392Y-69258431D01*
X133065111Y-69123783D01*
X133054129Y-69104763D01*
X132984657Y-68955781D01*
X132977147Y-68935148D01*
X132934600Y-68776363D01*
X132930787Y-68754735D01*
X132915740Y-68582736D01*
X132915500Y-68577242D01*
X132915500Y-68206265D01*
X132935502Y-68138144D01*
X132989158Y-68091651D01*
X133059432Y-68081547D01*
X133124012Y-68111041D01*
X133143486Y-68134149D01*
X133143879Y-68133842D01*
X133148586Y-68139850D01*
X133270149Y-68261413D01*
X133270159Y-68261421D01*
X133417293Y-68350366D01*
X133581447Y-68401518D01*
X133652777Y-68407999D01*
X133730999Y-68407998D01*
X133731000Y-67754000D01*
X134239000Y-67754000D01*
X134239000Y-68407999D01*
X134317222Y-68407999D01*
X134388553Y-68401518D01*
X134552706Y-68350366D01*
X134699840Y-68261421D01*
X134699850Y-68261413D01*
X134821413Y-68139850D01*
X134821421Y-68139840D01*
X134910366Y-67992706D01*
X134961518Y-67828553D01*
X134961518Y-67828552D01*
X134968000Y-67757222D01*
X134968000Y-67754000D01*
X150782001Y-67754000D01*
X150782001Y-67757221D01*
X150788481Y-67828553D01*
X150839633Y-67992706D01*
X150928578Y-68139840D01*
X150928586Y-68139850D01*
X151050149Y-68261413D01*
X151050159Y-68261421D01*
X151197293Y-68350366D01*
X151361447Y-68401518D01*
X151432777Y-68407999D01*
X151510999Y-68407998D01*
X151511000Y-68407998D01*
X151511000Y-67754000D01*
X150782001Y-67754000D01*
X134968000Y-67754000D01*
X134239000Y-67754000D01*
X133731000Y-67754000D01*
X133731000Y-67372000D01*
X133751002Y-67303879D01*
X133804658Y-67257386D01*
X133857000Y-67246000D01*
X134967999Y-67246000D01*
X134967999Y-67242778D01*
X134961518Y-67171446D01*
X134910366Y-67007293D01*
X134821421Y-66860159D01*
X134821413Y-66860149D01*
X134699850Y-66738586D01*
X134699840Y-66738578D01*
X134552704Y-66649632D01*
X134551220Y-66649170D01*
X134550270Y-66648537D01*
X134545755Y-66646505D01*
X134546093Y-66645753D01*
X134492137Y-66609804D01*
X134463715Y-66544745D01*
X134474979Y-66474647D01*
X134513887Y-66427500D01*
X134585010Y-66375010D01*
X134666369Y-66264773D01*
X134711621Y-66135451D01*
X134714500Y-66104749D01*
X134714500Y-66040004D01*
X135415768Y-66040004D01*
X135434654Y-66243819D01*
X135471981Y-66375010D01*
X135490672Y-66440701D01*
X135581912Y-66623935D01*
X135598388Y-66645753D01*
X135705266Y-66787284D01*
X135856536Y-66925185D01*
X136030566Y-67032940D01*
X136030568Y-67032940D01*
X136030573Y-67032944D01*
X136221444Y-67106888D01*
X136422653Y-67144500D01*
X136422655Y-67144500D01*
X136627345Y-67144500D01*
X136627347Y-67144500D01*
X136828556Y-67106888D01*
X137019427Y-67032944D01*
X137193462Y-66925186D01*
X137344732Y-66787285D01*
X137346126Y-66785440D01*
X137381514Y-66738578D01*
X137468088Y-66623935D01*
X137559328Y-66440701D01*
X137615345Y-66243821D01*
X137625387Y-66135451D01*
X137634232Y-66040004D01*
X137634232Y-66039995D01*
X137615345Y-65836180D01*
X137601068Y-65786000D01*
X137559328Y-65639299D01*
X137468088Y-65456065D01*
X137369988Y-65326159D01*
X137344733Y-65292715D01*
X137193463Y-65154814D01*
X137019433Y-65047059D01*
X137019428Y-65047057D01*
X137019427Y-65047056D01*
X137019422Y-65047054D01*
X136828559Y-64973113D01*
X136828560Y-64973113D01*
X136828557Y-64973112D01*
X136828556Y-64973112D01*
X136627347Y-64935500D01*
X136422653Y-64935500D01*
X136221444Y-64973112D01*
X136221439Y-64973113D01*
X136030577Y-65047054D01*
X136030566Y-65047059D01*
X135856536Y-65154814D01*
X135705266Y-65292715D01*
X135581913Y-65456063D01*
X135490671Y-65639301D01*
X135434654Y-65836180D01*
X135415768Y-66039995D01*
X135415768Y-66040004D01*
X134714500Y-66040004D01*
X134714499Y-65595252D01*
X134711621Y-65564549D01*
X134675394Y-65461018D01*
X134666371Y-65435232D01*
X134666368Y-65435225D01*
X134585010Y-65324989D01*
X134474774Y-65243631D01*
X134474769Y-65243629D01*
X134423884Y-65225823D01*
X134366192Y-65184444D01*
X134340030Y-65118443D01*
X134339500Y-65106894D01*
X134339500Y-65062184D01*
X134359502Y-64994063D01*
X134413158Y-64947570D01*
X134421440Y-64944139D01*
X134470387Y-64925883D01*
X134579330Y-64844330D01*
X134660883Y-64735387D01*
X134708441Y-64607881D01*
X134714500Y-64551522D01*
X134714500Y-64111527D01*
X134734502Y-64043406D01*
X134751400Y-64022437D01*
X136105431Y-62668406D01*
X136125608Y-62652021D01*
X136133416Y-62646921D01*
X136153842Y-62620676D01*
X136159001Y-62614837D01*
X136161442Y-62612397D01*
X136173526Y-62595470D01*
X136175028Y-62593455D01*
X136206085Y-62553556D01*
X136206087Y-62553548D01*
X136209624Y-62547013D01*
X136212884Y-62540347D01*
X136218105Y-62522810D01*
X136227312Y-62491881D01*
X136228083Y-62489475D01*
X136244500Y-62441656D01*
X136244500Y-62441649D01*
X136245724Y-62434310D01*
X136246642Y-62426952D01*
X136244554Y-62376473D01*
X136244500Y-62373869D01*
X136244500Y-60374834D01*
X136247182Y-60348974D01*
X136249095Y-60339853D01*
X136244983Y-60306866D01*
X136244500Y-60299076D01*
X136244500Y-60295627D01*
X136244500Y-60295623D01*
X136241081Y-60275138D01*
X136240712Y-60272602D01*
X136239849Y-60265676D01*
X136234461Y-60222449D01*
X136234459Y-60222446D01*
X136232341Y-60215330D01*
X136229929Y-60208305D01*
X136229929Y-60208302D01*
X136218048Y-60186348D01*
X136205872Y-60163848D01*
X136204693Y-60161559D01*
X136182499Y-60116160D01*
X136182496Y-60116157D01*
X136178176Y-60110107D01*
X136173617Y-60104249D01*
X136160785Y-60092437D01*
X136136423Y-60070009D01*
X136134566Y-60068227D01*
X134431467Y-58365127D01*
X134397441Y-58302815D01*
X134402506Y-58231999D01*
X134445053Y-58175164D01*
X134511573Y-58150353D01*
X134534665Y-58150823D01*
X134576166Y-58155500D01*
X134663834Y-58155500D01*
X134794777Y-58140746D01*
X134960789Y-58082656D01*
X135109713Y-57989081D01*
X135234081Y-57864713D01*
X135327656Y-57715789D01*
X135385746Y-57549777D01*
X135405439Y-57375000D01*
X135385746Y-57200223D01*
X135327656Y-57034211D01*
X135281500Y-56960754D01*
X135234081Y-56885286D01*
X135109713Y-56760918D01*
X134960791Y-56667345D01*
X134960789Y-56667344D01*
X134794780Y-56609255D01*
X134794779Y-56609254D01*
X134794777Y-56609254D01*
X134663834Y-56594500D01*
X134576166Y-56594500D01*
X134445223Y-56609254D01*
X134445220Y-56609254D01*
X134445219Y-56609255D01*
X134279212Y-56667343D01*
X134151536Y-56747567D01*
X134083214Y-56766872D01*
X134015301Y-56746176D01*
X133969358Y-56692049D01*
X133958500Y-56640879D01*
X133958500Y-53975000D01*
X134695715Y-53975000D01*
X134714771Y-54119752D01*
X134770644Y-54254641D01*
X134770649Y-54254649D01*
X134859525Y-54370474D01*
X134951586Y-54441115D01*
X134975357Y-54459355D01*
X135110246Y-54515228D01*
X135255000Y-54534285D01*
X135399754Y-54515228D01*
X135534643Y-54459355D01*
X135539618Y-54455537D01*
X135605840Y-54429937D01*
X135616322Y-54429500D01*
X135739501Y-54429500D01*
X135807622Y-54449502D01*
X135854115Y-54503158D01*
X135865501Y-54555500D01*
X135865501Y-54625072D01*
X135880265Y-54699300D01*
X135936516Y-54783484D01*
X136020697Y-54839733D01*
X136020699Y-54839734D01*
X136094933Y-54854500D01*
X138645066Y-54854499D01*
X138645069Y-54854498D01*
X138645073Y-54854498D01*
X138694326Y-54844701D01*
X138719301Y-54839734D01*
X138803484Y-54783484D01*
X138859734Y-54699301D01*
X138874500Y-54625067D01*
X138874499Y-53324934D01*
X138874498Y-53324930D01*
X138874498Y-53324926D01*
X138859734Y-53250699D01*
X138836629Y-53216121D01*
X138803484Y-53166516D01*
X138803483Y-53166515D01*
X138719302Y-53110266D01*
X138645067Y-53095500D01*
X136094936Y-53095500D01*
X136094926Y-53095501D01*
X136020699Y-53110265D01*
X135936515Y-53166516D01*
X135880266Y-53250697D01*
X135865500Y-53324930D01*
X135865500Y-53394500D01*
X135845498Y-53462621D01*
X135791842Y-53509114D01*
X135739500Y-53520500D01*
X135616322Y-53520500D01*
X135548201Y-53500498D01*
X135539619Y-53494463D01*
X135534644Y-53490646D01*
X135534645Y-53490646D01*
X135523170Y-53485893D01*
X135399754Y-53434772D01*
X135399752Y-53434771D01*
X135255000Y-53415715D01*
X135110247Y-53434771D01*
X135043013Y-53462621D01*
X134975358Y-53490645D01*
X134975357Y-53490646D01*
X134975356Y-53490646D01*
X134859526Y-53579526D01*
X134770646Y-53695356D01*
X134770645Y-53695358D01*
X134750768Y-53743345D01*
X134714771Y-53830247D01*
X134695715Y-53974999D01*
X134695715Y-53975000D01*
X133958500Y-53975000D01*
X133958500Y-53920027D01*
X133978502Y-53851906D01*
X133995400Y-53830937D01*
X135672758Y-52153578D01*
X135735068Y-52119555D01*
X135805883Y-52124619D01*
X135862719Y-52167166D01*
X135878261Y-52194459D01*
X135880265Y-52199298D01*
X135880266Y-52199301D01*
X135880267Y-52199302D01*
X135936516Y-52283484D01*
X136020697Y-52339733D01*
X136020699Y-52339734D01*
X136094933Y-52354500D01*
X138645066Y-52354499D01*
X138645069Y-52354498D01*
X138645073Y-52354498D01*
X138694326Y-52344701D01*
X138719301Y-52339734D01*
X138803484Y-52283484D01*
X138859734Y-52199301D01*
X138874500Y-52125067D01*
X138874499Y-50824934D01*
X138874498Y-50824930D01*
X138874498Y-50824926D01*
X138859734Y-50750699D01*
X138803483Y-50666515D01*
X138719302Y-50610266D01*
X138645067Y-50595500D01*
X136094936Y-50595500D01*
X136094926Y-50595501D01*
X136020699Y-50610265D01*
X135936515Y-50666516D01*
X135880266Y-50750697D01*
X135865500Y-50824930D01*
X135865500Y-51004554D01*
X135845498Y-51072675D01*
X135791842Y-51119168D01*
X135755092Y-51129585D01*
X135747453Y-51130537D01*
X135740299Y-51132666D01*
X135733304Y-51135069D01*
X135688847Y-51159127D01*
X135686535Y-51160317D01*
X135641158Y-51182501D01*
X135635108Y-51186820D01*
X135629248Y-51191382D01*
X135595031Y-51228553D01*
X135593228Y-51230432D01*
X133388569Y-53435090D01*
X133368397Y-53451473D01*
X133360586Y-53456576D01*
X133360585Y-53456577D01*
X133340172Y-53482803D01*
X133335006Y-53488653D01*
X133332558Y-53491101D01*
X133320494Y-53507997D01*
X133318941Y-53510080D01*
X133287912Y-53549947D01*
X133284378Y-53556476D01*
X133281115Y-53563152D01*
X133266700Y-53611569D01*
X133265907Y-53614046D01*
X133249499Y-53661845D01*
X133248277Y-53669170D01*
X133247357Y-53676545D01*
X133249446Y-53727014D01*
X133249500Y-53729618D01*
X133249499Y-57989165D01*
X133246819Y-58015016D01*
X133244904Y-58024147D01*
X133247093Y-58041703D01*
X133249016Y-58057135D01*
X133249500Y-58064922D01*
X133249500Y-58068384D01*
X133252914Y-58088847D01*
X133253289Y-58091420D01*
X133259538Y-58141548D01*
X133261658Y-58148670D01*
X133264071Y-58155698D01*
X133278609Y-58182563D01*
X133288117Y-58200131D01*
X133289308Y-58202445D01*
X133311501Y-58247840D01*
X133315808Y-58253873D01*
X133320383Y-58259751D01*
X133357566Y-58293981D01*
X133359421Y-58295760D01*
X134383160Y-59319499D01*
X135401524Y-60337863D01*
X135435550Y-60400175D01*
X135430485Y-60470990D01*
X135387938Y-60527826D01*
X135321418Y-60552637D01*
X135279819Y-60548665D01*
X135272755Y-60546772D01*
X135272754Y-60546772D01*
X135128000Y-60527715D01*
X134983247Y-60546771D01*
X134915801Y-60574708D01*
X134848358Y-60602645D01*
X134848357Y-60602646D01*
X134848356Y-60602646D01*
X134732526Y-60691526D01*
X134643646Y-60807356D01*
X134643645Y-60807358D01*
X134638557Y-60819642D01*
X134587771Y-60942247D01*
X134568715Y-61086999D01*
X134568715Y-61092755D01*
X134548713Y-61160876D01*
X134531814Y-61181845D01*
X134149111Y-61564549D01*
X133769569Y-61944091D01*
X133749397Y-61960473D01*
X133741586Y-61965576D01*
X133741583Y-61965579D01*
X133733061Y-61976528D01*
X133675434Y-62017996D01*
X133647102Y-62024410D01*
X133627123Y-62026557D01*
X133627115Y-62026559D01*
X133499614Y-62074116D01*
X133499609Y-62074119D01*
X133390669Y-62155669D01*
X133309119Y-62264609D01*
X133309116Y-62264614D01*
X133261559Y-62392115D01*
X133261557Y-62392123D01*
X133255500Y-62448466D01*
X133255500Y-62976533D01*
X133261557Y-63032876D01*
X133261559Y-63032884D01*
X133309116Y-63160385D01*
X133309119Y-63160390D01*
X133390669Y-63269330D01*
X133485703Y-63340470D01*
X133499613Y-63350883D01*
X133537766Y-63365113D01*
X133582891Y-63381945D01*
X133639727Y-63424492D01*
X133664537Y-63491012D01*
X133649445Y-63560386D01*
X133599242Y-63610588D01*
X133582891Y-63618055D01*
X133499614Y-63649116D01*
X133499609Y-63649119D01*
X133390669Y-63730669D01*
X133309119Y-63839609D01*
X133309116Y-63839614D01*
X133261559Y-63967115D01*
X133261557Y-63967123D01*
X133255500Y-64023466D01*
X133255500Y-64551533D01*
X133261557Y-64607876D01*
X133261559Y-64607884D01*
X133309116Y-64735385D01*
X133309119Y-64735390D01*
X133390669Y-64844330D01*
X133499609Y-64925880D01*
X133499609Y-64925881D01*
X133499611Y-64925881D01*
X133499613Y-64925883D01*
X133548534Y-64944130D01*
X133605368Y-64986675D01*
X133630179Y-65053195D01*
X133630500Y-65062187D01*
X133630499Y-65106897D01*
X133610495Y-65175017D01*
X133556839Y-65221509D01*
X133546116Y-65225823D01*
X133495229Y-65243629D01*
X133495225Y-65243631D01*
X133384989Y-65324989D01*
X133303631Y-65435225D01*
X133303628Y-65435232D01*
X133258379Y-65564545D01*
X133255500Y-65595248D01*
X133255500Y-66104740D01*
X133255501Y-66104755D01*
X133258379Y-66135452D01*
X133258380Y-66135455D01*
X133303628Y-66264767D01*
X133303631Y-66264774D01*
X133384989Y-66375010D01*
X133456108Y-66427498D01*
X133499040Y-66484043D01*
X133504587Y-66554822D01*
X133470986Y-66617365D01*
X133424010Y-66645984D01*
X133424245Y-66646505D01*
X133420075Y-66648381D01*
X133418783Y-66649169D01*
X133417296Y-66649632D01*
X133417295Y-66649632D01*
X133270159Y-66738578D01*
X133270149Y-66738586D01*
X133148586Y-66860149D01*
X133143879Y-66866158D01*
X133142555Y-66865121D01*
X133096968Y-66906868D01*
X133026998Y-66918897D01*
X132961632Y-66891187D01*
X132921624Y-66832537D01*
X132915500Y-66793734D01*
X132915500Y-50575000D01*
X133834561Y-50575000D01*
X133854254Y-50749777D01*
X133879437Y-50821745D01*
X133912344Y-50915789D01*
X133912345Y-50915791D01*
X134005918Y-51064713D01*
X134130286Y-51189081D01*
X134220873Y-51246000D01*
X134279211Y-51282656D01*
X134445223Y-51340746D01*
X134576166Y-51355500D01*
X134663834Y-51355500D01*
X134794777Y-51340746D01*
X134960789Y-51282656D01*
X135109713Y-51189081D01*
X135234081Y-51064713D01*
X135327656Y-50915789D01*
X135385746Y-50749777D01*
X135405439Y-50575000D01*
X135385746Y-50400223D01*
X135327656Y-50234211D01*
X135301498Y-50192580D01*
X135234081Y-50085286D01*
X135109713Y-49960918D01*
X134960791Y-49867345D01*
X134960789Y-49867344D01*
X134794780Y-49809255D01*
X134794779Y-49809254D01*
X134794777Y-49809254D01*
X134663834Y-49794500D01*
X134576166Y-49794500D01*
X134445223Y-49809254D01*
X134445220Y-49809254D01*
X134445219Y-49809255D01*
X134279210Y-49867344D01*
X134279208Y-49867345D01*
X134130286Y-49960918D01*
X134005918Y-50085286D01*
X133912345Y-50234208D01*
X133912344Y-50234210D01*
X133876080Y-50337847D01*
X133854254Y-50400223D01*
X133834561Y-50575000D01*
X132915500Y-50575000D01*
X132915500Y-48069000D01*
X134907001Y-48069000D01*
X134907001Y-48072221D01*
X134913481Y-48143553D01*
X134964633Y-48307706D01*
X135053578Y-48454840D01*
X135053586Y-48454850D01*
X135175149Y-48576413D01*
X135175159Y-48576421D01*
X135322293Y-48665366D01*
X135486447Y-48716518D01*
X135557777Y-48722999D01*
X135635999Y-48722998D01*
X135636000Y-48722998D01*
X135636000Y-48069000D01*
X134907001Y-48069000D01*
X132915500Y-48069000D01*
X132915500Y-44069137D01*
X132935502Y-44001016D01*
X132989158Y-43954523D01*
X133059432Y-43944419D01*
X133124012Y-43973913D01*
X133162075Y-44032561D01*
X133174223Y-44072608D01*
X133174225Y-44072614D01*
X133267824Y-44247724D01*
X133393788Y-44401211D01*
X133547275Y-44527175D01*
X133722388Y-44620775D01*
X133856000Y-44661305D01*
X133856000Y-44304000D01*
X134364000Y-44304000D01*
X134364000Y-44686880D01*
X134372000Y-44730659D01*
X134372000Y-44823597D01*
X134378505Y-44884093D01*
X134429555Y-45020964D01*
X134429555Y-45020965D01*
X134517095Y-45137904D01*
X134634034Y-45225444D01*
X134770906Y-45276494D01*
X134831402Y-45282999D01*
X134831415Y-45283000D01*
X134926000Y-45283000D01*
X134926000Y-44304000D01*
X134364000Y-44304000D01*
X133856000Y-44304000D01*
X133856000Y-43844650D01*
X133884457Y-43890610D01*
X133973962Y-43958201D01*
X134081840Y-43988895D01*
X134193521Y-43978546D01*
X134293922Y-43928552D01*
X134369484Y-43845666D01*
X134388724Y-43796000D01*
X134926000Y-43796000D01*
X134926000Y-43218800D01*
X134946002Y-43150679D01*
X134999658Y-43104186D01*
X135069932Y-43094082D01*
X135134512Y-43123576D01*
G37*
G04 #@! TD.AperFunction*
G04 #@! TA.AperFunction,Conductor*
G36*
X148434718Y-47022502D02*
G01*
X148481211Y-47076158D01*
X148491315Y-47146432D01*
X148491054Y-47148153D01*
X148483135Y-47198158D01*
X148482500Y-47202168D01*
X148482500Y-48290832D01*
X148497501Y-48385552D01*
X148498719Y-48389300D01*
X148498856Y-48394108D01*
X148499053Y-48395350D01*
X148498892Y-48395375D01*
X148500747Y-48460268D01*
X148464085Y-48521066D01*
X148400374Y-48552392D01*
X148391693Y-48553585D01*
X148355770Y-48557255D01*
X148355758Y-48557257D01*
X148193115Y-48611152D01*
X148047271Y-48701109D01*
X148047265Y-48701114D01*
X147926114Y-48822265D01*
X147926107Y-48822273D01*
X147893477Y-48875176D01*
X147840691Y-48922653D01*
X147770616Y-48934056D01*
X147710727Y-48909895D01*
X147637167Y-48854827D01*
X147637166Y-48854826D01*
X147605929Y-48843175D01*
X147507973Y-48806640D01*
X147500834Y-48805872D01*
X147450871Y-48800500D01*
X147450864Y-48800500D01*
X146909136Y-48800500D01*
X146909128Y-48800500D01*
X146852027Y-48806640D01*
X146722833Y-48854826D01*
X146722832Y-48854827D01*
X146612458Y-48937454D01*
X146612457Y-48937455D01*
X146612456Y-48937456D01*
X146546912Y-49025011D01*
X146490077Y-49067556D01*
X146446046Y-49075500D01*
X146411322Y-49075500D01*
X146343201Y-49055498D01*
X146334619Y-49049463D01*
X146329644Y-49045646D01*
X146329645Y-49045646D01*
X146194752Y-48989771D01*
X146050000Y-48970715D01*
X145905247Y-48989771D01*
X145837801Y-49017708D01*
X145770358Y-49045645D01*
X145770357Y-49045646D01*
X145770356Y-49045646D01*
X145654526Y-49134526D01*
X145565646Y-49250356D01*
X145565645Y-49250358D01*
X145547829Y-49293369D01*
X145509771Y-49385247D01*
X145490715Y-49529999D01*
X145490715Y-49530000D01*
X145509771Y-49674752D01*
X145531049Y-49726121D01*
X145565645Y-49809643D01*
X145569460Y-49814615D01*
X145595063Y-49880834D01*
X145595500Y-49891321D01*
X145595500Y-50356414D01*
X145575498Y-50424535D01*
X145571435Y-50430477D01*
X145568673Y-50434277D01*
X145527267Y-50515542D01*
X145478518Y-50567157D01*
X145409604Y-50584223D01*
X145342402Y-50561322D01*
X145302733Y-50515542D01*
X145261326Y-50434277D01*
X145261324Y-50434274D01*
X145170723Y-50343673D01*
X145056553Y-50285501D01*
X144991836Y-50275251D01*
X144961834Y-50270500D01*
X144598166Y-50270500D01*
X144572266Y-50274602D01*
X144503446Y-50285501D01*
X144389276Y-50343673D01*
X144298675Y-50434274D01*
X144298673Y-50434277D01*
X144257267Y-50515542D01*
X144208518Y-50567157D01*
X144139604Y-50584223D01*
X144072402Y-50561322D01*
X144032733Y-50515542D01*
X143991326Y-50434277D01*
X143991324Y-50434274D01*
X143900724Y-50343674D01*
X143896794Y-50341672D01*
X143892881Y-50337976D01*
X143892703Y-50337847D01*
X143892719Y-50337823D01*
X143845180Y-50292923D01*
X143828000Y-50229407D01*
X143828000Y-49546644D01*
X143828240Y-49541152D01*
X143829796Y-49523358D01*
X143831677Y-49501857D01*
X143821465Y-49463748D01*
X143820282Y-49458412D01*
X143813432Y-49419560D01*
X143813430Y-49419556D01*
X143810989Y-49412850D01*
X143805662Y-49399988D01*
X143802654Y-49393536D01*
X143792463Y-49378982D01*
X143780025Y-49361219D01*
X143777079Y-49356594D01*
X143763964Y-49333879D01*
X143757360Y-49322440D01*
X143757358Y-49322438D01*
X143727142Y-49297083D01*
X143723099Y-49293379D01*
X143111613Y-48681893D01*
X143107909Y-48677850D01*
X143103000Y-48672000D01*
X143082560Y-48647640D01*
X143082559Y-48647639D01*
X143082558Y-48647638D01*
X143079723Y-48645259D01*
X143076510Y-48640430D01*
X143075473Y-48639194D01*
X143075610Y-48639078D01*
X143040397Y-48586149D01*
X143039271Y-48515162D01*
X143071624Y-48459638D01*
X143076418Y-48454843D01*
X143076421Y-48454840D01*
X143165366Y-48307706D01*
X143216518Y-48143553D01*
X143216518Y-48143552D01*
X143223000Y-48072222D01*
X143223000Y-48069000D01*
X142112000Y-48069000D01*
X142043879Y-48048998D01*
X141997386Y-47995342D01*
X141986000Y-47943000D01*
X141986000Y-47687000D01*
X142006002Y-47618879D01*
X142059658Y-47572386D01*
X142112000Y-47561000D01*
X143222999Y-47561000D01*
X143222999Y-47557778D01*
X143215915Y-47479801D01*
X143218710Y-47479547D01*
X143223934Y-47421189D01*
X143267490Y-47365123D01*
X143269144Y-47364096D01*
X143274931Y-47359824D01*
X143274940Y-47359820D01*
X143316526Y-47318232D01*
X143318204Y-47316614D01*
X143361356Y-47276577D01*
X143361356Y-47276576D01*
X143367244Y-47269193D01*
X143367917Y-47269729D01*
X143377419Y-47257339D01*
X143473355Y-47161404D01*
X143535669Y-47127379D01*
X143562451Y-47124500D01*
X143851395Y-47124500D01*
X143919516Y-47144502D01*
X143966009Y-47198158D01*
X143969450Y-47206467D01*
X144009657Y-47314266D01*
X144009979Y-47314696D01*
X144096596Y-47430404D01*
X144212733Y-47517342D01*
X144348658Y-47568040D01*
X144408745Y-47574500D01*
X145405254Y-47574499D01*
X145465342Y-47568040D01*
X145601267Y-47517342D01*
X145717404Y-47430404D01*
X145804342Y-47314267D01*
X145844549Y-47206467D01*
X145887096Y-47149631D01*
X145953617Y-47124821D01*
X145962605Y-47124500D01*
X146050818Y-47124500D01*
X146118939Y-47144502D01*
X146151685Y-47174990D01*
X146230596Y-47280404D01*
X146346733Y-47367342D01*
X146482658Y-47418040D01*
X146542745Y-47424500D01*
X147589254Y-47424499D01*
X147649342Y-47418040D01*
X147785267Y-47367342D01*
X147901404Y-47280404D01*
X147988342Y-47164267D01*
X148018107Y-47084463D01*
X148060652Y-47027632D01*
X148127172Y-47002821D01*
X148136161Y-47002500D01*
X148366597Y-47002500D01*
X148434718Y-47022502D01*
G37*
G04 #@! TD.AperFunction*
G04 #@! TA.AperFunction,Conductor*
G36*
X142082766Y-37685502D02*
G01*
X142129259Y-37739158D01*
X142139363Y-37809432D01*
X142109869Y-37874012D01*
X142094579Y-37888899D01*
X142033788Y-37938788D01*
X141907824Y-38092275D01*
X141814225Y-38267385D01*
X141814219Y-38267400D01*
X141756585Y-38457393D01*
X141756583Y-38457405D01*
X141742000Y-38605473D01*
X141742000Y-38701000D01*
X142450000Y-38701000D01*
X142450000Y-39209000D01*
X141742000Y-39209000D01*
X141742000Y-39304526D01*
X141756583Y-39452594D01*
X141756585Y-39452606D01*
X141814219Y-39642599D01*
X141814225Y-39642614D01*
X141907824Y-39817724D01*
X142033788Y-39971211D01*
X142187275Y-40097175D01*
X142362388Y-40190775D01*
X142496000Y-40231305D01*
X142496000Y-39414650D01*
X142524457Y-39460610D01*
X142613962Y-39528201D01*
X142721840Y-39558895D01*
X142833521Y-39548546D01*
X142933922Y-39498552D01*
X143004000Y-39421681D01*
X143004000Y-40231305D01*
X143137611Y-40190775D01*
X143312724Y-40097175D01*
X143466211Y-39971211D01*
X143592175Y-39817724D01*
X143640287Y-39727714D01*
X143690039Y-39677066D01*
X143759275Y-39661356D01*
X143826015Y-39685572D01*
X143861577Y-39725962D01*
X143922778Y-39836226D01*
X143922778Y-39836227D01*
X144049023Y-39983285D01*
X144049029Y-39983290D01*
X144202298Y-40101929D01*
X144376308Y-40187285D01*
X144376309Y-40187286D01*
X144455000Y-40207660D01*
X144455000Y-39213000D01*
X143772191Y-39213000D01*
X143758568Y-39209000D01*
X143050000Y-39209000D01*
X143050000Y-38701000D01*
X143741809Y-38701000D01*
X143755432Y-38705000D01*
X144459000Y-38705000D01*
X144459000Y-39308624D01*
X144473505Y-39381545D01*
X144528760Y-39464240D01*
X144611455Y-39519495D01*
X144709000Y-39538898D01*
X144806545Y-39519495D01*
X144889240Y-39464240D01*
X144944495Y-39381545D01*
X144959000Y-39308624D01*
X144959000Y-39213000D01*
X144963000Y-39213000D01*
X144963000Y-40211187D01*
X145130858Y-40149019D01*
X145295347Y-40046493D01*
X145295354Y-40046489D01*
X145435827Y-39912957D01*
X145546550Y-39753878D01*
X145622982Y-39575767D01*
X145661999Y-39385912D01*
X145662000Y-39385906D01*
X145662000Y-39213000D01*
X150756000Y-39213000D01*
X150756000Y-39337350D01*
X150770692Y-39481819D01*
X150770693Y-39481824D01*
X150828716Y-39666757D01*
X150922778Y-39836226D01*
X150922778Y-39836227D01*
X151049023Y-39983285D01*
X151049029Y-39983290D01*
X151202298Y-40101929D01*
X151376308Y-40187285D01*
X151376309Y-40187286D01*
X151455000Y-40207660D01*
X151455000Y-39213000D01*
X150756000Y-39213000D01*
X145662000Y-39213000D01*
X144963000Y-39213000D01*
X144959000Y-39213000D01*
X144959000Y-38705000D01*
X145662000Y-38705000D01*
X145662000Y-38580668D01*
X145661999Y-38580649D01*
X145647307Y-38436180D01*
X145647306Y-38436175D01*
X145589283Y-38251242D01*
X145495221Y-38081773D01*
X145495221Y-38081772D01*
X145368976Y-37934714D01*
X145368974Y-37934713D01*
X145312680Y-37891138D01*
X145271056Y-37833623D01*
X145267133Y-37762735D01*
X145302159Y-37700980D01*
X145365011Y-37667964D01*
X145389806Y-37665500D01*
X151023936Y-37665500D01*
X151092057Y-37685502D01*
X151138550Y-37739158D01*
X151148654Y-37809432D01*
X151119160Y-37874012D01*
X151110746Y-37882824D01*
X150982170Y-38005045D01*
X150871449Y-38164121D01*
X150795017Y-38342232D01*
X150756000Y-38532087D01*
X150756000Y-38705000D01*
X151459000Y-38705000D01*
X151459000Y-39308624D01*
X151473505Y-39381545D01*
X151528760Y-39464240D01*
X151611455Y-39519495D01*
X151709000Y-39538898D01*
X151806545Y-39519495D01*
X151889240Y-39464240D01*
X151944495Y-39381545D01*
X151959000Y-39308624D01*
X151959000Y-38812611D01*
X151963000Y-38831000D01*
X151963000Y-40211187D01*
X152130858Y-40149019D01*
X152295347Y-40046493D01*
X152295354Y-40046489D01*
X152435827Y-39912957D01*
X152546550Y-39753878D01*
X152592711Y-39646309D01*
X152637956Y-39591596D01*
X152705597Y-39570030D01*
X152774161Y-39588458D01*
X152821877Y-39641028D01*
X152834500Y-39695997D01*
X152834500Y-50443742D01*
X152814498Y-50511863D01*
X152760842Y-50558356D01*
X152690568Y-50568460D01*
X152625988Y-50538966D01*
X152607632Y-50519251D01*
X152600404Y-50509596D01*
X152499788Y-50434277D01*
X152484267Y-50422658D01*
X152484265Y-50422657D01*
X152484266Y-50422657D01*
X152348349Y-50371962D01*
X152348342Y-50371960D01*
X152332027Y-50370206D01*
X152266436Y-50343034D01*
X152225947Y-50284715D01*
X152219500Y-50244928D01*
X152219500Y-50052294D01*
X152239502Y-49984173D01*
X152240699Y-49982345D01*
X152242734Y-49979301D01*
X152257500Y-49905067D01*
X152257499Y-49154934D01*
X152257498Y-49154931D01*
X152257498Y-49154926D01*
X152251228Y-49123408D01*
X152242734Y-49080699D01*
X152242733Y-49080698D01*
X152242734Y-49080698D01*
X152179590Y-48986199D01*
X152183142Y-48983825D01*
X152160364Y-48942052D01*
X152157500Y-48915341D01*
X152157500Y-48690343D01*
X152177502Y-48622222D01*
X152206796Y-48590381D01*
X152287474Y-48528474D01*
X152308230Y-48501424D01*
X152376355Y-48412643D01*
X152432228Y-48277754D01*
X152451285Y-48133000D01*
X152432228Y-47988246D01*
X152376355Y-47853358D01*
X152287474Y-47737526D01*
X152287472Y-47737524D01*
X152287471Y-47737523D01*
X152171649Y-47648649D01*
X152171646Y-47648647D01*
X152171643Y-47648645D01*
X152036754Y-47592772D01*
X152036752Y-47592771D01*
X152031241Y-47592046D01*
X152030532Y-47591952D01*
X151965607Y-47563229D01*
X151957895Y-47556135D01*
X151908699Y-47506938D01*
X151847432Y-47445671D01*
X151842720Y-47440399D01*
X151818132Y-47409565D01*
X151804839Y-47400502D01*
X151782836Y-47385500D01*
X151769510Y-47376414D01*
X151767591Y-47375052D01*
X151746950Y-47359819D01*
X151720273Y-47340131D01*
X151720265Y-47340128D01*
X151712638Y-47336096D01*
X151704926Y-47332383D01*
X151656318Y-47317390D01*
X151648708Y-47315042D01*
X151646476Y-47314308D01*
X151590949Y-47294878D01*
X151590700Y-47294831D01*
X151590451Y-47294704D01*
X151582041Y-47291761D01*
X151582444Y-47290609D01*
X151527489Y-47262506D01*
X151491789Y-47201138D01*
X151489690Y-47190739D01*
X151487222Y-47175159D01*
X151476498Y-47107445D01*
X151423189Y-47002821D01*
X151418326Y-46993276D01*
X151327723Y-46902673D01*
X151247896Y-46862000D01*
X151245984Y-46861026D01*
X151194371Y-46812279D01*
X151177305Y-46743364D01*
X151200206Y-46676162D01*
X151214094Y-46659665D01*
X151237832Y-46635926D01*
X151243084Y-46631233D01*
X151273936Y-46606631D01*
X151307083Y-46558012D01*
X151308448Y-46556088D01*
X151316126Y-46545685D01*
X151343369Y-46508773D01*
X151343372Y-46508762D01*
X151347395Y-46501152D01*
X151351112Y-46493432D01*
X151351116Y-46493428D01*
X151368485Y-46437117D01*
X151369178Y-46435011D01*
X151388620Y-46379451D01*
X151388620Y-46379448D01*
X151388621Y-46379446D01*
X151390220Y-46370992D01*
X151391500Y-46362506D01*
X151391500Y-46303672D01*
X151391543Y-46301340D01*
X151391586Y-46300180D01*
X151391675Y-46297795D01*
X151414184Y-46230465D01*
X151415658Y-46228393D01*
X151418316Y-46224732D01*
X151418326Y-46224723D01*
X151476498Y-46110555D01*
X151491500Y-46015834D01*
X151491500Y-44927166D01*
X151476498Y-44832445D01*
X151424635Y-44730659D01*
X151418326Y-44718276D01*
X151327723Y-44627673D01*
X151213553Y-44569501D01*
X151148835Y-44559251D01*
X151118834Y-44554500D01*
X150755166Y-44554500D01*
X150745398Y-44556046D01*
X150739051Y-44557052D01*
X150668640Y-44547949D01*
X150630251Y-44521697D01*
X150543503Y-44434949D01*
X150543501Y-44434948D01*
X150400401Y-44350318D01*
X150241000Y-44304007D01*
X150241000Y-45599500D01*
X150220998Y-45667621D01*
X150167342Y-45714114D01*
X150115000Y-45725500D01*
X149859000Y-45725500D01*
X149790879Y-45705498D01*
X149744386Y-45651842D01*
X149733000Y-45599500D01*
X149733000Y-44304007D01*
X149573598Y-44350318D01*
X149430499Y-44434947D01*
X149343748Y-44521698D01*
X149281436Y-44555723D01*
X149234948Y-44557052D01*
X149231075Y-44556438D01*
X149218834Y-44554500D01*
X148855166Y-44554500D01*
X148829266Y-44558602D01*
X148760446Y-44569501D01*
X148646276Y-44627673D01*
X148555673Y-44718276D01*
X148497501Y-44832446D01*
X148482855Y-44924925D01*
X148452443Y-44989078D01*
X148392175Y-45026605D01*
X148321186Y-45025592D01*
X148318546Y-45024000D01*
X146938000Y-45024000D01*
X146869879Y-45003998D01*
X146823386Y-44950342D01*
X146812000Y-44898000D01*
X146812000Y-44642000D01*
X146832002Y-44573879D01*
X146885658Y-44527386D01*
X146938000Y-44516000D01*
X148299000Y-44516000D01*
X148299000Y-44469483D01*
X148288394Y-44365681D01*
X148288393Y-44365678D01*
X148232655Y-44197468D01*
X148231387Y-44194749D01*
X148231076Y-44192704D01*
X148230349Y-44190509D01*
X148230724Y-44190384D01*
X148220726Y-44124557D01*
X148249707Y-44059745D01*
X148309127Y-44020889D01*
X148345582Y-44015500D01*
X148687927Y-44015500D01*
X148694981Y-44015895D01*
X148734186Y-44020313D01*
X148792014Y-44009370D01*
X148794290Y-44008983D01*
X148852479Y-44000214D01*
X148852484Y-44000211D01*
X148860705Y-43997676D01*
X148868800Y-43994842D01*
X148868807Y-43994841D01*
X148920866Y-43967326D01*
X148922896Y-43966302D01*
X148975921Y-43940767D01*
X148975923Y-43940764D01*
X148983025Y-43935922D01*
X148989931Y-43930824D01*
X148989940Y-43930820D01*
X149031526Y-43889232D01*
X149033204Y-43887614D01*
X149076356Y-43847577D01*
X149076356Y-43847576D01*
X149082244Y-43840193D01*
X149082917Y-43840730D01*
X149092420Y-43828338D01*
X149809836Y-43110922D01*
X149815079Y-43106236D01*
X149845936Y-43081631D01*
X149879083Y-43033012D01*
X149880448Y-43031088D01*
X149893903Y-43012857D01*
X149915369Y-42983773D01*
X149915372Y-42983762D01*
X149919398Y-42976146D01*
X149923112Y-42968432D01*
X149923116Y-42968428D01*
X149940459Y-42912200D01*
X149941185Y-42909991D01*
X149960621Y-42854451D01*
X149960621Y-42854445D01*
X149962217Y-42846009D01*
X149963500Y-42837503D01*
X149963500Y-42778690D01*
X149963544Y-42776334D01*
X149965744Y-42717536D01*
X149964687Y-42708153D01*
X149965537Y-42708057D01*
X149963500Y-42692573D01*
X149963500Y-42664323D01*
X149983502Y-42596202D01*
X150037158Y-42549709D01*
X150107432Y-42539605D01*
X150139188Y-42548534D01*
X150263210Y-42601755D01*
X150455000Y-42641169D01*
X150455000Y-41918701D01*
X150531912Y-41934000D01*
X150886088Y-41934000D01*
X150963000Y-41918701D01*
X150963000Y-42636492D01*
X151057899Y-42626842D01*
X151248652Y-42566993D01*
X151423451Y-42469970D01*
X151423457Y-42469966D01*
X151575140Y-42339751D01*
X151575141Y-42339749D01*
X151697521Y-42181648D01*
X151785562Y-42002163D01*
X151785563Y-42002161D01*
X151808650Y-41913000D01*
X150973850Y-41913000D01*
X151057264Y-41857264D01*
X151118045Y-41766300D01*
X151139388Y-41659000D01*
X151118045Y-41551700D01*
X151057264Y-41460736D01*
X150973850Y-41405000D01*
X151813179Y-41405000D01*
X151746092Y-41223859D01*
X151640341Y-41054197D01*
X151640338Y-41054194D01*
X151502596Y-40909291D01*
X151338512Y-40795084D01*
X151154794Y-40716246D01*
X150963000Y-40676830D01*
X150963000Y-41399298D01*
X150886088Y-41384000D01*
X150531912Y-41384000D01*
X150455000Y-41399298D01*
X150455000Y-40681505D01*
X150454999Y-40681505D01*
X150360110Y-40691155D01*
X150360105Y-40691156D01*
X150169349Y-40751005D01*
X150042533Y-40821394D01*
X149973264Y-40836964D01*
X149906574Y-40812613D01*
X149892627Y-40800611D01*
X149808302Y-40744266D01*
X149734068Y-40729500D01*
X149283936Y-40729500D01*
X149283924Y-40729502D01*
X149208579Y-40744488D01*
X149159419Y-40744488D01*
X149084069Y-40729500D01*
X148633936Y-40729500D01*
X148633924Y-40729502D01*
X148558579Y-40744488D01*
X148509419Y-40744488D01*
X148434069Y-40729500D01*
X147983936Y-40729500D01*
X147983924Y-40729502D01*
X147908579Y-40744488D01*
X147859419Y-40744488D01*
X147784072Y-40729500D01*
X147616125Y-40729500D01*
X147548004Y-40709498D01*
X147515256Y-40679009D01*
X147471901Y-40621093D01*
X147354965Y-40533555D01*
X147218093Y-40482505D01*
X147157597Y-40476000D01*
X147109000Y-40476000D01*
X147109000Y-40923899D01*
X147106579Y-40948480D01*
X147104500Y-40958933D01*
X147104500Y-41649224D01*
X147104501Y-41733000D01*
X147084499Y-41801121D01*
X147030843Y-41847614D01*
X146978501Y-41859000D01*
X146881999Y-41859000D01*
X146864904Y-41876095D01*
X146802592Y-41910121D01*
X146775809Y-41913000D01*
X145973850Y-41913000D01*
X146057264Y-41857264D01*
X146118045Y-41766300D01*
X146139388Y-41659000D01*
X146118045Y-41551700D01*
X146057264Y-41460736D01*
X145973850Y-41405000D01*
X146709000Y-41405000D01*
X146709000Y-40476000D01*
X146660402Y-40476000D01*
X146599906Y-40482505D01*
X146463035Y-40533555D01*
X146463034Y-40533555D01*
X146346094Y-40621096D01*
X146305099Y-40675859D01*
X146248263Y-40718405D01*
X146177447Y-40723469D01*
X146158988Y-40717561D01*
X146154796Y-40716246D01*
X145963000Y-40676830D01*
X145963000Y-41399298D01*
X145886088Y-41384000D01*
X145531912Y-41384000D01*
X145455000Y-41399298D01*
X145455000Y-40681505D01*
X145454999Y-40681505D01*
X145360110Y-40691155D01*
X145360105Y-40691156D01*
X145169349Y-40751005D01*
X145169347Y-40751006D01*
X144994548Y-40848029D01*
X144994542Y-40848033D01*
X144842859Y-40978248D01*
X144842858Y-40978250D01*
X144720478Y-41136351D01*
X144632437Y-41315835D01*
X144632436Y-41315838D01*
X144583839Y-41503533D01*
X144547401Y-41564466D01*
X144483804Y-41596026D01*
X144413241Y-41588193D01*
X144372766Y-41561046D01*
X143941966Y-41130246D01*
X143492613Y-40680893D01*
X143488909Y-40676850D01*
X143488892Y-40676830D01*
X143463560Y-40646640D01*
X143463559Y-40646639D01*
X143448777Y-40638104D01*
X143429401Y-40626918D01*
X143424775Y-40623970D01*
X143392468Y-40601349D01*
X143386029Y-40598347D01*
X143373124Y-40593001D01*
X143366437Y-40590567D01*
X143327602Y-40583719D01*
X143322235Y-40582529D01*
X143284144Y-40572323D01*
X143284143Y-40572323D01*
X143244850Y-40575760D01*
X143239358Y-40576000D01*
X141915910Y-40576000D01*
X141847789Y-40555998D01*
X141826815Y-40539095D01*
X141475005Y-40187285D01*
X141079613Y-39791893D01*
X141075909Y-39787850D01*
X141050559Y-39757639D01*
X141035777Y-39749104D01*
X141016395Y-39737914D01*
X141011775Y-39734970D01*
X140979468Y-39712349D01*
X140973029Y-39709347D01*
X140960124Y-39704001D01*
X140953437Y-39701567D01*
X140914602Y-39694719D01*
X140909235Y-39693529D01*
X140871144Y-39683323D01*
X140871143Y-39683323D01*
X140831850Y-39686760D01*
X140826358Y-39687000D01*
X139462642Y-39687000D01*
X139457150Y-39686760D01*
X139422130Y-39683696D01*
X139417857Y-39683323D01*
X139417856Y-39683323D01*
X139417851Y-39683323D01*
X139379764Y-39693529D01*
X139374399Y-39694718D01*
X139335563Y-39701566D01*
X139328893Y-39703994D01*
X139315957Y-39709352D01*
X139309533Y-39712348D01*
X139277233Y-39734963D01*
X139272601Y-39737914D01*
X139238440Y-39757639D01*
X139213084Y-39787856D01*
X139209370Y-39791909D01*
X137962909Y-41038370D01*
X137958856Y-41042084D01*
X137928639Y-41067440D01*
X137908914Y-41101601D01*
X137905963Y-41106233D01*
X137883348Y-41138533D01*
X137880352Y-41144957D01*
X137874994Y-41157893D01*
X137872566Y-41164563D01*
X137865718Y-41203399D01*
X137864529Y-41208764D01*
X137854323Y-41246851D01*
X137854323Y-41246856D01*
X137857760Y-41286150D01*
X137858000Y-41291642D01*
X137858000Y-42361088D01*
X137837998Y-42429209D01*
X137821095Y-42450184D01*
X137466903Y-42804375D01*
X137462850Y-42808089D01*
X137432639Y-42833440D01*
X137412914Y-42867601D01*
X137409963Y-42872233D01*
X137387348Y-42904533D01*
X137384352Y-42910957D01*
X137378994Y-42923893D01*
X137376566Y-42930563D01*
X137370250Y-42966383D01*
X137338722Y-43029994D01*
X137277807Y-43066462D01*
X137246166Y-43070500D01*
X137004936Y-43070500D01*
X137004931Y-43070501D01*
X136954578Y-43080516D01*
X136905423Y-43080516D01*
X136900083Y-43079454D01*
X136837172Y-43046549D01*
X136802038Y-42984855D01*
X136805836Y-42913960D01*
X136825230Y-42878481D01*
X136830093Y-42872233D01*
X136841085Y-42858111D01*
X136841087Y-42858103D01*
X136844624Y-42851568D01*
X136847884Y-42844902D01*
X136850087Y-42837503D01*
X136862312Y-42796436D01*
X136863083Y-42794030D01*
X136879500Y-42746211D01*
X136879500Y-42746204D01*
X136880725Y-42738863D01*
X136881642Y-42731508D01*
X136879554Y-42681039D01*
X136879500Y-42678435D01*
X136879500Y-41763639D01*
X136899502Y-41695518D01*
X136916405Y-41674544D01*
X136920473Y-41670475D01*
X136936780Y-41649224D01*
X137009355Y-41554643D01*
X137065228Y-41419754D01*
X137084285Y-41275000D01*
X137065228Y-41130246D01*
X137009355Y-40995358D01*
X136920474Y-40879526D01*
X136920472Y-40879524D01*
X136920471Y-40879523D01*
X136804649Y-40790649D01*
X136804641Y-40790644D01*
X136669752Y-40734771D01*
X136525000Y-40715715D01*
X136380247Y-40734771D01*
X136315872Y-40761437D01*
X136245358Y-40790645D01*
X136245357Y-40790646D01*
X136245356Y-40790646D01*
X136129526Y-40879526D01*
X136040646Y-40995356D01*
X136040645Y-40995358D01*
X136022829Y-41038370D01*
X135984771Y-41130247D01*
X135965715Y-41274999D01*
X135965715Y-41275000D01*
X135984771Y-41419752D01*
X136040644Y-41554641D01*
X136040649Y-41554649D01*
X136129526Y-41670475D01*
X136133595Y-41674544D01*
X136167621Y-41736856D01*
X136170500Y-41763639D01*
X136170500Y-42006693D01*
X136150498Y-42074814D01*
X136096842Y-42121307D01*
X136026568Y-42131411D01*
X135961988Y-42101917D01*
X135958248Y-42098544D01*
X135928355Y-42070473D01*
X135840682Y-42022275D01*
X135783224Y-41990687D01*
X135622809Y-41949500D01*
X135498758Y-41949500D01*
X135498755Y-41949500D01*
X135498743Y-41949501D01*
X135375692Y-41965045D01*
X135375690Y-41965046D01*
X135221700Y-42026015D01*
X135221693Y-42026019D01*
X135146011Y-42081005D01*
X135079144Y-42104864D01*
X135009992Y-42088783D01*
X134960829Y-42038465D01*
X134952175Y-42022275D01*
X134826211Y-41868788D01*
X134672724Y-41742824D01*
X134497612Y-41649224D01*
X134497610Y-41649223D01*
X134364000Y-41608692D01*
X134364000Y-42425349D01*
X134335543Y-42379390D01*
X134246038Y-42311799D01*
X134138160Y-42281105D01*
X134026479Y-42291454D01*
X133926078Y-42341448D01*
X133856000Y-42418318D01*
X133856000Y-41608693D01*
X133855999Y-41608692D01*
X133722389Y-41649223D01*
X133722387Y-41649224D01*
X133547275Y-41742824D01*
X133393788Y-41868788D01*
X133267824Y-42022275D01*
X133174225Y-42197385D01*
X133174219Y-42197401D01*
X133162074Y-42237438D01*
X133123159Y-42296819D01*
X133058317Y-42325735D01*
X132988136Y-42315004D01*
X132934898Y-42268033D01*
X132915500Y-42200862D01*
X132915500Y-39639137D01*
X132935502Y-39571016D01*
X132989158Y-39524523D01*
X133059432Y-39514419D01*
X133124012Y-39543913D01*
X133162075Y-39602561D01*
X133174223Y-39642608D01*
X133174225Y-39642614D01*
X133267824Y-39817724D01*
X133393788Y-39971211D01*
X133547275Y-40097175D01*
X133722388Y-40190775D01*
X133856000Y-40231305D01*
X133856000Y-39414650D01*
X133884457Y-39460610D01*
X133973962Y-39528201D01*
X134081840Y-39558895D01*
X134193521Y-39548546D01*
X134293922Y-39498552D01*
X134364000Y-39421681D01*
X134364000Y-40231305D01*
X134497611Y-40190775D01*
X134672724Y-40097175D01*
X134826211Y-39971211D01*
X134952175Y-39817724D01*
X135045774Y-39642614D01*
X135045780Y-39642599D01*
X135103414Y-39452606D01*
X135103416Y-39452594D01*
X135117999Y-39304526D01*
X135118000Y-39304508D01*
X135118000Y-39209000D01*
X134410000Y-39209000D01*
X134410000Y-38701000D01*
X135118000Y-38701000D01*
X135118000Y-38605491D01*
X135117999Y-38605473D01*
X135103416Y-38457405D01*
X135103414Y-38457393D01*
X135045780Y-38267400D01*
X135045774Y-38267385D01*
X134952175Y-38092275D01*
X134826211Y-37938788D01*
X134765421Y-37888899D01*
X134725453Y-37830222D01*
X134723552Y-37759251D01*
X134760323Y-37698519D01*
X134824091Y-37667307D01*
X134845355Y-37665500D01*
X142014645Y-37665500D01*
X142082766Y-37685502D01*
G37*
G04 #@! TD.AperFunction*
G04 #@! TA.AperFunction,Conductor*
G36*
X150325228Y-47083502D02*
G01*
X150371721Y-47137158D01*
X150382336Y-47197216D01*
X150382500Y-47197216D01*
X150382500Y-47198142D01*
X150382719Y-47199382D01*
X150382500Y-47202165D01*
X150382500Y-48290832D01*
X150397501Y-48385553D01*
X150455673Y-48499723D01*
X150520095Y-48564145D01*
X150554121Y-48626457D01*
X150557000Y-48653240D01*
X150557000Y-49658000D01*
X150536998Y-49726121D01*
X150483342Y-49772614D01*
X150431000Y-49784000D01*
X148602000Y-49784000D01*
X148533879Y-49763998D01*
X148487386Y-49710342D01*
X148476000Y-49658000D01*
X148476000Y-49402000D01*
X148496002Y-49333879D01*
X148549658Y-49287386D01*
X148602000Y-49276000D01*
X150049000Y-49276000D01*
X150049000Y-48672000D01*
X149954402Y-48672000D01*
X149893906Y-48678505D01*
X149757035Y-48729555D01*
X149757034Y-48729555D01*
X149663801Y-48799350D01*
X149597281Y-48824161D01*
X149527907Y-48809070D01*
X149499197Y-48787577D01*
X149453930Y-48742310D01*
X149419904Y-48679998D01*
X149424969Y-48609183D01*
X149453930Y-48564120D01*
X149518324Y-48499725D01*
X149518326Y-48499723D01*
X149538429Y-48460268D01*
X149576498Y-48385555D01*
X149591500Y-48290834D01*
X149591500Y-47202166D01*
X149591500Y-47202165D01*
X149591281Y-47199382D01*
X149591500Y-47198339D01*
X149591500Y-47197216D01*
X149591736Y-47197216D01*
X149605879Y-47129902D01*
X149655723Y-47079344D01*
X149716893Y-47063500D01*
X150257107Y-47063500D01*
X150325228Y-47083502D01*
G37*
G04 #@! TD.AperFunction*
G04 #@! TA.AperFunction,Conductor*
G36*
X136727755Y-46610257D02*
G01*
X136762203Y-46672336D01*
X136760265Y-46735109D01*
X136760006Y-46735999D01*
X136760007Y-46736000D01*
X138055500Y-46736000D01*
X138123621Y-46756002D01*
X138170114Y-46809658D01*
X138181500Y-46862000D01*
X138181500Y-47118000D01*
X138161498Y-47186121D01*
X138107842Y-47232614D01*
X138055500Y-47244000D01*
X136833608Y-47244000D01*
X136765487Y-47223998D01*
X136718994Y-47170342D01*
X136717199Y-47166217D01*
X136716999Y-47165735D01*
X136604850Y-47053586D01*
X136604840Y-47053578D01*
X136457704Y-46964632D01*
X136456220Y-46964170D01*
X136455270Y-46963537D01*
X136450755Y-46961505D01*
X136451093Y-46960753D01*
X136397137Y-46924804D01*
X136368715Y-46859745D01*
X136379979Y-46789647D01*
X136418887Y-46742500D01*
X136490010Y-46690010D01*
X136537891Y-46625133D01*
X136594433Y-46582204D01*
X136665213Y-46576657D01*
X136727755Y-46610257D01*
G37*
G04 #@! TD.AperFunction*
G04 #@! TA.AperFunction,Conductor*
G36*
X142524457Y-43890610D02*
G01*
X142613962Y-43958201D01*
X142721840Y-43988895D01*
X142833521Y-43978546D01*
X142933922Y-43928552D01*
X143004000Y-43851681D01*
X143004000Y-44671068D01*
X143030023Y-44705510D01*
X143035404Y-44776303D01*
X143028574Y-44798286D01*
X142969772Y-44940245D01*
X142969771Y-44940246D01*
X142950715Y-45084999D01*
X142950715Y-45085000D01*
X142969771Y-45229752D01*
X142971310Y-45233468D01*
X143025645Y-45364643D01*
X143025647Y-45364646D01*
X143025649Y-45364649D01*
X143114525Y-45480474D01*
X143216381Y-45558631D01*
X143230357Y-45569355D01*
X143365246Y-45625228D01*
X143510000Y-45644285D01*
X143654754Y-45625228D01*
X143789643Y-45569355D01*
X143905474Y-45480474D01*
X143948180Y-45424818D01*
X144005516Y-45382953D01*
X144076387Y-45378731D01*
X144123647Y-45400654D01*
X144212733Y-45467342D01*
X144348658Y-45518040D01*
X144408745Y-45524500D01*
X145405254Y-45524499D01*
X145465342Y-45518040D01*
X145601267Y-45467342D01*
X145717404Y-45380404D01*
X145719028Y-45378233D01*
X145721203Y-45376605D01*
X145723777Y-45374032D01*
X145724146Y-45374401D01*
X145775860Y-45335686D01*
X145846676Y-45330617D01*
X145908990Y-45364639D01*
X145927140Y-45387592D01*
X145992365Y-45493339D01*
X145992370Y-45493345D01*
X146117654Y-45618629D01*
X146117660Y-45618634D01*
X146268478Y-45711659D01*
X146340723Y-45735599D01*
X146399095Y-45776013D01*
X146426350Y-45841569D01*
X146413837Y-45911454D01*
X146365527Y-45963480D01*
X146349289Y-45971261D01*
X146346734Y-45972657D01*
X146230596Y-46059595D01*
X146151687Y-46165008D01*
X146094852Y-46207555D01*
X146050818Y-46215500D01*
X145897182Y-46215500D01*
X145829061Y-46195498D01*
X145796313Y-46165008D01*
X145734260Y-46082114D01*
X145717404Y-46059596D01*
X145601267Y-45972658D01*
X145601265Y-45972657D01*
X145601266Y-45972657D01*
X145465349Y-45921962D01*
X145465344Y-45921960D01*
X145465342Y-45921960D01*
X145435298Y-45918730D01*
X145405256Y-45915500D01*
X144408753Y-45915500D01*
X144408729Y-45915502D01*
X144348660Y-45921959D01*
X144348658Y-45921959D01*
X144212733Y-45972657D01*
X144096596Y-46059595D01*
X144017687Y-46165008D01*
X143960852Y-46207555D01*
X143916818Y-46215500D01*
X143351072Y-46215500D01*
X143344015Y-46215104D01*
X143304814Y-46210687D01*
X143304813Y-46210687D01*
X143304812Y-46210687D01*
X143246986Y-46221627D01*
X143244666Y-46222021D01*
X143186524Y-46230785D01*
X143178271Y-46233330D01*
X143170195Y-46236156D01*
X143154371Y-46244520D01*
X143084797Y-46258664D01*
X143018622Y-46232948D01*
X142976854Y-46175538D01*
X142969499Y-46133119D01*
X142969499Y-45910260D01*
X142969498Y-45910251D01*
X142966621Y-45879549D01*
X142921369Y-45750227D01*
X142921368Y-45750225D01*
X142840010Y-45639989D01*
X142729774Y-45558631D01*
X142729769Y-45558629D01*
X142645888Y-45529277D01*
X142588196Y-45487898D01*
X142576691Y-45470319D01*
X142555872Y-45431850D01*
X142554679Y-45429532D01*
X142554439Y-45429042D01*
X142532499Y-45384160D01*
X142532497Y-45384158D01*
X142528175Y-45378106D01*
X142523620Y-45372253D01*
X142523619Y-45372251D01*
X142486423Y-45338009D01*
X142484566Y-45336227D01*
X142395848Y-45247509D01*
X142361822Y-45185197D01*
X142366887Y-45114382D01*
X142384076Y-45082903D01*
X142430444Y-45020963D01*
X142481494Y-44884093D01*
X142487999Y-44823597D01*
X142488000Y-44823585D01*
X142488000Y-44730659D01*
X142496000Y-44703413D01*
X142496000Y-43844650D01*
X142524457Y-43890610D01*
G37*
G04 #@! TD.AperFunction*
G04 #@! TA.AperFunction,Conductor*
G36*
X141869958Y-43106720D02*
G01*
X141919438Y-43157633D01*
X141934000Y-43216434D01*
X141934000Y-44178000D01*
X141913998Y-44246121D01*
X141860342Y-44292614D01*
X141808000Y-44304000D01*
X141560500Y-44304000D01*
X141492379Y-44283998D01*
X141445886Y-44230342D01*
X141434500Y-44178000D01*
X141434499Y-43350304D01*
X141454501Y-43282183D01*
X141508157Y-43235690D01*
X141514092Y-43233162D01*
X141638299Y-43183985D01*
X141733941Y-43114496D01*
X141800806Y-43090640D01*
X141869958Y-43106720D01*
G37*
G04 #@! TD.AperFunction*
G04 #@! TA.AperFunction,Conductor*
G36*
X143966512Y-42562685D02*
G01*
X143973067Y-42568787D01*
X144652665Y-43248385D01*
X144686689Y-43310695D01*
X144681624Y-43381511D01*
X144652663Y-43426573D01*
X144606169Y-43473068D01*
X144600898Y-43477779D01*
X144570065Y-43502366D01*
X144570064Y-43502368D01*
X144536921Y-43550978D01*
X144535559Y-43552897D01*
X144500631Y-43600226D01*
X144496595Y-43607862D01*
X144492884Y-43615569D01*
X144475542Y-43671792D01*
X144474806Y-43674030D01*
X144455378Y-43729551D01*
X144453782Y-43737982D01*
X144452500Y-43746494D01*
X144452500Y-43747725D01*
X144452118Y-43749022D01*
X144451093Y-43755831D01*
X144450161Y-43755690D01*
X144432498Y-43815846D01*
X144378842Y-43862339D01*
X144355486Y-43870346D01*
X144348656Y-43871960D01*
X144212733Y-43922657D01*
X144096596Y-44009596D01*
X144009658Y-44125733D01*
X143999229Y-44153694D01*
X143956682Y-44210529D01*
X143890162Y-44235339D01*
X143885886Y-44235572D01*
X143882813Y-44235686D01*
X143824996Y-44246625D01*
X143822696Y-44247016D01*
X143820185Y-44247395D01*
X143749841Y-44237793D01*
X143695855Y-44191684D01*
X143675367Y-44123708D01*
X143684177Y-44078594D01*
X143683980Y-44078535D01*
X143684567Y-44076598D01*
X143684963Y-44074573D01*
X143685779Y-44072602D01*
X143743414Y-43882606D01*
X143743416Y-43882594D01*
X143757999Y-43734526D01*
X143758000Y-43734508D01*
X143758000Y-43389000D01*
X143050000Y-43389000D01*
X143050000Y-42881000D01*
X143758000Y-42881000D01*
X143758000Y-42657909D01*
X143778002Y-42589788D01*
X143831658Y-42543295D01*
X143901932Y-42533191D01*
X143966512Y-42562685D01*
G37*
G04 #@! TD.AperFunction*
G04 #@! TD*
M02*
